<?xml version="1.0" encoding="utf-8"?>
<!-- Generator: Adobe Illustrator 23.0.2, SVG Export Plug-In . SVG Version: 6.00 Build 0)  -->
<svg version="1.1" id="Capa_1" xmlns="http://www.w3.org/2000/svg" xmlns:xlink="http://www.w3.org/1999/xlink" x="0px" y="0px"
	 viewBox="0 0 1280 800" style="enable-background:new 0 0 1280 800;" xml:space="preserve">
<style type="text/css">
	.st0{clip-path:url(#SVGID_2_);}
	.st1{filter:url(#Adobe_OpacityMaskFilter);}
	.st2{fill:url(#SVGID_4_);}
	.st3{mask:url(#SVGID_3_);}
	.st4{fill:none;stroke:#000000;stroke-width:0.25;stroke-miterlimit:10;}
	.st5{filter:url(#Adobe_OpacityMaskFilter_1_);}
	.st6{fill:url(#SVGID_6_);}
	.st7{mask:url(#SVGID_5_);}
</style>
<title>backgroundvector</title>
<g>
	<defs>
		<rect id="SVGID_1_" width="1280" height="800"/>
	</defs>
	<clipPath id="SVGID_2_">
		<use xlink:href="#SVGID_1_"  style="overflow:visible;"/>
	</clipPath>
	<g class="st0">
		<defs>
			<filter id="Adobe_OpacityMaskFilter" filterUnits="userSpaceOnUse" x="-102.5" y="-229.9" width="1551.4" height="1114.3">
				<feColorMatrix  type="matrix" values="1 0 0 0 0  0 1 0 0 0  0 0 1 0 0  0 0 0 1 0"/>
			</filter>
		</defs>
		<mask maskUnits="userSpaceOnUse" x="-102.5" y="-229.9" width="1551.4" height="1114.3" id="SVGID_3_">
			<g class="st1">
				<g>
					
						<linearGradient id="SVGID_4_" gradientUnits="userSpaceOnUse" x1="732.8038" y1="-75.2989" x2="845.1514" y2="359.1167" gradientTransform="matrix(-0.8772 0.4802 0.4802 0.8772 1239.0709 -332.7913)">
						<stop  offset="0" style="stop-color:#FFFFFF;stop-opacity:0.15"/>
						<stop  offset="0.139" style="stop-color:#FBFBFB;stop-opacity:0.2682"/>
						<stop  offset="0.2664" style="stop-color:#F0F0F0;stop-opacity:0.3764"/>
						<stop  offset="0.3892" style="stop-color:#DEDEDE;stop-opacity:0.4809"/>
						<stop  offset="0.5093" style="stop-color:#C3C3C3;stop-opacity:0.5829"/>
						<stop  offset="0.6274" style="stop-color:#A2A2A2;stop-opacity:0.6833"/>
						<stop  offset="0.744" style="stop-color:#787878;stop-opacity:0.7824"/>
						<stop  offset="0.8594" style="stop-color:#474747;stop-opacity:0.8805"/>
						<stop  offset="0.971" style="stop-color:#101010;stop-opacity:0.9754"/>
						<stop  offset="1" style="stop-color:#000000"/>
					</linearGradient>
					<polygon class="st2" points="-539.3,533.2 1454.9,-558.4 1867.7,195.7 -126.4,1287.3 					"/>
					<path d="M1454.7-557.7L1867,195.5L-126.2,1286.7l-412.3-753.3L1454.7-557.7 M1455.1-559.1L-539.9,533l413.3,755l1995-1092.1
						L1455.1-559.1L1455.1-559.1z"/>
				</g>
			</g>
		</mask>
		<g class="st3">
			<path class="st4" d="M1254.4-229.6c0,0-171.6,373.4-222.7,357.9C690.2,24.7,663.1,469.8,663.1,469.8l785.7-221.1L1254.4-229.6z"
				/>
			<path class="st4" d="M661.4,469.4c-0.6,0.5,781.5-219.6,781.7-219.4c0.8,1.1-192.1-475.2-192.1-475.2s-170.7,370.9-221.6,355.5
				C689.2,27.1,661.6,469.1,661.4,469.4z"/>
			<path class="st4" d="M659.6,469c-1.1,1,777.3-218.1,777.6-217.6c1.6,2.2-189.8-472-189.8-472s-169.7,368.4-220.4,353
				C688.3,29.5,660.1,468.5,659.6,469z"/>
			<path class="st4" d="M657.9,468.5c-1.7,1.5,773.1-216.6,773.6-215.9c2.4,3.3-187.5-468.9-187.5-468.9s-168.8,365.8-219.3,350.5
				C687.3,31.9,658.7,467.9,657.9,468.5z"/>
			<path class="st4" d="M656.2,468.1c-2.3,2,768.8-215.1,769.5-214.1c3.2,4.4-185.2-465.8-185.2-465.8s-167.8,363.3-218.1,348
				C686.4,34.3,657.2,467.2,656.2,468.1z"/>
			<path class="st4" d="M654.5,467.7c-2.8,2.5,764.6-213.6,765.5-212.4c3.9,5.5-182.9-462.7-182.9-462.7s-166.9,360.7-217,345.5
				C685.5,36.7,655.7,466.6,654.5,467.7z"/>
			<path class="st4" d="M652.7,467.3c-3.4,3,760.4-212.1,761.5-210.6c4.7,6.6-180.6-459.5-180.6-459.5s-166,358.2-215.8,343.1
				C684.5,39.1,654.2,465.9,652.7,467.3z"/>
			<path class="st4" d="M651,466.8c-4,3.5,756.2-210.6,757.4-208.9c5.5,7.7-178.3-456.4-178.3-456.4s-165,355.6-214.7,340.6
				C683.6,41.5,652.8,465.3,651,466.8z"/>
			<path class="st4" d="M649.2,466.4c-4.5,4,751.9-209.1,753.4-207.1c6.3,8.8-176-453.3-176-453.3s-164.1,353.1-213.5,338.1
				C682.6,43.9,651.3,464.6,649.2,466.4z"/>
			<path class="st4" d="M647.5,466c-5.1,4.5,747.7-207.6,749.3-205.4c7.1,9.9-173.6-450.1-173.6-450.1S1060.1,161,1010.8,146.1
				C681.6,46.2,649.8,464,647.5,466z"/>
			<path class="st4" d="M645.8,465.6c-5.6,5,743.5-206.1,745.3-203.6c7.9,11-171.3-447-171.3-447s-162.2,348-211.2,333.1
				C680.7,48.6,648.3,463.3,645.8,465.6z"/>
			<path class="st4" d="M644,465.1c-6.2,5.5,739.3-204.6,741.2-201.9c8.7,12.1-169-443.9-169-443.9S1055,164.8,1006.2,150
				C679.7,51,646.8,462.6,644,465.1z"/>
			<path class="st4" d="M642.3,464.7c-6.8,6,735-203.2,737.2-200.1c9.5,13.2-166.7-440.7-166.7-440.7S1052.5,166.7,1003.8,152
				C678.8,53.4,645.3,462,642.3,464.7z"/>
			<path class="st4" d="M640.5,464.3c-7.3,6.5,730.8-201.7,733.1-198.4c10.3,14.4-164.4-437.6-164.4-437.6S1049.9,168.6,1001.5,154
				C677.8,55.8,643.8,461.3,640.5,464.3z"/>
			<path class="st4" d="M638.8,463.8c-7.9,7,726.6-200.2,729.1-196.6c11,15.5-162.1-434.5-162.1-434.5s-158.4,337.8-206.6,323.2
				C676.8,58.2,642.3,460.7,638.8,463.8z"/>
			<path class="st4" d="M637,463.4c-8.5,7.5,722.4-198.7,725.1-194.9c11.8,16.6-159.8-431.3-159.8-431.3s-157.4,335.3-205.4,320.7
				C675.9,60.5,640.8,460,637,463.4z"/>
			<path class="st4" d="M635.3,463c-9,8,718.1-197.2,721-193.1c12.6,17.7-157.5-428.2-157.5-428.2s-156.5,332.7-204.3,318.2
				C674.9,62.9,639.3,459.4,635.3,463z"/>
			<path class="st4" d="M633.5,462.5c-9.6,8.5,713.9-195.7,717-191.4c13.4,18.8-155.2-425.1-155.2-425.1s-155.5,330.2-203.1,315.7
				C673.9,65.3,637.8,458.7,633.5,462.5z"/>
			<path class="st4" d="M631.7,462.1c-10.2,9,709.7-194.2,712.9-189.6c14.2,19.9-152.9-421.9-152.9-421.9s-154.6,327.6-202,313.3
				C672.9,67.7,636.3,458,631.7,462.1z"/>
			<path class="st4" d="M630,461.7c-10.7,9.5,705.5-192.7,708.9-187.9c15,21-150.6-418.8-150.6-418.8S1034.6,180,987.4,165.7
				C672,70.1,634.8,457.4,630,461.7z"/>
			<path class="st4" d="M628.2,461.2c-11.3,10,701.2-191.2,704.8-186.1c15.8,22.1-148.3-415.7-148.3-415.7s-152.7,322.6-199.7,308.3
				C671,72.4,633.3,456.7,628.2,461.2z"/>
			<path class="st4" d="M626.4,460.8c-11.9,10.5,697-189.7,700.8-184.4c16.6,23.2-146-412.6-146-412.6s-151.7,320-198.5,305.8
				C670,74.8,631.8,456,626.4,460.8z"/>
			<path class="st4" d="M624.7,460.3c-12.4,11,692.8-188.2,696.7-182.6c17.4,24.3-143.7-409.4-143.7-409.4s-150.8,317.5-197.4,303.3
				C669,77.2,630.3,455.4,624.7,460.3z"/>
			<path class="st4" d="M622.9,459.9c-13,11.5,688.6-186.7,692.7-180.9c18.1,25.4-141.4-406.3-141.4-406.3S1024.4,187.6,978,173.6
				C668,79.5,628.7,454.7,622.9,459.9z"/>
			<path class="st4" d="M621.1,459.5c-13.6,12,684.3-185.2,688.7-179.2c18.9,26.5-139.1-403.2-139.1-403.2s-148.9,312.4-195.1,298.4
				C667,81.9,627.2,454.1,621.1,459.5z"/>
			<path class="st4" d="M619.3,459c-14.1,12.5,680.1-183.7,684.6-177.4c19.7,27.6-136.8-400-136.8-400s-148,309.8-193.9,295.9
				C666,84.3,625.7,453.4,619.3,459z"/>
			<path class="st4" d="M617.5,458.6c-14.7,13,675.9-182.2,680.6-175.7c20.5,28.7-134.5-396.9-134.5-396.9s-147,307.3-192.8,293.4
				C665,86.7,624.2,452.7,617.5,458.6z"/>
			<path class="st4" d="M615.8,458.1c-15.2,13.5,671.7-180.7,676.5-173.9c21.3,29.8-132.2-393.8-132.2-393.8
				s-146.1,304.7-191.6,290.9C664,89,622.6,452,615.8,458.1z"/>
			<path class="st4" d="M614,457.7c-15.8,14,667.4-179.2,672.5-172.2c22.1,30.9-129.8-390.6-129.8-390.6s-145.1,302.2-190.5,288.4
				C663,91.4,621.1,451.4,614,457.7z"/>
			<path class="st4" d="M612.2,457.2c-16.4,14.5,663.2-177.7,668.4-170.4c22.9,32-127.5-387.5-127.5-387.5s-144.2,299.7-189.3,286
				C662,93.8,619.5,450.7,612.2,457.2z"/>
			<path class="st4" d="M610.4,456.8c-16.9,15,659-176.2,664.4-168.7c23.7,33.1-125.2-384.4-125.2-384.4s-143.2,297.1-188.2,283.5
				C661,96.1,618,450,610.4,456.8z"/>
			<path class="st4" d="M608.6,456.3c-17.5,15.5,654.8-174.7,660.3-166.9C1293.4,323.6,1146-91.8,1146-91.8s-142.3,294.6-187,281
				C660,98.5,616.4,449.3,608.6,456.3z"/>
			<path class="st4" d="M606.8,455.9c-18.1,16,650.5-173.2,656.3-165.2c25.2,35.3-120.6-378.1-120.6-378.1s-141.3,292-185.9,278.5
				C658.9,100.9,614.9,448.7,606.8,455.9z"/>
			<path class="st4" d="M604.9,455.4c-18.6,16.5,646.3-171.7,652.3-163.4c26,36.4-118.3-375-118.3-375s-140.4,289.5-184.7,276
				C657.9,103.2,613.3,448,604.9,455.4z"/>
			<path class="st4" d="M603.1,455c-19.2,17,642.1-170.2,648.2-161.7c26.8,37.5-116-371.9-116-371.9S995.9,208.4,951.8,195
				C656.9,105.6,611.8,447.3,603.1,455z"/>
			<path class="st4" d="M601.3,454.5c-19.8,17.5,637.9-168.7,644.2-159.9c27.6,38.6-113.7-368.7-113.7-368.7S993.3,210.3,949.4,197
				C655.8,107.9,610.2,446.6,601.3,454.5z"/>
			<path class="st4" d="M599.5,454.1c-20.3,18,633.7-167.2,640.1-158.2c28.4,39.7-111.4-365.6-111.4-365.6S990.7,212.2,947,198.9
				C654.8,110.3,608.7,446,599.5,454.1z"/>
			<path class="st4" d="M597.7,453.6c-20.9,18.5,629.4-165.7,636.1-156.4c29.2,40.8-109.1-362.5-109.1-362.5S988,214,944.5,200.8
				C653.8,112.6,607.1,445.3,597.7,453.6z"/>
			<path class="st4" d="M595.8,453.2c-21.5,19,625.2-164.2,632-154.7c30,41.9-106.8-359.3-106.8-359.3S985.4,215.9,942.1,202.8
				C652.7,115,605.5,444.6,595.8,453.2z"/>
			<path class="st4" d="M594,452.7c-22,19.5,621-162.7,628-152.9c30.8,43.1-104.5-356.2-104.5-356.2S982.8,217.8,939.7,204.7
				C651.7,117.4,603.9,443.9,594,452.7z"/>
			<path class="st4" d="M592.2,452.2c-22.6,20,616.8-161.2,623.9-151.2C1247.7,345.2,1113.9-52,1113.9-52S980.2,219.7,937.3,206.7
				C650.6,119.7,602.3,443.2,592.2,452.2z"/>
			<path class="st4" d="M590.3,451.8c-23.1,20.5,612.5-159.7,619.9-149.4c32.3,45.3-99.9-349.9-99.9-349.9S977.5,221.5,934.9,208.6
				C649.6,122.1,600.8,442.5,590.3,451.8z"/>
			<path class="st4" d="M588.5,451.3c-23.7,21,608.3-158.3,615.9-147.7c33.1,46.4-97.6-346.8-97.6-346.8S974.9,223.4,932.4,210.5
				C648.5,124.4,599.2,441.8,588.5,451.3z"/>
			<path class="st4" d="M586.6,450.9c-24.3,21.5,604.1-156.8,611.8-145.9c33.9,47.5-95.3-343.7-95.3-343.7S972.3,225.3,930,212.5
				C647.4,126.8,597.6,441.2,586.6,450.9z"/>
			<path class="st4" d="M584.8,450.4c-24.8,22,599.9-155.3,607.8-144.2c34.7,48.6-93-340.5-93-340.5s-130,261.5-172,248.7
				C646.4,129.1,596,440.5,584.8,450.4z"/>
			<path class="st4" d="M582.9,449.9c-25.4,22.5,595.6-153.8,603.7-142.4c35.5,49.7-90.7-337.4-90.7-337.4S967,229,925.1,216.3
				C645.3,131.5,594.4,439.8,582.9,449.9z"/>
			<path class="st4" d="M581.1,449.5c-26,23,591.4-152.3,599.7-140.7c36.3,50.8-88.4-334.3-88.4-334.3S964.3,230.9,922.6,218.3
				C644.2,133.8,592.8,439.1,581.1,449.5z"/>
			<path class="st4" d="M579.2,449c-26.5,23.5,587.2-150.8,595.6-138.9c37.1,51.9-86-331.1-86-331.1S961.6,232.8,920.2,220.2
				C643.1,136.1,591.1,438.4,579.2,449z"/>
			<path class="st4" d="M577.3,448.5c-27.1,24,583-149.3,591.6-137.2c37.9,53-83.7-328-83.7-328S959,234.6,917.7,222.1
				C642,138.5,589.5,437.7,577.3,448.5z"/>
			<path class="st4" d="M575.4,448c-27.7,24.5,578.7-147.8,587.5-135.4c38.7,54.1-81.4-324.9-81.4-324.9S956.3,236.5,915.3,224
				C640.9,140.8,587.9,437,575.4,448z"/>
			<path class="st4" d="M573.5,447.6c-28.2,25,574.5-146.3,583.5-133.7c39.4,55.2-79.1-321.8-79.1-321.8S953.6,238.3,912.8,226
				C639.8,143.2,586.3,436.3,573.5,447.6z"/>
			<path class="st4" d="M571.7,447.1c-28.8,25.5,570.3-144.8,579.5-131.9c40.2,56.3-76.8-318.6-76.8-318.6s-123.3,243.7-164,231.4
				C638.7,145.5,584.6,435.6,571.7,447.1z"/>
			<path class="st4" d="M569.8,446.6c-29.4,26,566.1-143.3,575.4-130.2c41,57.4-74.5-315.5-74.5-315.5S948.3,242.1,907.8,229.8
				C637.6,147.8,583,434.9,569.8,446.6z"/>
			<path class="st4" d="M567.9,446.1c-29.9,26.5,561.8-141.8,571.4-128.5C1181,376.2,1067,5.3,1067,5.3S945.6,243.9,905.4,231.7
				C636.5,150.2,581.4,434.2,567.9,446.1z"/>
			<path class="st4" d="M566,445.7c-30.5,27,557.6-140.3,567.3-126.7c42.6,59.6-69.9-309.2-69.9-309.2s-120.5,236-160.5,223.9
				C635.4,152.5,579.7,433.5,566,445.7z"/>
			<path class="st4" d="M564.1,445.2c-31.1,27.5,553.4-138.8,563.3-125c43.4,60.7-67.6-306.1-67.6-306.1S940.2,247.6,900.4,235.6
				C634.3,154.9,578,432.8,564.1,445.2z"/>
			<path class="st4" d="M562.1,444.7c-31.6,28,549.2-137.3,559.2-123.2c44.2,61.8-65.3-303-65.3-303s-118.6,231-158.2,218.9
				C633.1,157.2,576.4,432.1,562.1,444.7z"/>
			<path class="st4" d="M560.2,444.2c-32.2,28.5,544.9-135.8,555.2-121.5c45,62.9-63-299.8-63-299.8S934.7,251.3,895.4,239.4
				C632,159.5,574.7,431.4,560.2,444.2z"/>
			<path class="st4" d="M558.3,443.7c-32.7,29,540.7-134.3,551.1-119.7c45.7,64-60.7-296.7-60.7-296.7S932,253.2,892.8,241.3
				C630.9,161.8,573,430.7,558.3,443.7z"/>
			<path class="st4" d="M556.4,443.2c-33.3,29.5,536.5-132.8,547.1-118c46.5,65.1-58.4-293.6-58.4-293.6S929.3,255,890.3,243.2
				C629.7,164.2,571.4,429.9,556.4,443.2z"/>
			<path class="st4" d="M554.4,442.8c-33.9,30,532.3-131.3,543.1-116.2c47.3,66.2-56.1-290.4-56.1-290.4s-114.8,220.8-153.6,209
				C628.6,166.5,569.7,429.2,554.4,442.8z"/>
			<path class="st4" d="M552.5,442.3c-34.4,30.5,528-129.8,539-114.5c48.1,67.3-53.8-287.3-53.8-287.3S923.8,258.7,885.3,247
				C627.4,168.8,568,428.5,552.5,442.3z"/>
			<path class="st4" d="M550.5,441.8c-35,31,523.8-128.3,535-112.7c48.9,68.4-51.5-284.2-51.5-284.2S921.1,260.6,882.7,248.9
				C626.2,171.1,566.3,427.8,550.5,441.8z"/>
			<path class="st4" d="M548.6,441.3c-35.6,31.5,519.6-126.8,530.9-111c49.7,69.5-49.2-281.1-49.2-281.1s-112,213.1-150.1,201.6
				C625.1,173.5,564.6,427.1,548.6,441.3z"/>
			<path class="st4" d="M546.6,440.8c-36.1,32,515.4-125.3,526.9-109.2c50.5,70.6-46.9-277.9-46.9-277.9s-111,210.6-149,199.1
				C623.9,175.8,562.9,426.4,546.6,440.8z"/>
			<path class="st4" d="M544.6,440.3c-36.7,32.5,511.1-123.8,522.8-107.5c51.3,71.8-44.6-274.8-44.6-274.8S912.8,266.1,875.1,254.6
				C622.7,178.1,561.2,425.6,544.6,440.3z"/>
			<path class="st4" d="M542.6,439.8c-37.3,33,506.9-122.3,518.8-105.7c52.1,72.9-42.2-271.7-42.2-271.7S910,267.9,872.5,256.5
				C621.5,180.4,559.4,424.9,542.6,439.8z"/>
			<path class="st4" d="M540.7,439.3c-37.8,33.5,502.7-120.8,514.7-104c52.8,74-39.9-268.5-39.9-268.5s-108.2,203-145.5,191.6
				C620.3,182.7,557.7,424.2,540.7,439.3z"/>
			<path class="st4" d="M538.7,438.8c-38.4,34,498.5-119.3,510.7-102.2c53.6,75.1-37.6-265.4-37.6-265.4S904.5,271.6,867.3,260.3
				C619.1,185,556,423.5,538.7,438.8z"/>
			<path class="st4" d="M536.7,438.3c-39,34.5,494.2-117.8,506.7-100.5C1097.7,414,1008,75.6,1008,75.6S901.7,273.4,864.8,262.2
				C617.9,187.3,554.2,422.7,536.7,438.3z"/>
			<path class="st4" d="M534.7,437.8c-39.5,35,490-116.3,502.6-98.7c55.2,77.3-33-259.1-33-259.1S898.9,275.3,862.2,264.1
				C616.6,189.7,552.5,422,534.7,437.8z"/>
			<path class="st4" d="M532.6,437.3c-40.1,35.5,485.8-114.8,498.6-97c56,78.4-30.7-256-30.7-256S896.1,277.1,859.6,266
				C615.4,192,550.7,421.3,532.6,437.3z"/>
			<path class="st4" d="M530.6,436.8c-40.7,36,481.6-113.4,494.5-95.2c56.8,79.5-28.4-252.9-28.4-252.9S893.3,278.9,856.9,267.9
				C614.2,194.3,548.9,420.5,530.6,436.8z"/>
			<path class="st4" d="M528.6,436.3c-41.2,36.5,477.4-111.9,490.5-93.5C1076.6,423.4,993,93,993,93S890.4,280.7,854.3,269.8
				C612.9,196.6,547.2,419.8,528.6,436.3z"/>
			<path class="st4" d="M526.5,435.8c-41.8,37,473.1-110.4,486.4-91.7c58.4,81.7-23.8-246.6-23.8-246.6S887.6,282.6,851.7,271.7
				C611.7,198.9,545.4,419.1,526.5,435.8z"/>
			<path class="st4" d="M524.5,435.2c-42.3,37.5,468.9-108.9,482.4-90c59.2,82.8-21.5-243.5-21.5-243.5S884.8,284.4,849.1,273.6
				C610.4,201.2,543.6,418.3,524.5,435.2z"/>
			<path class="st4" d="M522.4,434.7c-42.9,38,464.7-107.4,478.3-88.2c59.9,83.9-19.2-240.3-19.2-240.3s-99.7,180.1-135.2,169.3
				C609.1,203.5,541.8,417.6,522.4,434.7z"/>
			<path class="st4" d="M520.4,434.2c-43.5,38.5,460.5-105.9,474.3-86.5c60.7,85-16.9-237.2-16.9-237.2s-98.7,177.5-134,166.8
				C607.8,205.8,540,416.9,520.4,434.2z"/>
			<path class="st4" d="M518.3,433.7c-44,39,456.2-104.4,470.3-84.7c61.5,86.1-14.6-234.1-14.6-234.1s-97.8,175-132.9,164.3
				C606.6,208.1,538.1,416.1,518.3,433.7z"/>
			<path class="st4" d="M516.2,433.2c-44.6,39.5,452-102.9,466.2-83c62.3,87.2-12.3-231-12.3-231s-96.8,172.4-131.7,161.9
				C605.3,210.4,536.3,415.4,516.2,433.2z"/>
			<path class="st4" d="M514.1,432.7c-45.2,40,447.8-101.4,462.2-81.2c63.1,88.3-10-227.8-10-227.8S870.4,293.5,835.7,283
				C603.9,212.6,534.5,414.6,514.1,432.7z"/>
			<path class="st4" d="M512,432.1c-45.7,40.5,443.6-99.9,458.1-79.5c63.9,89.4-7.7-224.7-7.7-224.7s-94.9,167.3-129.4,156.9
				C602.6,214.9,532.6,413.9,512,432.1z"/>
			<path class="st4" d="M509.9,431.6c-46.3,41,439.3-98.4,454.1-77.8c64.7,90.5-5.4-221.6-5.4-221.6s-94,164.8-128.3,154.4
				C601.3,217.2,530.8,413.1,509.9,431.6z"/>
			<path class="st4" d="M507.8,431.1c-46.9,41.5,435.1-96.9,450-76c65.5,91.6-3.1-218.4-3.1-218.4s-93,162.3-127.1,151.9
				C600,219.5,528.9,412.4,507.8,431.1z"/>
			<path class="st4" d="M505.6,430.5c-47.4,42,430.9-95.4,446-74.3c66.3,92.7-0.7-215.3-0.7-215.3s-92.1,159.7-126,149.4
				C598.6,221.8,527,411.6,505.6,430.5z"/>
			<path class="st4" d="M503.5,430c-48,42.5,426.7-93.9,441.9-72.5c67,93.8,1.6-212.2,1.6-212.2s-91.2,157.2-124.8,147
				C597.2,224.1,525.1,410.8,503.5,430z"/>
			<path class="st4" d="M501.3,429.5c-48.6,43,422.4-92.4,437.9-70.8c67.8,94.9,3.9-209,3.9-209s-90.2,154.6-123.6,144.5
				C595.9,226.3,523.2,410.1,501.3,429.5z"/>
			<path class="st4" d="M499.2,428.9C450,472.5,917.4,338,933,359.9c68.6,96,6.2-205.9,6.2-205.9s-89.3,152.1-122.5,142
				C594.5,228.6,521.3,409.3,499.2,428.9z"/>
			<path class="st4" d="M497,428.4c-49.7,44,414-89.4,429.8-67.3c69.4,97.1,8.5-202.8,8.5-202.8S847,307.9,813.9,297.9
				C593.1,230.9,519.4,408.6,497,428.4z"/>
			<path class="st4" d="M494.8,427.9c-50.3,44.5,409.8-87.9,425.8-65.5c70.2,98.2,10.8-199.6,10.8-199.6s-87.4,147-120.2,137
				C591.7,233.2,517.4,407.8,494.8,427.9z"/>
			<path class="st4" d="M492.6,427.3c-50.8,45,405.5-86.4,421.7-63.8c71,99.4,13.1-196.5,13.1-196.5s-86.4,144.4-119,134.6
				C590.3,235.4,515.5,407,492.6,427.3z"/>
			<path class="st4" d="M490.4,426.8c-51.4,45.5,401.3-84.9,417.7-62c71.8,100.5,15.4-193.4,15.4-193.4S838,313.3,805.6,303.4
				C588.8,237.7,513.5,406.2,490.4,426.8z"/>
			<path class="st4" d="M488.1,426.2c-51.9,46,397.1-83.4,413.6-60.3c72.6,101.6,17.7-190.3,17.7-190.3S835,315.1,802.7,305.3
				C587.4,240,511.6,405.5,488.1,426.2z"/>
			<path class="st4" d="M485.9,425.7c-52.5,46.5,392.9-81.9,409.6-58.5c73.4,102.7,20-187.1,20-187.1s-83.6,136.8-115.6,127.1
				C585.9,242.2,509.6,404.7,485.9,425.7z"/>
			<path class="st4" d="M483.7,425.1c-53.1,47,388.6-80.4,405.5-56.8c74.1,103.8,22.3-184,22.3-184S828.9,318.6,797.1,309
				C584.5,244.5,507.6,403.9,483.7,425.1z"/>
			<path class="st4" d="M481.4,424.6c-53.6,47.5,384.4-78.9,401.5-55c74.9,104.9,24.6-180.9,24.6-180.9s-81.7,131.7-113.3,122.1
				C583,246.8,505.6,403.1,481.4,424.6z"/>
			<path class="st4" d="M479.1,424c-54.2,48,380.2-77.4,397.5-53.3c75.7,106,26.9-177.7,26.9-177.7s-80.7,129.2-112.1,119.7
				C581.5,249,503.5,402.4,479.1,424z"/>
			<path class="st4" d="M476.8,423.4c-54.8,48.5,376-75.9,393.4-51.5c76.5,107.1,29.2-174.6,29.2-174.6s-79.8,126.6-111,117.2
				C580,251.3,501.5,401.6,476.8,423.4z"/>
			<path class="st4" d="M474.5,422.9c-55.3,49,371.7-74.4,389.4-49.8c77.3,108.2,31.5-171.5,31.5-171.5s-78.8,124.1-109.8,114.7
				C578.5,253.5,499.5,400.8,474.5,422.9z"/>
			<path class="st4" d="M472.2,422.3c-55.9,49.5,367.5-72.9,385.3-48c78.1,109.3,33.8-168.3,33.8-168.3s-77.9,121.5-108.7,112.2
				C576.9,255.8,497.4,400,472.2,422.3z"/>
			<path class="st4" d="M469.9,421.7c-56.5,50,363.3-71.4,381.3-46.3c78.9,110.4,36.1-165.2,36.1-165.2s-76.9,119-107.5,109.7
				C575.4,258,495.3,399.2,469.9,421.7z"/>
			<path class="st4" d="M467.5,421.2c-57,50.5,359.1-70,377.2-44.5c79.7,111.5,38.4-162.1,38.4-162.1s-76,116.5-106.4,107.3
				C573.8,260.2,493.2,398.4,467.5,421.2z"/>
			<path class="st4" d="M465.1,420.6c-57.6,51,354.8-68.5,373.2-42.8c80.5,112.6,40.7-158.9,40.7-158.9S804,332.8,773.8,323.6
				C572.2,262.5,491.1,397.6,465.1,420.6z"/>
			<path class="st4" d="M462.7,420c-58.2,51.5,350.6-67,369.1-41c81.2,113.7,43.1-155.8,43.1-155.8s-74.1,111.4-104.1,102.3
				C570.6,264.7,489,396.8,462.7,420z"/>
			<path class="st4" d="M460.4,419.4c-58.7,52,346.4-65.5,365.1-39.3c82,114.8,45.4-152.7,45.4-152.7s-73.2,108.8-102.9,99.8
				C569,267,486.8,396,460.4,419.4z"/>
			<path class="st4" d="M457.9,418.9c-59.3,52.5,342.2-64,361.1-37.5c82.8,115.9,47.7-149.6,47.7-149.6s-72.2,106.3-101.8,97.3
				C567.4,269.2,484.7,395.2,457.9,418.9z"/>
			<path class="st4" d="M455.5,418.3c-59.8,53,337.9-62.5,357-35.8c83.6,117,50-146.4,50-146.4s-71.3,103.7-100.6,94.8
				C565.7,271.4,482.5,394.4,455.5,418.3z"/>
			<path class="st4" d="M453.1,417.7c-60.4,53.5,333.7-61,353-34c84.4,118.1,52.3-143.3,52.3-143.3s-70.3,101.2-99.5,92.4
				C564.1,273.6,480.3,393.6,453.1,417.7z"/>
			<path class="st4" d="M450.6,417.1c-61,54,329.5-59.5,348.9-32.3c85.2,119.2,54.6-140.2,54.6-140.2s-69.4,98.7-98.3,89.9
				C562.4,275.9,478.1,392.8,450.6,417.1z"/>
			<path class="st4" d="M448.1,416.5C386.6,471,773.4,358.5,793,386c86,120.3,56.9-137,56.9-137s-68.4,96.1-97.2,87.4
				C560.7,278.1,475.9,391.9,448.1,416.5z"/>
			<path class="st4" d="M445.6,415.9c-62.1,55,321.1-56.5,340.8-28.8c86.8,121.4,59.2-133.9,59.2-133.9s-67.5,93.6-96,84.9
				C559,280.3,473.6,391.1,445.6,415.9z"/>
			<path class="st4" d="M443.1,415.3c-62.7,55.5,316.8-55,336.8-27.1c87.6,122.5,61.5-130.8,61.5-130.8s-66.5,91-94.8,82.4
				C557.3,282.5,471.3,390.3,443.1,415.3z"/>
			<path class="st4" d="M440.6,414.7c-63.2,56,312.6-53.5,332.7-25.3c88.3,123.6,63.8-127.6,63.8-127.6s-65.6,88.5-93.7,79.9
				C555.5,284.7,469.1,389.5,440.6,414.7z"/>
			<path class="st4" d="M438,414.1c-63.8,56.5,308.4-52,328.7-23.6c89.1,124.7,66.1-124.5,66.1-124.5s-64.6,85.9-92.5,77.5
				C553.7,286.9,466.8,388.6,438,414.1z"/>
			<path class="st4" d="M435.4,413.5c-64.4,57,304.2-50.5,324.7-21.8c89.9,125.8,68.4-121.4,68.4-121.4s-63.7,83.4-91.4,75
				C552,289.1,464.5,387.8,435.4,413.5z"/>
			<path class="st4" d="M432.9,412.9c-64.9,57.5,299.9-49,320.6-20.1c90.7,126.9,70.7-118.2,70.7-118.2s-62.7,80.8-90.2,72.5
				C550.2,291.3,462.1,387,432.9,412.9z"/>
			<path class="st4" d="M430.3,411.7c-65.5,58,295.7-47.5,316.6-18.3c91.5,128.1,73-115.1,73-115.1s-61.8,78.3-89.1,70
				C548.3,292.9,459.8,385.5,430.3,411.7z"/>
			<path class="st4" d="M427.6,410c-66.1,58.5,291.5-46,312.5-16.6c92.3,129.2,75.3-112,75.3-112s-60.9,75.8-87.9,67.5
				C546.5,294.1,457.4,383.6,427.6,410z"/>
			<path class="st4" d="M425,408.3c-66.6,59,287.3-44.5,308.5-14.8c93.1,130.3,77.6-108.8,77.6-108.8s-59.9,73.2-86.8,65.1
				C544.6,295.2,455,381.7,425,408.3z"/>
			<path class="st4" d="M422.4,406.6c-67.2,59.5,283-43,304.4-13.1c93.9,131.4,79.9-105.7,79.9-105.7s-59,70.7-85.6,62.6
				C542.8,296.3,452.6,379.8,422.4,406.6z"/>
			<path class="st4" d="M419.7,404.9c-67.8,60,278.8-41.5,300.4-11.3C814.7,526,802.3,291,802.3,291s-58,68.1-84.5,60.1
				C540.9,297.4,450.2,377.8,419.7,404.9z"/>
			<path class="st4" d="M417,403.2c-68.3,60.5,274.6-40,296.3-9.6c95.4,133.6,84.5-99.5,84.5-99.5s-57.1,65.6-83.3,57.6
				C539,298.5,447.8,375.9,417,403.2z"/>
			<path class="st4" d="M414.3,401.5c-68.9,61,270.4-38.5,292.3-7.8c96.2,134.7,86.9-96.3,86.9-96.3s-56.1,63-82.2,55.1
				C537.1,299.6,445.4,373.9,414.3,401.5z"/>
			<path class="st4" d="M411.6,399.7c-69.4,61.5,266.1-37,288.3-6.1c97,135.8,89.2-93.2,89.2-93.2s-55.2,60.5-81,52.6
				C535.2,300.7,442.9,372,411.6,399.7z"/>
			<path class="st4" d="M408.9,398c-70,62,261.9-35.5,284.2-4.3c97.8,136.9,91.5-90.1,91.5-90.1s-54.2,57.9-79.9,50.2
				C533.2,301.8,440.4,370,408.9,398z"/>
			<path class="st4" d="M406.2,396.3c-70.6,62.5,257.7-34,280.2-2.6c98.6,138,93.8-86.9,93.8-86.9s-53.3,55.4-78.7,47.7
				C531.3,302.8,438,368.1,406.2,396.3z"/>
			<path class="st4" d="M403.4,394.5c-71.1,63,253.5-32.5,276.1-0.8c99.4,139.1,96.1-83.8,96.1-83.8s-52.3,52.9-77.6,45.2
				C529.3,303.9,435.5,366.1,403.4,394.5z"/>
			<path class="st4" d="M400.7,392.8c-71.7,63.5,249.2-31,272.1,0.9c100.2,140.2,98.4-80.7,98.4-80.7s-51.4,50.3-76.4,42.7
				C527.4,305,433,364.1,400.7,392.8z"/>
			<path class="st4" d="M397.9,391c-72.3,64,245-29.5,268,2.7c101,141.3,100.7-77.5,100.7-77.5s-50.4,47.8-75.3,40.2
				C525.4,306,430.5,362.2,397.9,391z"/>
			<path class="st4" d="M395.2,389.3c-72.8,64.5,240.8-28,264,4.4c101.8,142.4,103-74.4,103-74.4s-49.5,45.2-74.1,37.8
				C523.5,307.1,428,360.2,395.2,389.3z"/>
			<path class="st4" d="M392.5,387.5c-73.4,65,236.6-26.5,259.9,6.2c102.5,143.5,105.3-71.3,105.3-71.3s-48.5,42.7-73,35.3
				C521.5,308.1,425.5,358.2,392.5,387.5z"/>
			<path class="st4" d="M389.7,385.7c-74,65.5,232.3-25.1,255.9,7.9c103.3,144.6,107.6-68.1,107.6-68.1s-47.6,40.1-71.8,32.8
				C519.6,309.2,423.1,356.2,389.7,385.7z"/>
			<path class="st4" d="M387,383.9c-74.5,66,228.1-23.6,251.9,9.7c104.1,145.7,109.9-65,109.9-65s-46.6,37.6-70.7,30.3
				C517.6,310.2,420.6,354.2,387,383.9z"/>
			<path class="st4" d="M384.3,382.1c-75.1,66.5,223.9-22.1,247.8,11.4c104.9,146.8,112.2-61.9,112.2-61.9s-45.7,35-69.5,27.8
				C515.7,311.2,418.1,352.1,384.3,382.1z"/>
			<path class="st4" d="M381.5,380.3c-75.7,67,219.7-20.6,243.8,13.2c105.7,147.9,114.5-58.8,114.5-58.8s-44.8,32.5-68.4,25.3
				C513.7,312.2,415.6,350.1,381.5,380.3z"/>
			<path class="st4" d="M378.8,378.8c-76.2,67.5,215.4-19.1,239.7,14.9C725,542.7,735.4,338,735.4,338s-43.8,30-67.2,22.9
				C511.8,313.5,413.2,348.3,378.8,378.8z"/>
			<path class="st4" d="M376.1,378.5c-76.8,68,211.2-17.6,235.7,16.7c107.3,150.1,119.1-52.5,119.1-52.5S688,370,664.9,363
				C509.9,316,410.7,347.8,376.1,378.5z"/>
			<path class="st4" d="M373.4,378.2c-77.4,68.5,207-16.1,231.6,18.4c108.1,151.2,121.4-49.4,121.4-49.4s-41.9,24.9-64.9,17.9
				C507.9,318.6,408.3,347.3,373.4,378.2z"/>
			<path class="st4" d="M370.7,378c-77.9,69,202.8-14.6,227.6,20.2C707.1,550.5,722,351.9,722,351.9s-41,22.3-63.7,15.4
				C506,321.1,405.8,346.8,370.7,378z"/>
			<path class="st4" d="M368,377.7c-78.5,69.5,198.5-13.1,223.5,21.9c109.6,153.4,126-43.1,126-43.1s-40,19.8-62.6,12.9
				C504.1,323.7,403.3,346.4,368,377.7z"/>
			<path class="st4" d="M365.3,377.5c-79,70,194.3-11.6,219.5,23.6c110.4,154.5,128.3-40,128.3-40s-39.1,17.2-61.4,10.4
				C502.2,326.3,400.9,346,365.3,377.5z"/>
			<path class="st4" d="M362.6,377.3C283,447.9,552.7,367.3,578,402.7c111.2,155.6,130.7-36.8,130.7-36.8s-38.1,14.7-60.3,8
				C500.3,328.9,398.5,345.6,362.6,377.3z"/>
			<path class="st4" d="M359.9,377.2c-80.2,71,185.9-8.6,211.4,27.1c112,156.8,133-33.7,133-33.7s-37.2,12.1-59.1,5.5
				C498.3,331.6,396,345.2,359.9,377.2z"/>
			<path class="st4" d="M357.2,377.1c-80.7,71.5,181.6-7.1,207.4,28.9c112.8,157.9,135.3-30.6,135.3-30.6s-36.2,9.6-58,3
				C496.4,334.3,393.6,344.8,357.2,377.1z"/>
			<path class="st4" d="M354.5,376.9c-81.3,72,177.4-5.6,203.3,30.6c113.6,159,137.6-27.4,137.6-27.4s-35.3,7.1-56.8,0.5
				C494.5,337,391.2,344.5,354.5,376.9z"/>
			<path class="st4" d="M351.8,376.9c-81.9,72.5,173.2-4.1,199.3,32.4C665.5,569.3,691,384.9,691,384.9s-34.3,4.5-55.7-2
				C492.6,339.7,388.7,344.2,351.8,376.9z"/>
			<path class="st4" d="M349.1,376.8c-82.4,73,169-2.6,195.2,34.1c115.2,161.2,142.2-21.2,142.2-21.2s-33.4,2-54.5-4.4
				C490.8,342.5,386.3,343.9,349.1,376.8z"/>
			<path class="st4" d="M346.5,376.8c-83,73.5,164.8-1.1,191.2,35.9c116,162.3,144.5-18,144.5-18s-32.4-0.6-53.4-6.9
				C488.9,345.3,383.9,343.6,346.5,376.8z"/>
			<path class="st4" d="M343.8,376.8c-83.6,74,160.5,0.4,187.1,37.6c116.7,163.4,146.8-14.9,146.8-14.9s-31.5-3.1-52.2-9.4
				C487,348.1,381.5,343.4,343.8,376.8z"/>
			<path class="st4" d="M341.2,376.8c-84.1,74.5,156.3,1.9,183.1,39.4c117.5,164.5,149.1-11.8,149.1-11.8s-30.6-5.7-51.1-11.9
				C485.1,350.9,379.1,343.2,341.2,376.8z"/>
			<path class="st4" d="M338.5,376.9c-84.7,75,152.1,3.4,179,41.1c118.3,165.6,151.4-8.7,151.4-8.7s-29.6-8.2-49.9-14.4
				C483.2,353.8,376.7,343.1,338.5,376.9z"/>
			<path class="st4" d="M335.8,377c-85.3,75.5,147.9,4.9,175,42.9c119.1,166.7,153.7-5.5,153.7-5.5s-28.7-10.8-48.8-16.9
				C481.4,356.7,374.3,342.9,335.8,377z"/>
			<path class="st4" d="M333.2,377.1c-85.8,76,143.6,6.4,171,44.6c119.9,167.8,156-2.4,156-2.4S632.5,406,612.6,400
				C479.5,359.6,371.9,342.8,333.2,377.1z"/>
			<path class="st4" d="M330.6,377.2c-86.4,76.5,139.4,7.9,166.9,46.4c120.7,168.9,158.3,0.7,158.3,0.7s-26.8-15.8-46.5-21.8
				C477.7,362.6,369.5,342.7,330.6,377.2z"/>
			<path class="st4" d="M327.9,377.4c-87,77,135.2,9.4,162.9,48.1c121.5,170,160.6,3.9,160.6,3.9s-25.8-18.4-45.3-24.3
				C475.8,365.5,367.1,342.6,327.9,377.4z"/>
			<path class="st4" d="M325.3,377.5c-87.5,77.5,131,10.9,158.8,49.9c122.3,171.1,162.9,7,162.9,7s-24.9-20.9-44.2-26.8
				C474,368.5,364.8,342.6,325.3,377.5z"/>
			<path class="st4" d="M322.7,377.7c-88.1,78,126.7,12.4,154.8,51.6c123,172.2,165.2,10.1,165.2,10.1s-23.9-23.5-43-29.3
				C472.1,371.5,362.4,342.5,322.7,377.7z"/>
			<path class="st4" d="M320.1,377.9c-88.6,78.5,122.5,13.9,150.7,53.4c123.8,173.3,167.5,13.3,167.5,13.3s-23-26-41.9-31.7
				C470.3,374.5,360,342.5,320.1,377.9z"/>
			<path class="st4" d="M317.5,378.1c-89.2,79,118.3,15.4,146.7,55.1C588.8,607.7,634,449.6,634,449.6s-22-28.6-40.7-34.2
				C468.5,377.6,357.7,342.5,317.5,378.1z"/>
			<path class="st4" d="M314.9,378.3c-89.8,79.5,114.1,16.9,142.6,56.9c125.4,175.5,172.2,19.5,172.2,19.5s-21.1-31.1-39.6-36.7
				C466.7,380.6,355.3,342.5,314.9,378.3z"/>
			<path class="st4" d="M312.3,378.6c-90.3,80,109.8,18.4,138.6,58.6c126.2,176.6,174.5,22.7,174.5,22.7s-20.1-33.7-38.4-39.2
				C464.9,383.6,353,342.5,312.3,378.6z"/>
			<path class="st4" d="M309.7,378.8c-90.9,80.5,105.6,19.8,134.6,60.4c127,177.7,176.8,25.8,176.8,25.8s-19.2-36.2-37.2-41.7
				C463.1,386.7,350.7,342.5,309.7,378.8z"/>
			<path class="st4" d="M307.1,379c-91.5,81,101.4,21.3,130.5,62.1c127.8,178.8,179.1,28.9,179.1,28.9s-18.2-38.7-36.1-44.2
				C461.3,389.7,348.4,342.5,307.1,379z"/>
			<path class="st4" d="M304.6,379.3c-92,81.5,97.2,22.8,126.5,63.9c128.6,179.9,181.4,32,181.4,32s-17.3-41.3-34.9-46.6
				C459.5,392.8,346.1,342.5,304.6,379.3z"/>
			<path class="st4" d="M302,379.5c-92.6,82,92.9,24.3,122.4,65.6c129.4,181,183.7,35.2,183.7,35.2s-16.4-43.8-33.8-49.1
				C457.7,395.8,343.7,342.5,302,379.5z"/>
			<path class="st4" d="M299.5,379.7c-93.2,82.5,88.7,25.8,118.4,67.4c130.1,182.1,186,38.3,186,38.3s-15.4-46.4-32.6-51.6
				C456,398.9,341.5,342.5,299.5,379.7z"/>
			<path class="st4" d="M296.9,380c-93.7,83,84.5,27.3,114.3,69.1c130.9,183.2,188.3,41.4,188.3,41.4s-14.5-48.9-31.5-54.1
				C454.2,401.9,339.2,342.5,296.9,380z"/>
			<path class="st4" d="M294.4,380.2c-94.3,83.5,80.3,28.8,110.3,70.9c131.7,184.3,190.6,44.6,190.6,44.6s-13.5-51.5-30.3-56.6
				C452.5,405,336.9,342.6,294.4,380.2z"/>
			<path class="st4" d="M291.9,380.5c-94.9,84,76,30.3,106.2,72.6C530.6,638.5,591,500.8,591,500.8s-12.6-54-29.2-59.1
				C450.7,408,334.6,342.6,291.9,380.5z"/>
			<path class="st4" d="M289.4,380.7c-95.4,84.5,71.8,31.8,102.2,74.3c133.3,186.6,195.2,50.8,195.2,50.8s-11.6-56.6-28-61.5
				C449,411.1,332.4,342.6,289.4,380.7z"/>
			<path class="st4" d="M286.9,380.9c-96,85,67.6,33.3,98.2,76.1c134.1,187.7,197.5,54,197.5,54s-10.7-59.1-26.9-64
				C447.3,414.1,330.1,342.6,286.9,380.9z"/>
			<path class="st4" d="M284.4,381.1c-96.5,85.5,63.4,34.8,94.1,77.8c134.9,188.8,199.8,57.1,199.8,57.1s-9.7-61.6-25.7-66.5
				C445.6,417.1,327.9,342.6,284.4,381.1z"/>
			<path class="st4" d="M281.9,381.4c-97.1,86,59.1,36.3,90.1,79.6c135.7,189.9,202.1,60.2,202.1,60.2s-8.8-64.2-24.6-69
				C443.9,420.2,325.7,342.6,281.9,381.4z"/>
			<path class="st4" d="M279.4,381.6c-97.7,86.5,54.9,37.8,86,81.3c136.5,191,204.4,63.4,204.4,63.4s-7.8-66.7-23.4-71.5
				C442.2,423.2,323.5,342.6,279.4,381.6z"/>
			<path class="st4" d="M277,381.8c-98.2,87.1,50.7,39.3,82,83.1c137.2,192.1,206.7,66.5,206.7,66.5s-6.9-69.3-22.3-73.9
				C440.6,426.2,321.3,342.5,277,381.8z"/>
			<path class="st4" d="M274.5,382c-98.8,87.6,46.5,40.8,77.9,84.8c138,193.2,209,69.6,209,69.6s-5.9-71.8-21.1-76.4
				C438.9,429.2,319.1,342.5,274.5,382z"/>
			<path class="st4" d="M272.1,382.2c-99.4,88.1,42.2,42.3,73.9,86.6c138.8,194.3,211.3,72.7,211.3,72.7s-5-74.4-20-78.9
				C437.3,432.2,316.9,342.5,272.1,382.2z"/>
			<path class="st4" d="M269.7,382.4c-99.9,88.6,38,43.8,69.8,88.3c139.6,195.4,213.6,75.9,213.6,75.9s-4-76.9-18.8-81.4
				C435.6,435.2,314.8,342.5,269.7,382.4z"/>
			<path class="st4" d="M267.3,382.6c-100.5,89.1,33.8,45.3,65.8,90.1c140.4,196.5,216,79,216,79s-3.1-79.5-17.7-83.9
				C434,438.2,312.6,342.4,267.3,382.6z"/>
			<path class="st4" d="M264.9,382.7c-101.1,89.6,29.6,46.8,61.8,91.8C467.9,672.2,545,556.7,545,556.7s-2.1-82-16.5-86.4
				C432.4,441.2,310.5,342.4,264.9,382.7z"/>
			<path class="st4" d="M262.6,382.9c-101.6,90.1,25.4,48.3,57.7,93.6c142,198.7,220.6,85.3,220.6,85.3s-1.2-84.5-15.4-88.8
				C430.8,444.2,308.4,342.3,262.6,382.9z"/>
			<path class="st4" d="M260.2,383.1c-102.2,90.6,21.1,49.8,53.7,95.3c142.8,199.8,222.9,88.4,222.9,88.4s-0.3-87.1-14.2-91.3
				C429.3,447.2,306.3,342.2,260.2,383.1z"/>
			<path class="st4" d="M257.9,383.2c-102.8,91.1,16.9,51.3,49.6,97.1c143.6,200.9,225.2,91.5,225.2,91.5s0.7-89.6-13.1-93.8
				C427.7,450.1,304.2,342.2,257.9,383.2z"/>
			<path class="st4" d="M255.5,383.3c-103.3,91.6,12.7,52.8,45.6,98.8c144.3,202,227.5,94.7,227.5,94.7s1.6-92.2-11.9-96.3
				C426.2,453.1,302.1,342.1,255.5,383.3z"/>
			<path class="st4" d="M253.2,383.5c-103.9,92.1,8.5,54.3,41.5,100.6c145.1,203.1,229.8,97.8,229.8,97.8s2.6-94.7-10.8-98.8
				C424.6,456,300,342,253.2,383.5z"/>
			<path class="st4" d="M250.8,383.6c-104.5,92.6,4.2,55.8,37.5,102.3c145.9,204.2,232.1,100.9,232.1,100.9s3.5-97.3-9.6-101.2
				C423,459,297.9,341.9,250.8,383.6z"/>
			<path class="st4" d="M248.4,383.7c-105,93.1,0,57.3,33.4,104.1c146.7,205.3,234.4,104.1,234.4,104.1s4.5-99.8-8.4-103.7
				C421.4,461.9,295.7,341.8,248.4,383.7z"/>
			<path class="st4" d="M245.9,383.8c-105.6,93.6-4.2,58.8,29.4,105.8C422.8,696,512,596.8,512,596.8s5.4-102.4-7.3-106.2
				C419.7,464.8,293.5,341.6,245.9,383.8z"/>
			<path class="st4" d="M243.5,383.9c-106.1,94.1-8.4,60.3,25.4,107.6c148.3,207.5,239,110.3,239,110.3s6.4-104.9-6.1-108.7
				C418,467.7,291.3,341.5,243.5,383.9z"/>
			<path class="st4" d="M241,384c-106.7,94.6-12.7,61.8,21.3,109.3c149.1,208.6,241.3,113.5,241.3,113.5s7.3-107.4-5-111.2
				C416.4,470.6,289.1,341.3,241,384z"/>
			<path class="st4" d="M238.6,384c-107.3,95.1-16.9,63.3,17.3,111.1c149.9,209.7,243.6,116.6,243.6,116.6s8.3-110-3.8-113.7
				C414.7,473.5,286.9,341.2,238.6,384z"/>
			<path class="st4" d="M236.1,384.1c-107.8,95.6-21.1,64.7,13.2,112.8C400,707.7,495.2,616.6,495.2,616.6s9.2-112.5-2.7-116.1
				C413,476.3,284.7,341,236.1,384.1z"/>
			<path class="st4" d="M233.6,384.1c-108.4,96.1-25.3,66.2,9.2,114.6C394.3,710.6,491,621.5,491,621.5s10.2-115.1-1.5-118.6
				C411.3,479.2,282.5,340.8,233.6,384.1z"/>
			<path class="st4" d="M231.2,384.2c-109,96.6-29.6,67.7,5.1,116.3c152.2,213.1,250.5,126,250.5,126s11.1-117.6-0.4-121.1
				C409.6,482.1,280.3,340.7,231.2,384.2z"/>
			<path class="st4" d="M228.7,384.2c-109.5,97.1-33.8,69.2,1.1,118.1c153,214.2,252.8,129.1,252.8,129.1s12.1-120.2,0.8-123.6
				C408,484.9,278.1,340.4,228.7,384.2z"/>
			<path class="st4" d="M226.3,384.2c-110.1,97.6-38,70.7-3,119.8c153.8,215.3,255.1,132.2,255.1,132.2s13-122.7,1.9-126.1
				C406.3,487.7,275.9,340.2,226.3,384.2z"/>
			<path class="st4" d="M223.9,384.2c-110.7,98.1-42.2,72.2-7,121.6c154.6,216.4,257.4,135.4,257.4,135.4s13.9-125.3,3.1-128.6
				C404.7,490.5,273.7,340,223.9,384.2z"/>
			<path class="st4" d="M221.5,384.2c-111.2,98.6-46.5,73.7-11,123.3C365.8,725,470.2,646,470.2,646s14.9-127.8,4.2-131
				C403.1,493.3,271.6,339.8,221.5,384.2z"/>
			<path class="st4" d="M219.1,384.2c-111.8,99.1-50.7,75.2-15.1,125C360.2,727.8,466,650.8,466,650.8s15.8-130.3,5.4-133.5
				C401.5,496.1,269.5,339.5,219.1,384.2z"/>
			<path class="st4" d="M216.7,384.1c-112.4,99.6-54.9,76.7-19.1,126.8c157,219.7,264.4,144.8,264.4,144.8s16.8-132.9,6.5-136
				C399.9,498.9,267.4,339.3,216.7,384.1z"/>
			<path class="st4" d="M214.4,384.1c-112.9,100.1-59.1,78.2-23.2,128.5C349,733.4,457.9,660.5,457.9,660.5s17.7-135.4,7.7-138.5
				C398.3,501.7,265.3,339,214.4,384.1z"/>
			<path class="st4" d="M212.1,384c-113.5,100.6-63.4,79.7-27.2,130.3c158.5,221.9,269,151,269,151s18.7-138,8.8-141
				C396.8,504.4,263.2,338.7,212.1,384z"/>
			<path class="st4" d="M209.8,383.9C95.7,485,142.2,465.2,178.5,516c159.3,223,271.3,154.2,271.3,154.2s19.6-140.5,10-143.4
				C395.3,507.1,261.2,338.4,209.8,383.9z"/>
			<path class="st4" d="M207.5,383.9c-114.6,101.6-71.8,82.7-35.3,133.8c160.1,224.1,273.6,157.3,273.6,157.3s20.6-143.1,11.1-145.9
				C393.8,509.9,259.2,338.1,207.5,383.9z"/>
			<path class="st4" d="M205.3,383.8c-115.2,102.1-76,84.2-39.4,135.5c160.9,225.2,275.9,160.4,275.9,160.4s21.5-145.6,12.3-148.4
				C392.4,512.6,257.2,337.8,205.3,383.8z"/>
			<path class="st4" d="M203.1,383.6c-115.7,102.6-80.3,85.7-43.4,137.3c161.7,226.3,278.2,163.5,278.2,163.5s22.5-148.2,13.4-150.9
				C391,515.3,255.3,337.4,203.1,383.6z"/>
			<path class="st4" d="M200.9,383.5c-116.3,103.1-84.5,87.2-47.4,139C316,750,434,689.2,434,689.2s23.4-150.7,14.6-153.4
				C389.6,518,253.4,337.1,200.9,383.5z"/>
			<path class="st4" d="M198.8,383.4c-116.9,103.6-88.7,88.7-51.5,140.8C310.6,752.7,430.1,694,430.1,694s24.4-153.2,15.7-155.9
				C388.3,520.6,251.5,336.7,198.8,383.4z"/>
			<path class="st4" d="M196.7,383.2c-117.4,104.1-92.9,90.2-55.5,142.5c164.1,229.6,285.1,172.9,285.1,172.9s25.3-155.8,16.9-158.3
				C386.9,523.3,249.6,336.3,196.7,383.2z"/>
			<path class="st4" d="M194.6,383.1c-118,104.6-97.2,91.7-59.6,144.3c164.9,230.7,287.4,176.1,287.4,176.1s26.3-158.3,18-160.8
				C385.7,526,247.8,335.9,194.6,383.1z"/>
			<path class="st4" d="M192.6,382.9C74,487.9,91.2,476.1,129,528.9c165.6,231.8,289.7,179.2,289.7,179.2s27.2-160.9,19.2-163.3
				C384.4,528.6,246,335.5,192.6,382.9z"/>
			<path class="st4" d="M190.6,382.7C71.5,488.3,85,477.4,122.9,530.5c166.4,232.9,292,182.3,292,182.3s28.2-163.4,20.4-165.8
				C383.2,531.2,244.3,335.1,190.6,382.7z"/>
			<path class="st4" d="M188.6,382.5C68.9,488.5,78.8,478.7,116.9,532c167.2,234,294.3,185.5,294.3,185.5s29.1-166,21.5-168.3
				C382,533.8,242.6,334.7,188.6,382.5z"/>
			<path class="st4" d="M186.7,382.3C66.4,488.8,72.6,479.9,110.9,533.5c168,235.1,296.6,188.6,296.6,188.6s30-168.5,22.7-170.7
				C380.8,536.4,240.9,334.2,186.7,382.3z"/>
			<path class="st4" d="M184.8,382C63.9,489.1,66.5,481.2,105,535.1c168.8,236.2,298.9,191.7,298.9,191.7s31-171.1,23.8-173.2
				C379.7,539,239.2,333.8,184.8,382z"/>
			<path class="st4" d="M182.9,381.8C61.5,489.4,60.4,482.5,99,536.6c169.6,237.3,301.2,194.9,301.2,194.9s31.9-173.6,25-175.7
				C378.6,541.6,237.6,333.3,182.9,381.8z"/>
			<path class="st4" d="M181,381.5C59.1,489.6,54.3,483.7,93.1,538.1c170.4,238.4,303.6,198,303.6,198s32.9-176.1,26.1-178.2
				C377.6,544.1,236,332.8,181,381.5z"/>
			<path class="st4" d="M179.2,381.3C56.7,489.8,48.3,484.9,87.3,539.5c171.2,239.5,305.9,201.1,305.9,201.1S427,562,420.4,560
				C376.5,546.7,234.4,332.3,179.2,381.3z"/>
			<path class="st4" d="M177.4,381C54.3,490.1,42.2,486.2,81.4,541c172,240.6,308.2,204.3,308.2,204.3S424.4,564,418,562.1
				C375.5,549.2,232.9,331.8,177.4,381z"/>
			<path class="st4" d="M175.6,380.7C52,490.3,36.2,487.4,75.6,542.5c172.7,241.8,310.5,207.4,310.5,207.4s35.7-183.8,29.6-185.6
				C374.5,551.7,231.4,331.3,175.6,380.7z"/>
			<path class="st4" d="M173.9,380.4C49.7,490.5,30.3,488.5,69.8,543.9c173.5,242.9,312.8,210.5,312.8,210.5s36.7-186.3,30.7-188.1
				C373.5,554.2,229.9,330.8,173.9,380.4z"/>
			<path class="st4" d="M172.2,380.1C47.4,490.6,24.3,489.7,64,545.3C238.4,789.3,379.1,759,379.1,759s37.6-188.9,31.9-190.6
				C372.6,556.7,228.4,330.2,172.2,380.1z"/>
			<path class="st4" d="M170.4,379.8C45.1,490.8,18.4,490.9,58.3,546.8c175.1,245.1,317.4,216.8,317.4,216.8s38.6-191.4,33-193.1
				C371.7,559.2,226.9,329.7,170.4,379.8z"/>
			<path class="st4" d="M168.7,379.4C42.8,491,12.5,492.1,52.5,548.2c175.9,246.2,319.7,219.9,319.7,219.9s39.5-193.9,34.2-195.6
				C370.8,561.7,225.5,329.1,168.7,379.4z"/>
			<path class="st4" d="M167.1,379.1C40.6,491.1,6.6,493.2,46.8,549.6c176.7,247.3,322,223,322,223s40.5-196.5,35.3-198
				C369.9,564.2,224.1,328.6,167.1,379.1z"/>
			<path class="st4" d="M165.4,378.7C38.4,491.3,0.7,494.3,41.1,551c177.5,248.4,324.3,226.2,324.3,226.2s41.4-199,36.5-200.5
				C369,566.6,222.7,328,165.4,378.7z"/>
			<path class="st4" d="M163.8,378.3C36.2,491.4-5.2,495.5,35.4,552.3C213.7,801.8,362,781.6,362,781.6s42.4-201.6,37.6-203
				C368.1,569.1,221.3,327.4,163.8,378.3z"/>
			<path class="st4" d="M162.1,378C34,491.5-11.1,496.6,29.8,553.7c179.1,250.6,328.9,232.4,328.9,232.4S402,582,397.5,580.6
				C367.3,571.5,219.9,326.8,162.1,378z"/>
			<path class="st4" d="M160.5,377.6C31.8,491.6-16.9,497.7,24.1,555.1c179.8,251.7,331.2,235.6,331.2,235.6s44.2-206.7,39.9-208
				C366.4,573.9,218.5,326.2,160.5,377.6z"/>
			<path class="st4" d="M158.9,377.2C29.6,491.7-22.7,498.8,18.4,556.4C199.1,809.2,352,795.1,352,795.1s45.2-209.2,41.1-210.5
				C365.6,576.3,217.2,325.5,158.9,377.2z"/>
			<path class="st4" d="M157.3,376.8C27.5,491.8-28.6,499.9,12.8,557.8c181.4,253.9,335.8,241.8,335.8,241.8s46.1-211.8,42.2-212.9
				C364.8,578.7,215.8,324.9,157.3,376.8z"/>
			<path class="st4" d="M155.7,376.4C25.3,491.9-34.4,501,7.2,559.1c182.2,255,338.1,245,338.1,245s47.1-214.3,43.4-215.4
				C364,581.1,214.5,324.3,155.7,376.4z"/>
			<path class="st4" d="M154.1,376C23.2,492-40.2,502.1,1.6,560.4C184.5,816.5,342,808.5,342,808.5s48-216.8,44.5-217.9
				C363.2,583.5,213.2,323.6,154.1,376z"/>
			<path class="st4" d="M152.6,375.5C21,492.1-46,503.1-4.1,561.8C179.7,819,338.7,813,338.7,813s49-219.4,45.7-220.4
				C362.4,585.9,211.9,323,152.6,375.5z"/>
			<path class="st4" d="M151,375.1C18.9,492.2-51.7,504.2-9.7,563.1c184.6,258.3,345,254.3,345,254.3s49.9-221.9,46.9-222.9
				C361.7,588.3,210.6,322.3,151,375.1z"/>
			<path class="st4" d="M149.5,374.7C16.8,492.3-57.5,505.3-15.3,564.4c185.4,259.4,347.4,257.5,347.4,257.5s50.9-224.5,48-225.4
				C360.9,590.7,209.3,321.7,149.5,374.7z"/>
			<path class="st4" d="M147.9,374.3C14.7,492.3-63.3,506.4-20.9,565.7c186.2,260.5,349.7,260.6,349.7,260.6s51.8-227,49.2-227.8
				C360.1,593.1,208,321,147.9,374.3z"/>
			<path class="st4" d="M146.4,373.8C12.6,492.4-69.1,507.4-26.4,567.1c186.9,261.6,352,263.7,352,263.7s52.8-229.6,50.3-230.3
				C359.4,595.5,206.7,320.4,146.4,373.8z"/>
			<path class="st4" d="M144.8,373.4C10.5,492.5-74.8,508.5-32,568.4c187.7,262.7,354.3,266.9,354.3,266.9s53.7-232.1,51.5-232.8
				C358.6,597.9,205.4,319.7,144.8,373.4z"/>
			<path class="st4" d="M143.3,373C8.4,492.6-80.6,509.6-37.6,569.7c188.5,263.8,356.6,270,356.6,270s54.7-234.7,52.6-235.3
				C357.9,600.3,204.1,319.1,143.3,373z"/>
			<path class="st4" d="M141.8,372.6C6.3,492.6-86.3,510.6-43.2,571C146.1,836,315.7,844.2,315.7,844.2s55.6-237.2,53.8-237.8
				C357.1,602.7,202.9,318.4,141.8,372.6z"/>
			<path class="st4" d="M140.3,372.1C4.2,492.7-92.1,511.7-48.7,572.4c190.1,266,361.2,276.3,361.2,276.3s56.6-239.7,54.9-240.2
				C356.4,605,201.6,317.8,140.3,372.1z"/>
			<path class="st4" d="M138.8,371.7C2.1,492.8-97.8,512.8-54.3,573.7c190.9,267.1,363.5,279.4,363.5,279.4s57.5-242.3,56.1-242.7
				C355.7,607.4,200.3,317.1,138.8,371.7z"/>
			<path class="st4" d="M137.2,371.3C0,492.9-103.5,513.9-59.8,575c191.7,268.2,365.8,282.5,365.8,282.5s58.4-244.8,57.2-245.2
				C354.9,609.8,199.1,316.5,137.2,371.3z"/>
			<path class="st4" d="M135.7,370.9C-2,492.9-109.3,514.9-65.4,576.3C127.1,845.7,302.7,862,302.7,862s59.4-247.4,58.4-247.7
				C354.2,612.2,197.8,315.8,135.7,370.9z"/>
			<path class="st4" d="M134.2,370.4C-4.1,493-115,516-71,577.7c193.3,270.5,370.4,288.8,370.4,288.8s60.3-249.9,59.5-250.2
				C353.5,614.6,196.6,315.2,134.2,370.4z"/>
			<path class="st4" d="M132.7,370C-6.2,493.1-120.7,517.1-76.5,579c194,271.6,372.7,291.9,372.7,291.9s61.3-252.5,60.7-252.7
				C352.8,617,195.3,314.5,132.7,370z"/>
			<path class="st4" d="M131.2,369.6C-8.2,493.2-126.5,518.2-82,580.3c194.8,272.7,375,295,375,295s62.2-255,61.8-255.1
				C352.1,619.4,194.1,313.9,131.2,369.6z"/>
			<path class="st4" d="M129.7,369.2c-140,124.1-261.9,150.1-217.3,212.5C108,855.4,289.7,879.8,289.7,879.8s63.2-257.6,63-257.6
				C351.3,621.8,192.8,313.2,129.7,369.2z"/>
			<path class="st4" d="M350.6,624.2c0,0-159-311.6-222.4-255.4C-12.4,493.3-137.9,520.3-93.1,583
				c196.4,274.9,379.6,301.3,379.6,301.3L350.6,624.2z"/>
		</g>
		<defs>
			<filter id="Adobe_OpacityMaskFilter_1_" filterUnits="userSpaceOnUse" x="-121.9" y="-138.1" width="1551.4" height="1114.3">
				<feColorMatrix  type="matrix" values="1 0 0 0 0  0 1 0 0 0  0 0 1 0 0  0 0 0 1 0"/>
			</filter>
		</defs>
		<mask maskUnits="userSpaceOnUse" x="-121.9" y="-138.1" width="1551.4" height="1114.3" id="SVGID_5_">
			<g class="st5">
				<g>
					
						<linearGradient id="SVGID_6_" gradientUnits="userSpaceOnUse" x1="714.7007" y1="1175.3092" x2="827.0483" y2="1609.725" gradientTransform="matrix(0.8772 -0.4802 -0.4802 -0.8772 704.3757 2167.3865)">
						<stop  offset="0" style="stop-color:#FFFFFF;stop-opacity:0.15"/>
						<stop  offset="0.139" style="stop-color:#FBFBFB;stop-opacity:0.2682"/>
						<stop  offset="0.2664" style="stop-color:#F0F0F0;stop-opacity:0.3764"/>
						<stop  offset="0.3892" style="stop-color:#DEDEDE;stop-opacity:0.4809"/>
						<stop  offset="0.5093" style="stop-color:#C3C3C3;stop-opacity:0.5829"/>
						<stop  offset="0.6274" style="stop-color:#A2A2A2;stop-opacity:0.6833"/>
						<stop  offset="0.744" style="stop-color:#787878;stop-opacity:0.7824"/>
						<stop  offset="0.8594" style="stop-color:#474747;stop-opacity:0.8805"/>
						<stop  offset="0.971" style="stop-color:#101010;stop-opacity:0.9754"/>
						<stop  offset="1" style="stop-color:#000000"/>
					</linearGradient>
					<polygon class="st6" points="-540.6,550.6 1453.5,-541.1 1866.3,213.1 -127.8,1304.7 					"/>
					<path d="M1453.3-540.4l412.3,753.3L-127.6,1304L-540,550.8L1453.3-540.4 M1453.7-541.7l-1995,1092.1l413.3,755L1867,213.3
						L1453.7-541.7L1453.7-541.7z"/>
				</g>
			</g>
		</mask>
		<g class="st7">
			<path class="st4" d="M72.6,975.9c0,0,171.6-373.4,222.7-357.9C636.9,721.6,664,276.5,664,276.5l-785.7,221.1L72.6,975.9z"/>
			<path class="st4" d="M665.7,276.9c0.6-0.5-781.5,219.6-781.7,219.4c-0.8-1.1,192.1,475.2,192.1,475.2S246.8,600.6,297.7,616
				C637.8,719.2,665.4,277.1,665.7,276.9z"/>
			<path class="st4" d="M667.4,277.3c1.1-1-777.3,218.1-777.6,217.6c-1.6-2.2,189.8,472,189.8,472S249.3,598.6,300,614
				C638.8,716.8,666.9,277.8,667.4,277.3z"/>
			<path class="st4" d="M669.1,277.8c1.7-1.5-773.1,216.6-773.6,215.9C-106.8,490.3,83,962.5,83,962.5S251.8,596.7,302.3,612
				C639.7,714.4,668.4,278.4,669.1,277.8z"/>
			<path class="st4" d="M670.9,278.2c2.3-2-768.8,215.1-769.5,214.1c-3.2-4.4,185.2,465.8,185.2,465.8s167.8-363.3,218.1-348
				C640.7,712,669.9,279.1,670.9,278.2z"/>
			<path class="st4" d="M672.6,278.6C675.4,276.1-92,492.2-92.9,491C-96.8,485.5,90,953.6,90,953.6s166.9-360.7,217-345.5
				C641.6,709.6,671.3,279.7,672.6,278.6z"/>
			<path class="st4" d="M674.3,279c3.4-3-760.4,212.1-761.5,210.6C-91.9,483,93.4,949.2,93.4,949.2s166-358.2,215.8-343.1
				C642.5,707.2,672.8,280.4,674.3,279z"/>
			<path class="st4" d="M676.1,279.5c4-3.5-756.2,210.6-757.4,208.9c-5.5-7.7,178.3,456.4,178.3,456.4s165-355.6,214.7-340.6
				C643.5,704.8,674.3,281,676.1,279.5z"/>
			<path class="st4" d="M677.8,279.9c4.5-4-751.9,209.1-753.4,207.1c-6.3-8.8,176,453.3,176,453.3s164.1-353.1,213.5-338.1
				C644.4,702.4,675.8,281.7,677.8,279.9z"/>
			<path class="st4" d="M679.5,280.3c5.1-4.5-747.7,207.6-749.3,205.4c-7.1-9.9,173.6,450.1,173.6,450.1S267,585.3,316.2,600.2
				C645.4,700,677.2,282.3,679.5,280.3z"/>
			<path class="st4" d="M681.3,280.7c5.6-5-743.5,206.1-745.3,203.6c-7.9-11,171.3,447,171.3,447s162.2-348,211.2-333.1
				C646.4,697.7,678.7,283,681.3,280.7z"/>
			<path class="st4" d="M683,281.2c6.2-5.5-739.3,204.6-741.2,201.9c-8.7-12.1,169,443.9,169,443.9s161.2-345.5,210-330.6
				C647.3,695.3,680.2,283.6,683,281.2z"/>
			<path class="st4" d="M684.8,281.6c6.8-6-735,203.2-737.2,200.1c-9.5-13.2,166.7,440.7,166.7,440.7s160.3-342.9,208.9-328.2
				C648.3,692.9,681.7,284.3,684.8,281.6z"/>
			<path class="st4" d="M686.5,282c7.3-6.5-730.8,201.7-733.1,198.4C-56.9,466.1,117.8,918,117.8,918s159.3-340.4,207.7-325.7
				C649.2,690.5,683.2,285,686.5,282z"/>
			<path class="st4" d="M688.3,282.5c7.9-7-726.6,200.2-729.1,196.6c-11-15.5,162.1,434.5,162.1,434.5s158.4-337.8,206.6-323.2
				C650.2,688.1,684.7,285.6,688.3,282.5z"/>
			<path class="st4" d="M690,282.9c8.5-7.5-722.4,198.7-725.1,194.9c-11.8-16.6,159.8,431.3,159.8,431.3s157.4-335.3,205.4-320.7
				C651.2,685.8,686.2,286.3,690,282.9z"/>
			<path class="st4" d="M691.8,283.3c9-8-718.1,197.2-721,193.1c-12.6-17.7,157.5,428.2,157.5,428.2s156.5-332.7,204.3-318.2
				C652.2,683.4,687.7,286.9,691.8,283.3z"/>
			<path class="st4" d="M693.5,283.8c9.6-8.5-713.9,195.7-717,191.4c-13.4-18.8,155.2,425.1,155.2,425.1S287.3,570,334.9,584.5
				C653.1,681,689.2,287.6,693.5,283.8z"/>
			<path class="st4" d="M695.3,284.2c10.2-9-709.7,194.2-712.9,189.6C-31.8,454,135.3,895.8,135.3,895.8s154.6-327.6,202-313.3
				C654.1,678.6,690.7,288.3,695.3,284.2z"/>
			<path class="st4" d="M697.1,284.6c10.7-9.5-705.5,192.7-708.9,187.9c-15-21,150.6,418.8,150.6,418.8s153.6-325.1,200.8-310.8
				C655.1,676.2,692.2,288.9,697.1,284.6z"/>
			<path class="st4" d="M698.8,285.1C710.1,275.1-2.4,476.2-6,471.2c-15.8-22.1,148.3,415.7,148.3,415.7S295,564.3,342,578.6
				C656.1,673.9,693.7,289.6,698.8,285.1z"/>
			<path class="st4" d="M700.6,285.5C712.5,275,3.6,475.2-0.2,469.9c-16.6-23.2,146,412.6,146,412.6s151.7-320,198.5-305.8
				C657.1,671.5,695.3,290.2,700.6,285.5z"/>
			<path class="st4" d="M702.4,285.9c12.4-11-692.8,188.2-696.7,182.6C-11.7,444.3,149.3,878,149.3,878s150.8-317.5,197.4-303.3
				C658,669.1,696.8,290.9,702.4,285.9z"/>
			<path class="st4" d="M704.2,286.4c13-11.5-688.6,186.7-692.7,180.9c-18.1-25.4,141.4,406.3,141.4,406.3s149.9-314.9,196.2-300.9
				C659,666.7,698.3,291.6,704.2,286.4z"/>
			<path class="st4" d="M705.9,286.8C719.5,274.8,21.6,472,17.3,466c-18.9-26.5,139.1,403.2,139.1,403.2s148.9-312.4,195.1-298.4
				C660,664.4,699.8,292.2,705.9,286.8z"/>
			<path class="st4" d="M707.7,287.3C721.8,274.8,27.6,471,23.1,464.7c-19.7-27.6,136.8,400,136.8,400s148-309.8,193.9-295.9
				C661,662,701.4,292.9,707.7,287.3z"/>
			<path class="st4" d="M709.5,287.7c14.7-13-675.9,182.2-680.6,175.7C8.4,434.7,163.4,860.3,163.4,860.3s147-307.3,192.8-293.4
				C662,659.6,702.9,293.6,709.5,287.7z"/>
			<path class="st4" d="M711.3,288.2c15.2-13.5-671.7,180.7-676.5,173.9c-21.3-29.8,132.2,393.8,132.2,393.8S313,551.1,358.5,564.9
				C663,657.3,704.4,294.2,711.3,288.2z"/>
			<path class="st4" d="M713.1,288.6c15.8-14-667.4,179.2-672.5,172.2c-22.1-30.9,129.8,390.6,129.8,390.6S315.6,549.2,360.9,563
				C664,654.9,706,294.9,713.1,288.6z"/>
			<path class="st4" d="M714.9,289.1c16.4-14.5-663.2,177.7-668.4,170.4C23.6,427.5,174,847,174,847s144.2-299.7,189.3-286
				C665.1,652.5,707.5,295.6,714.9,289.1z"/>
			<path class="st4" d="M716.7,289.5c16.9-15-659,176.2-664.4,168.7C28.6,425,177.5,842.5,177.5,842.5s143.2-297.1,188.2-283.5
				C666.1,650.2,709.1,296.3,716.7,289.5z"/>
			<path class="st4" d="M718.5,290C736,274.4,63.7,464.7,58.1,456.9c-24.5-34.2,122.9,381.2,122.9,381.2s142.3-294.6,187-281
				C667.1,647.8,710.6,296.9,718.5,290z"/>
			<path class="st4" d="M720.3,290.4c18.1-16-650.5,173.2-656.3,165.2c-25.2-35.3,120.6,378.1,120.6,378.1s141.3-292,185.9-278.5
				C668.1,645.4,712.2,297.6,720.3,290.4z"/>
			<path class="st4" d="M722.1,290.9c18.6-16.5-646.3,171.7-652.3,163.4c-26-36.4,118.3,375,118.3,375s140.4-289.5,184.7-276
				C669.1,643.1,713.7,298.3,722.1,290.9z"/>
			<path class="st4" d="M723.9,291.3c19.2-17-642.1,170.2-648.2,161.7c-26.8-37.5,116,371.9,116,371.9s139.4-286.9,183.6-273.6
				C670.2,640.7,715.3,299,723.9,291.3z"/>
			<path class="st4" d="M725.7,291.8c19.8-17.5-637.9,168.7-644.2,159.9C54,413,195.3,820.4,195.3,820.4S333.8,536,377.7,549.3
				C671.2,638.4,716.8,299.7,725.7,291.8z"/>
			<path class="st4" d="M727.6,292.2c20.3-18-633.7,167.2-640.1,158.2C59,410.6,198.8,816,198.8,816s137.5-281.8,181.2-268.6
				C672.2,636,718.4,300.3,727.6,292.2z"/>
			<path class="st4" d="M729.4,292.7C750.3,274.2,100,458.4,93.3,449.1c-29.2-40.8,109.1,362.5,109.1,362.5S339,532.3,382.5,545.4
				C673.3,633.6,720,301,729.4,292.7z"/>
			<path class="st4" d="M731.2,293.1c21.5-19-625.2,164.2-632,154.7C69.2,405.9,206,807.1,206,807.1s135.7-276.8,178.9-263.6
				C674.3,631.3,721.5,301.7,731.2,293.1z"/>
			<path class="st4" d="M733,293.6c22-19.5-621,162.7-628,152.9c-30.8-43.1,104.5,356.2,104.5,356.2s134.7-274.2,177.8-261.1
				C675.4,628.9,723.1,302.4,733,293.6z"/>
			<path class="st4" d="M734.9,294c22.6-20-616.8,161.2-623.9,151.2c-31.6-44.2,102.2,353.1,102.2,353.1s133.8-271.7,176.6-258.7
				C676.4,626.6,724.7,303.1,734.9,294z"/>
			<path class="st4" d="M736.7,294.5c23.1-20.5-612.5,159.7-619.9,149.4c-32.3-45.3,99.9,349.9,99.9,349.9s132.8-269.1,175.5-256.2
				C677.5,624.2,726.3,303.8,736.7,294.5z"/>
			<path class="st4" d="M738.6,295c23.7-21-608.3,158.3-615.9,147.7c-33.1-46.4,97.6,346.8,97.6,346.8s131.9-266.6,174.3-253.7
				C678.5,621.9,727.9,304.4,738.6,295z"/>
			<path class="st4" d="M740.4,295.4c24.3-21.5-604.1,156.8-611.8,145.9C94.7,393.9,223.9,785,223.9,785s130.9-264,173.2-251.2
				C679.6,619.5,729.5,305.1,740.4,295.4z"/>
			<path class="st4" d="M742.3,295.9c24.8-22-599.9,155.3-607.8,144.2c-34.7-48.6,93,340.5,93,340.5s130-261.5,172-248.7
				C680.7,617.2,731.1,305.8,742.3,295.9z"/>
			<path class="st4" d="M744.1,296.4c25.4-22.5-595.6,153.8-603.7,142.4c-35.5-49.7,90.7,337.4,90.7,337.4S360.1,517.3,402,530
				C681.8,614.8,732.7,306.5,744.1,296.4z"/>
			<path class="st4" d="M746,296.8c26-23-591.4,152.3-599.7,140.7c-36.3-50.8,88.4,334.3,88.4,334.3S362.8,515.4,404.4,528
				C682.8,612.5,734.3,307.2,746,296.8z"/>
			<path class="st4" d="M747.9,297.3c26.5-23.5-587.2,150.8-595.6,138.9c-37.1-51.9,86,331.1,86,331.1s127.1-253.9,168.6-241.3
				C683.9,610.1,735.9,307.9,747.9,297.3z"/>
			<path class="st4" d="M749.7,297.8c27.1-24-583,149.3-591.6,137.2c-37.9-53,83.7,328,83.7,328s126.2-251.3,167.4-238.8
				C685,607.8,737.5,308.6,749.7,297.8z"/>
			<path class="st4" d="M751.6,298.2c27.7-24.5-578.7,147.8-587.5,135.4c-38.7-54.1,81.4,324.9,81.4,324.9s125.2-248.8,166.3-236.3
				C686.1,605.5,739.1,309.3,751.6,298.2z"/>
			<path class="st4" d="M753.5,298.7C781.7,273.7,179,445,170,432.4c-39.4-55.2,79.1,321.8,79.1,321.8S373.4,508,414.3,520.3
				C687.2,603.1,740.8,310,753.5,298.7z"/>
			<path class="st4" d="M755.4,299.2c28.8-25.5-570.3,144.8-579.5,131.9c-40.2-56.3,76.8,318.6,76.8,318.6s123.3-243.7,164-231.4
				C688.3,600.8,742.4,310.7,755.4,299.2z"/>
			<path class="st4" d="M757.3,299.7c29.4-26-566.1,143.3-575.4,130.2c-41-57.4,74.5,315.5,74.5,315.5s122.4-241.1,162.8-228.9
				C689.4,598.4,744.1,311.4,757.3,299.7z"/>
			<path class="st4" d="M759.2,300.1c29.9-26.5-561.8,141.8-571.4,128.5C146,370.1,260,741,260,741s121.4-238.6,161.7-226.4
				C690.5,596.1,745.7,312.1,759.2,300.1z"/>
			<path class="st4" d="M761.1,300.6c30.5-27-557.6,140.3-567.3,126.7c-42.6-59.6,69.9,309.2,69.9,309.2s120.5-236,160.5-223.9
				C691.6,593.8,747.3,312.8,761.1,300.6z"/>
			<path class="st4" d="M763,301.1c31.1-27.5-553.4,138.8-563.3,125c-43.4-60.7,67.6,306.1,67.6,306.1s119.6-233.5,159.4-221.4
				C692.8,591.4,749,313.5,763,301.1z"/>
			<path class="st4" d="M764.9,301.6c31.6-28-549.2,137.3-559.2,123.2c-44.2-61.8,65.3,303,65.3,303s118.6-231,158.2-218.9
				C693.9,589.1,750.7,314.2,764.9,301.6z"/>
			<path class="st4" d="M766.8,302.1c32.2-28.5-544.9,135.8-555.2,121.5c-45-62.9,63,299.8,63,299.8S392.3,495,431.7,506.9
				C695,586.8,752.3,314.9,766.8,302.1z"/>
			<path class="st4" d="M768.8,302.6c32.7-29-540.7,134.3-551.1,119.7c-45.7-64,60.7,296.7,60.7,296.7S395,493.1,434.2,505
				C696.2,584.5,754,315.6,768.8,302.6z"/>
			<path class="st4" d="M770.7,303c33.3-29.5-536.5,132.8-547.1,118C177.1,355.9,282,714.6,282,714.6s115.8-223.3,154.8-211.5
				C697.3,582.1,755.7,316.3,770.7,303z"/>
			<path class="st4" d="M772.6,303.5c33.9-30-532.3,131.3-543.1,116.2c-47.3-66.2,56.1,290.4,56.1,290.4s114.8-220.8,153.6-209
				C698.5,579.8,757.4,317.1,772.6,303.5z"/>
			<path class="st4" d="M774.6,304c34.4-30.5-528,129.8-539,114.5c-48.1-67.3,53.8,287.3,53.8,287.3s113.9-218.2,152.4-206.5
				C699.6,577.5,759.1,317.8,774.6,304z"/>
			<path class="st4" d="M776.5,304.5c35-31-523.8,128.3-535,112.7C192.7,348.8,293,701.4,293,701.4S406,485.7,444.3,497.4
				C700.8,575.2,760.8,318.5,776.5,304.5z"/>
			<path class="st4" d="M778.5,305c35.6-31.5-519.6,126.8-530.9,111C197.9,346.4,296.7,697,296.7,697s112-213.1,150.1-201.6
				C702,572.8,762.5,319.2,778.5,305z"/>
			<path class="st4" d="M780.5,305.5c36.1-32-515.4,125.3-526.9,109.2c-50.5-70.6,46.9,277.9,46.9,277.9s111-210.6,149-199.1
				C703.2,570.5,764.2,319.9,780.5,305.5z"/>
			<path class="st4" d="M782.4,306c36.7-32.5-511.1,123.8-522.8,107.5c-51.3-71.8,44.6,274.8,44.6,274.8S414.2,480.2,452,491.7
				C704.4,568.2,765.9,320.7,782.4,306z"/>
			<path class="st4" d="M784.4,306.5c37.3-33-506.9,122.3-518.8,105.7c-52.1-72.9,42.2,271.7,42.2,271.7S417,478.4,454.6,489.8
				C705.6,565.9,767.6,321.4,784.4,306.5z"/>
			<path class="st4" d="M786.4,307c37.8-33.5-502.7,120.8-514.7,104c-52.8-74,39.9,268.5,39.9,268.5s108.2-203,145.5-191.6
				C706.8,563.6,769.3,322.1,786.4,307z"/>
			<path class="st4" d="M788.4,307.5c38.4-34-498.5,119.3-510.7,102.2c-53.6-75.1,37.6,265.4,37.6,265.4S422.6,474.7,459.7,486
				C708,561.3,771.1,322.8,788.4,307.5z"/>
			<path class="st4" d="M790.4,308c39-34.5-494.2,117.8-506.7,100.5c-54.4-76.2,35.3,262.3,35.3,262.3s106.3-197.9,143.2-186.7
				C709.2,558.9,772.8,323.6,790.4,308z"/>
			<path class="st4" d="M792.4,308.5c39.5-35-490,116.3-502.6,98.7c-55.2-77.3,33,259.1,33,259.1S428.2,471,464.9,482.2
				C710.4,556.6,774.6,324.3,792.4,308.5z"/>
			<path class="st4" d="M794.4,309c40.1-35.5-485.8,114.8-498.6,97c-56-78.4,30.7,256,30.7,256S431,469.2,467.5,480.3
				C711.6,554.3,776.3,325,794.4,309z"/>
			<path class="st4" d="M796.4,309.5c40.7-36-481.6,113.4-494.5,95.2c-56.8-79.5,28.4,252.9,28.4,252.9s103.5-190.2,139.8-179.2
				C712.9,552,778.1,325.7,796.4,309.5z"/>
			<path class="st4" d="M798.5,310c41.2-36.5-477.4,111.9-490.5,93.5c-57.6-80.6,26.1,249.7,26.1,249.7s102.5-187.7,138.6-176.7
				C714.1,549.7,779.9,326.5,798.5,310z"/>
			<path class="st4" d="M800.5,310.5c41.8-37-473.1,110.4-486.4,91.7c-58.4-81.7,23.8,246.6,23.8,246.6s101.6-185.2,137.5-174.3
				C715.4,547.4,781.7,327.2,800.5,310.5z"/>
			<path class="st4" d="M802.6,311c42.3-37.5-468.9,108.9-482.4,90c-59.2-82.8,21.5,243.5,21.5,243.5S442.3,461.9,478,472.7
				C716.6,545.1,783.5,328,802.6,311z"/>
			<path class="st4" d="M804.6,311.6c42.9-38-464.7,107.4-478.3,88.2c-59.9-83.9,19.2,240.3,19.2,240.3s99.7-180.1,135.2-169.3
				C717.9,542.8,785.3,328.7,804.6,311.6z"/>
			<path class="st4" d="M806.7,312.1c43.5-38.5-460.5,105.9-474.3,86.5c-60.7-85,16.9,237.2,16.9,237.2S448,458.3,483.3,469
				C719.2,540.5,787.1,329.4,806.7,312.1z"/>
			<path class="st4" d="M808.8,312.6c44-39-456.2,104.4-470.3,84.7c-61.5-86.1,14.6,234.1,14.6,234.1s97.8-175,132.9-164.3
				C720.5,538.2,788.9,330.2,808.8,312.6z"/>
			<path class="st4" d="M810.8,313.1c44.6-39.5-452,102.9-466.2,83c-62.3-87.2,12.3,231,12.3,231s96.8-172.4,131.7-161.9
				C721.8,535.9,790.7,330.9,810.8,313.1z"/>
			<path class="st4" d="M812.9,313.6c45.2-40-447.8,101.4-462.2,81.2c-63.1-88.3,10,227.8,10,227.8s95.9-169.9,130.6-159.4
				C723.1,533.6,792.6,331.7,812.9,313.6z"/>
			<path class="st4" d="M815,314.2c45.7-40.5-443.6,99.9-458.1,79.5c-63.9-89.4,7.7,224.7,7.7,224.7S459.5,451,494,461.5
				C724.4,531.4,794.4,332.4,815,314.2z"/>
			<path class="st4" d="M817.2,314.7c46.3-41-439.3,98.4-454.1,77.8c-64.7-90.5,5.4,221.6,5.4,221.6s94-164.8,128.3-154.4
				C725.8,529.1,796.3,333.2,817.2,314.7z"/>
			<path class="st4" d="M819.3,315.2c46.9-41.5-435.1,96.9-450,76c-65.5-91.6,3.1,218.4,3.1,218.4s93-162.3,127.1-151.9
				C727.1,526.8,798.2,333.9,819.3,315.2z"/>
			<path class="st4" d="M821.4,315.8c47.4-42-430.9,95.4-446,74.3c-66.3-92.7,0.7,215.3,0.7,215.3s92.1-159.7,126-149.4
				C728.4,524.5,800,334.7,821.4,315.8z"/>
			<path class="st4" d="M823.6,316.3c48-42.5-426.7,93.9-441.9,72.5c-67-93.8-1.6,212.2-1.6,212.2s91.2-157.2,124.8-147
				C729.8,522.2,801.9,335.5,823.6,316.3z"/>
			<path class="st4" d="M825.7,316.8c48.6-43-422.4,92.4-437.9,70.8c-67.8-94.9-3.9,209-3.9,209S474.2,442,507.6,452.1
				C731.2,519.9,803.8,336.2,825.7,316.8z"/>
			<path class="st4" d="M827.9,317.4c49.1-43.5-418.2,90.9-433.9,69c-68.6-96-6.2,205.9-6.2,205.9s89.3-152.1,122.5-142
				C732.6,517.7,805.7,337,827.9,317.4z"/>
			<path class="st4" d="M830.1,317.9c49.7-44-414,89.4-429.8,67.3c-69.4-97.1-8.5,202.8-8.5,202.8s88.3-149.5,121.3-139.5
				C734,515.4,807.7,337.7,830.1,317.9z"/>
			<path class="st4" d="M832.3,318.4c50.3-44.5-409.8,87.9-425.8,65.5c-70.2-98.2-10.8,199.6-10.8,199.6s87.4-147,120.2-137
				C735.4,513.1,809.6,338.5,832.3,318.4z"/>
			<path class="st4" d="M834.5,319c50.8-45-405.5,86.4-421.7,63.8c-71-99.4-13.1,196.5-13.1,196.5s86.4-144.4,119-134.6
				C736.8,510.9,811.6,339.3,834.5,319z"/>
			<path class="st4" d="M836.7,319.5c51.4-45.5-401.3,84.9-417.7,62c-71.8-100.5-15.4,193.4-15.4,193.4S489.1,433,521.5,442.9
				C738.2,508.6,813.5,340,836.7,319.5z"/>
			<path class="st4" d="M838.9,320.1c51.9-46-397.1,83.4-413.6,60.3c-72.6-101.6-17.7,190.3-17.7,190.3S492.1,431.2,524.3,441
				C739.7,506.3,815.5,340.8,838.9,320.1z"/>
			<path class="st4" d="M841.1,320.6c52.5-46.5-392.9,81.9-409.6,58.5c-73.4-102.7-20,187.1-20,187.1s83.6-136.8,115.6-127.1
				C741.1,504.1,817.5,341.6,841.1,320.6z"/>
			<path class="st4" d="M843.4,321.2c53.1-47-388.6,80.4-405.5,56.8c-74.1-103.8-22.3,184-22.3,184S498.2,427.7,530,437.3
				C742.6,501.8,819.5,342.4,843.4,321.2z"/>
			<path class="st4" d="M845.7,321.7c53.6-47.5-384.4,78.9-401.5,55c-74.9-104.9-24.6,180.9-24.6,180.9s81.7-131.7,113.3-122.1
				C744.1,499.5,821.5,343.2,845.7,321.7z"/>
			<path class="st4" d="M847.9,322.3c54.2-48-380.2,77.4-397.5,53.3c-75.7-106-26.9,177.7-26.9,177.7s80.7-129.2,112.1-119.7
				C745.6,497.3,823.5,343.9,847.9,322.3z"/>
			<path class="st4" d="M850.2,322.9c54.8-48.5-376,75.9-393.4,51.5C380.3,267.3,427.6,549,427.6,549s79.8-126.6,111-117.2
				C747.1,495,825.5,344.7,850.2,322.9z"/>
			<path class="st4" d="M852.5,323.4c55.3-49-371.7,74.4-389.4,49.8c-77.3-108.2-31.5,171.5-31.5,171.5S510.5,420.6,541.5,430
				C748.6,492.8,827.6,345.5,852.5,323.4z"/>
			<path class="st4" d="M854.9,324c55.9-49.5-367.5,72.9-385.3,48c-78.1-109.3-33.8,168.3-33.8,168.3s77.9-121.5,108.7-112.2
				C750.1,490.5,829.7,346.3,854.9,324z"/>
			<path class="st4" d="M857.2,324.5c56.5-50-363.3,71.4-381.3,46.3C397,260.4,439.8,536,439.8,536s76.9-119,107.5-109.7
				C751.7,488.3,831.7,347.1,857.2,324.5z"/>
			<path class="st4" d="M859.5,325.1c57-50.5-359.1,70-377.2,44.5c-79.7-111.5-38.4,162.1-38.4,162.1s76-116.5,106.4-107.3
				C753.2,486,833.8,347.9,859.5,325.1z"/>
			<path class="st4" d="M861.9,325.7c57.6-51-354.8,68.5-373.2,42.8C408.3,255.9,448,527.4,448,527.4S523,413.5,553.2,422.7
				C754.8,483.8,836,348.7,861.9,325.7z"/>
			<path class="st4" d="M864.3,326.3c58.2-51.5-350.6,67-369.1,41c-81.2-113.7-43.1,155.8-43.1,155.8s74.1-111.4,104.1-102.3
				C756.4,481.6,838.1,349.5,864.3,326.3z"/>
			<path class="st4" d="M866.7,326.8c58.7-52-346.4,65.5-365.1,39.3c-82-114.8-45.4,152.7-45.4,152.7S529.4,410,559.2,419
				C758,479.3,840.2,350.3,866.7,326.8z"/>
			<path class="st4" d="M869.1,327.4c59.3-52.5-342.2,64-361.1,37.5c-82.8-115.9-47.7,149.6-47.7,149.6s72.2-106.3,101.8-97.3
				C759.7,477.1,842.4,351.1,869.1,327.4z"/>
			<path class="st4" d="M871.5,328c59.8-53-337.9,62.5-357,35.8c-83.6-117-50,146.4-50,146.4s71.3-103.7,100.6-94.8
				C761.3,474.9,844.6,351.9,871.5,328z"/>
			<path class="st4" d="M874,328.6c60.4-53.5-333.7,61-353,34c-84.4-118.1-52.3,143.3-52.3,143.3s70.3-101.2,99.5-92.4
				C763,472.6,846.8,352.7,874,328.6z"/>
			<path class="st4" d="M876.5,329.2c61-54-329.5,59.5-348.9,32.3C442.3,242.3,473,501.6,473,501.6s69.4-98.7,98.3-89.9
				C764.7,470.4,849,353.5,876.5,329.2z"/>
			<path class="st4" d="M878.9,329.8c61.5-54.5-325.3,58-344.9,30.5c-86-120.3-56.9,137-56.9,137s68.4-96.1,97.2-87.4
				C766.4,468.2,851.2,354.4,878.9,329.8z"/>
			<path class="st4" d="M881.4,330.4c62.1-55-321.1,56.5-340.8,28.8c-86.8-121.4-59.2,133.9-59.2,133.9s67.5-93.6,96-84.9
				C768.1,466,853.4,355.2,881.4,330.4z"/>
			<path class="st4" d="M884,331c62.7-55.5-316.8,55-336.8,27.1c-87.6-122.5-61.5,130.8-61.5,130.8s66.5-91,94.8-82.4
				C769.8,463.8,855.7,356,884,331z"/>
			<path class="st4" d="M886.5,331.6c63.2-56-312.6,53.5-332.7,25.3c-88.3-123.6-63.8,127.6-63.8,127.6s65.6-88.5,93.7-79.9
				C771.5,461.6,858,356.8,886.5,331.6z"/>
			<path class="st4" d="M889,332.2c63.8-56.5-308.4,52-328.7,23.6c-89.1-124.7-66.1,124.5-66.1,124.5s64.6-85.9,92.5-77.5
				C773.3,459.4,860.3,357.7,889,332.2z"/>
			<path class="st4" d="M891.6,332.8c64.4-57-304.2,50.5-324.7,21.8C477,228.8,498.5,476,498.5,476s63.7-83.4,91.4-75
				C775.1,457.1,862.6,358.5,891.6,332.8z"/>
			<path class="st4" d="M894.2,333.4c64.9-57.5-299.9,49-320.6,20.1c-90.7-126.9-70.7,118.2-70.7,118.2s62.7-80.8,90.2-72.5
				C776.9,454.9,864.9,359.3,894.2,333.4z"/>
			<path class="st4" d="M896.8,334.6c65.5-58-295.7,47.5-316.6,18.3c-91.5-128.1-73,115.1-73,115.1s61.8-78.3,89.1-70
				C778.7,453.4,867.3,360.8,896.8,334.6z"/>
			<path class="st4" d="M899.4,336.3c66.1-58.5-291.5,46-312.5,16.6c-92.3-129.2-75.3,112-75.3,112s60.9-75.8,87.9-67.5
				C780.5,452.2,869.6,362.7,899.4,336.3z"/>
			<path class="st4" d="M902,338c66.6-59-287.3,44.5-308.5,14.8c-93.1-130.3-77.6,108.8-77.6,108.8s59.9-73.2,86.8-65.1
				C782.4,451.1,872,364.6,902,338z"/>
			<path class="st4" d="M904.7,339.7c67.2-59.5-283,43-304.4,13.1c-93.9-131.4-79.9,105.7-79.9,105.7s59-70.7,85.6-62.6
				C784.3,450,874.4,366.5,904.7,339.7z"/>
			<path class="st4" d="M907.4,341.4c67.8-60-278.8,41.5-300.4,11.3c-94.7-132.5-82.2,102.6-82.2,102.6s58-68.1,84.5-60.1
				C786.2,448.9,876.8,368.5,907.4,341.4z"/>
			<path class="st4" d="M910,343.1c68.3-60.5-274.6,40-296.3,9.6c-95.4-133.6-84.5,99.5-84.5,99.5s57.1-65.6,83.3-57.6
				C788,447.8,879.3,370.4,910,343.1z"/>
			<path class="st4" d="M912.7,344.8c68.9-61-270.4,38.5-292.3,7.8C524.2,218,533.6,449,533.6,449s56.1-63,82.2-55.1
				C790,446.7,881.7,372.4,912.7,344.8z"/>
			<path class="st4" d="M915.5,346.6c69.4-61.5-266.1,37-288.3,6.1c-97-135.8-89.2,93.2-89.2,93.2s55.2-60.5,81-52.6
				C791.9,445.6,884.1,374.3,915.5,346.6z"/>
			<path class="st4" d="M918.2,348.3c70-62-261.9,35.5-284.2,4.3c-97.8-136.9-91.5,90.1-91.5,90.1s54.2-57.9,79.9-50.2
				C793.8,444.5,886.6,376.3,918.2,348.3z"/>
			<path class="st4" d="M920.9,350c70.6-62.5-257.7,34-280.2,2.6c-98.6-138-93.8,86.9-93.8,86.9s53.3-55.4,78.7-47.7
				C795.8,443.4,889.1,378.2,920.9,350z"/>
			<path class="st4" d="M923.6,351.8c71.1-63-253.5,32.5-276.1,0.8c-99.4-139.1-96.1,83.8-96.1,83.8s52.3-52.9,77.6-45.2
				C797.7,442.4,891.6,380.2,923.6,351.8z"/>
			<path class="st4" d="M926.4,353.5c71.7-63.5-249.2,31-272.1-0.9c-100.2-140.2-98.4,80.7-98.4,80.7s51.4-50.3,76.4-42.7
				C799.7,441.3,894.1,382.2,926.4,353.5z"/>
			<path class="st4" d="M929.1,355.3c72.3-64-245,29.5-268-2.7c-101-141.3-100.7,77.5-100.7,77.5s50.4-47.8,75.3-40.2
				C801.6,440.2,896.5,384.1,929.1,355.3z"/>
			<path class="st4" d="M931.9,357c72.8-64.5-240.8,28-264-4.4c-101.8-142.4-103,74.4-103,74.4s49.5-45.2,74.1-37.8
				C803.6,439.2,899,386.1,931.9,357z"/>
			<path class="st4" d="M934.6,358.8c73.4-65-236.6,26.5-259.9-6.2c-102.5-143.5-105.3,71.3-105.3,71.3s48.5-42.7,73-35.3
				C805.5,438.2,901.5,388.1,934.6,358.8z"/>
			<path class="st4" d="M937.3,360.6c74-65.5-232.3,25.1-255.9-7.9c-103.3-144.6-107.6,68.1-107.6,68.1s47.6-40.1,71.8-32.8
				C807.5,437.1,904,390.1,937.3,360.6z"/>
			<path class="st4" d="M940.1,362.4c74.5-66-228.1,23.6-251.9-9.7c-104.1-145.7-109.9,65-109.9,65s46.6-37.6,70.7-30.3
				C809.4,436.1,906.5,392.1,940.1,362.4z"/>
			<path class="st4" d="M942.8,364.2c75.1-66.5-223.9,22.1-247.8-11.4c-104.9-146.8-112.2,61.9-112.2,61.9s45.7-35,69.5-27.8
				C811.4,435.1,908.9,394.1,942.8,364.2z"/>
			<path class="st4" d="M945.5,365.9c75.7-67-219.7,20.6-243.8-13.2c-105.7-147.9-114.5,58.8-114.5,58.8s44.8-32.5,68.4-25.3
				C813.3,434,911.4,396.2,945.5,365.9z"/>
			<path class="st4" d="M948.2,367.5c76.2-67.5-215.4,19.1-239.7-14.9c-106.5-149-116.8,55.6-116.8,55.6s43.8-30,67.2-22.9
				C815.3,432.8,913.9,398,948.2,367.5z"/>
			<path class="st4" d="M951,367.8c76.8-68-211.2,17.6-235.7-16.7C608,201,596.1,403.7,596.1,403.7s42.9-27.4,66-20.4
				C817.2,430.3,916.3,398.5,951,367.8z"/>
			<path class="st4" d="M953.7,368.1c77.4-68.5-207,16.1-231.6-18.4C614,198.4,600.6,399,600.6,399s41.9-24.9,64.9-17.9
				C819.1,427.7,918.8,399,953.7,368.1z"/>
			<path class="st4" d="M956.4,368.3c77.9-69-202.8,14.6-227.6-20.2c-108.9-152.3-123.7,46.2-123.7,46.2s41-22.3,63.7-15.4
				C821,425.2,921.3,399.4,956.4,368.3z"/>
			<path class="st4" d="M959.1,368.6c78.5-69.5-198.5,13.1-223.5-21.9c-109.6-153.4-126,43.1-126,43.1s40-19.8,62.6-12.9
				C823,422.6,923.7,399.9,959.1,368.6z"/>
			<path class="st4" d="M961.8,368.8c79-70-194.3,11.6-219.5-23.6c-110.4-154.5-128.3,40-128.3,40s39.1-17.2,61.4-10.4
				C824.9,420,926.2,400.3,961.8,368.8z"/>
			<path class="st4" d="M964.5,368.9c79.6-70.5-190.1,10.1-215.5-25.4c-111.2-155.6-130.7,36.8-130.7,36.8s38.1-14.7,60.3-8
				C826.8,417.3,928.6,400.7,964.5,368.9z"/>
			<path class="st4" d="M967.2,369.1c80.2-71-185.9,8.6-211.4-27.1c-112-156.8-133,33.7-133,33.7s37.2-12.1,59.1-5.5
				C828.7,414.7,931,401.1,967.2,369.1z"/>
			<path class="st4" d="M969.9,369.2c80.7-71.5-181.6,7.1-207.4-28.9c-112.8-157.9-135.3,30.6-135.3,30.6s36.2-9.6,58-3
				C830.6,412,933.5,401.5,969.9,369.2z"/>
			<path class="st4" d="M972.5,369.3c81.3-72-177.4,5.6-203.3-30.6c-113.6-159-137.6,27.4-137.6,27.4s35.3-7.1,56.8-0.5
				C832.5,409.3,935.9,401.8,972.5,369.3z"/>
			<path class="st4" d="M975.2,369.4c81.9-72.5-173.2,4.1-199.3-32.4C661.6,177,636.1,361.3,636.1,361.3s34.3-4.5,55.7,2
				C834.4,406.6,938.3,402.1,975.2,369.4z"/>
			<path class="st4" d="M977.9,369.5c82.4-73-169,2.6-195.2-34.1c-115.2-161.2-142.2,21.2-142.2,21.2s33.4-2,54.5,4.4
				C836.3,403.8,940.7,402.4,977.9,369.5z"/>
			<path class="st4" d="M980.6,369.5c83-73.5-164.8,1.1-191.2-35.9c-116-162.3-144.5,18-144.5,18s32.4,0.6,53.4,6.9
				C838.2,401,943.2,402.6,980.6,369.5z"/>
			<path class="st4" d="M983.2,369.5c83.6-74-160.5-0.4-187.1-37.6c-116.7-163.4-146.8,14.9-146.8,14.9s31.5,3.1,52.2,9.4
				C840.1,398.2,945.6,402.9,983.2,369.5z"/>
			<path class="st4" d="M985.9,369.5c84.1-74.5-156.3-1.9-183.1-39.4c-117.5-164.5-149.1,11.8-149.1,11.8s30.6,5.7,51.1,11.9
				C841.9,395.4,948,403.1,985.9,369.5z"/>
			<path class="st4" d="M988.6,369.4c84.7-75-152.1-3.4-179-41.1c-118.3-165.6-151.4,8.7-151.4,8.7s29.6,8.2,49.9,14.4
				C843.8,392.5,950.4,403.2,988.6,369.4z"/>
			<path class="st4" d="M991.2,369.3c85.3-75.5-147.9-4.9-175-42.9C697.1,159.7,662.5,332,662.5,332s28.7,10.8,48.8,16.9
				C845.7,389.6,952.8,403.4,991.2,369.3z"/>
			<path class="st4" d="M993.8,369.2c85.8-76-143.6-6.4-171-44.6c-119.9-167.8-156,2.4-156,2.4s27.7,13.3,47.6,19.3
				C847.5,386.7,955.2,403.5,993.8,369.2z"/>
			<path class="st4" d="M996.5,369.1c86.4-76.5-139.4-7.9-166.9-46.4C708.9,153.8,671.2,322,671.2,322s26.8,15.8,46.5,21.8
				C849.4,383.7,957.5,403.6,996.5,369.1z"/>
			<path class="st4" d="M999.1,368.9c87-77-135.2-9.4-162.9-48.1c-121.5-170-160.6-3.9-160.6-3.9s25.8,18.4,45.3,24.3
				C851.2,380.7,959.9,403.6,999.1,368.9z"/>
			<path class="st4" d="M1001.7,368.7c87.5-77.5-131-10.9-158.8-49.9c-122.3-171.1-162.9-7-162.9-7s24.9,20.9,44.2,26.8
				C853.1,377.8,962.3,403.7,1001.7,368.7z"/>
			<path class="st4" d="M1004.4,368.6c88.1-78-126.7-12.4-154.8-51.6c-123-172.2-165.2-10.1-165.2-10.1s23.9,23.5,43,29.3
				C854.9,374.8,964.7,403.7,1004.4,368.6z"/>
			<path class="st4" d="M1007,368.4c88.6-78.5-122.5-13.9-150.7-53.4c-123.8-173.3-167.5-13.3-167.5-13.3s23,26,41.9,31.7
				C856.7,371.8,967,403.8,1007,368.4z"/>
			<path class="st4" d="M1009.6,368.2c89.2-79-118.3-15.4-146.7-55.1C738.3,138.6,693,296.7,693,296.7s22,28.6,40.7,34.2
				C858.6,368.7,969.4,403.8,1009.6,368.2z"/>
			<path class="st4" d="M1012.2,367.9c89.8-79.5-114.1-16.9-142.6-56.9c-125.4-175.5-172.2-19.5-172.2-19.5s21.1,31.1,39.6,36.7
				C860.4,365.7,971.7,403.8,1012.2,367.9z"/>
			<path class="st4" d="M1014.8,367.7c90.3-80-109.8-18.4-138.6-58.6C750,132.5,701.7,286.5,701.7,286.5s20.1,33.7,38.4,39.2
				C862.2,362.7,974,403.8,1014.8,367.7z"/>
			<path class="st4" d="M1017.3,367.5c90.9-80.5-105.6-19.8-134.6-60.4C755.8,129.4,706,281.4,706,281.4s19.2,36.2,37.2,41.7
				C864,359.6,976.4,403.8,1017.3,367.5z"/>
			<path class="st4" d="M1019.9,367.3c91.5-81-101.4-21.3-130.5-62.1c-127.8-178.8-179.1-28.9-179.1-28.9s18.2,38.7,36.1,44.2
				C865.8,356.6,978.7,403.8,1019.9,367.3z"/>
			<path class="st4" d="M1022.5,367c92-81.5-97.2-22.8-126.5-63.9c-128.6-179.9-181.4-32-181.4-32s17.3,41.3,34.9,46.6
				C867.5,353.5,981,403.8,1022.5,367z"/>
			<path class="st4" d="M1025,366.8c92.6-82-92.9-24.3-122.4-65.6C773.3,120.1,718.9,266,718.9,266s16.4,43.8,33.8,49.1
				C869.3,350.5,983.3,403.8,1025,366.8z"/>
			<path class="st4" d="M1027.6,366.5c93.2-82.5-88.7-25.8-118.4-67.4c-130.1-182.1-186-38.3-186-38.3s15.4,46.4,32.6,51.6
				C871.1,347.4,985.6,403.8,1027.6,366.5z"/>
			<path class="st4" d="M1030.1,366.3c93.7-83-84.5-27.3-114.3-69.1C784.9,114,727.5,255.8,727.5,255.8s14.5,48.9,31.5,54.1
				C872.8,344.4,987.9,403.7,1030.1,366.3z"/>
			<path class="st4" d="M1032.7,366.1c94.3-83.5-80.3-28.8-110.3-70.9c-131.7-184.3-190.6-44.6-190.6-44.6s13.5,51.5,30.3,56.6
				C874.6,341.3,990.2,403.7,1032.7,366.1z"/>
			<path class="st4" d="M1035.2,365.8c94.9-84-76-30.3-106.2-72.6C796.4,107.8,736,245.5,736,245.5s12.6,54,29.2,59.1
				C876.3,338.3,992.4,403.7,1035.2,365.8z"/>
			<path class="st4" d="M1037.7,365.6c95.4-84.5-71.8-31.8-102.2-74.3c-133.3-186.6-195.2-50.8-195.2-50.8s11.6,56.6,28,61.5
				C878,335.2,994.7,403.7,1037.7,365.6z"/>
			<path class="st4" d="M1040.2,365.4c96-85-67.6-33.3-98.2-76.1c-134.1-187.7-197.5-54-197.5-54s10.7,59.1,26.9,64
				C879.7,332.2,996.9,403.7,1040.2,365.4z"/>
			<path class="st4" d="M1042.7,365.2c96.5-85.5-63.4-34.8-94.1-77.8c-134.9-188.8-199.8-57.1-199.8-57.1s9.7,61.6,25.7,66.5
				C881.5,329.2,999.2,403.7,1042.7,365.2z"/>
			<path class="st4" d="M1045.1,364.9c97.1-86-59.1-36.3-90.1-79.6C819.4,95.5,753,225.1,753,225.1s8.8,64.2,24.6,69
				C883.1,326.1,1001.4,403.7,1045.1,364.9z"/>
			<path class="st4" d="M1047.6,364.7c97.7-86.5-54.9-37.8-86-81.3C825.1,92.4,757.2,220,757.2,220s7.8,66.7,23.4,71.5
				C884.8,323.1,1003.6,403.7,1047.6,364.7z"/>
			<path class="st4" d="M1050.1,364.5c98.2-87.1-50.7-39.3-82-83.1c-137.2-192.1-206.7-66.5-206.7-66.5s6.9,69.3,22.3,73.9
				C886.5,320.1,1005.8,403.7,1050.1,364.5z"/>
			<path class="st4" d="M1052.5,364.3c98.8-87.6-46.5-40.8-77.9-84.8c-138-193.2-209-69.6-209-69.6s5.9,71.8,21.1,76.4
				C888.1,317.1,1008,403.8,1052.5,364.3z"/>
			<path class="st4" d="M1054.9,364.1c99.4-88.1-42.2-42.3-73.9-86.6c-138.8-194.3-211.3-72.7-211.3-72.7s5,74.4,20,78.9
				C889.8,314,1010.1,403.8,1054.9,364.1z"/>
			<path class="st4" d="M1057.3,363.9c99.9-88.6-38-43.8-69.8-88.3c-139.6-195.4-213.6-75.9-213.6-75.9s4,76.9,18.8,81.4
				C891.4,311,1012.3,403.8,1057.3,363.9z"/>
			<path class="st4" d="M1059.7,363.7c100.5-89.1-33.8-45.3-65.8-90.1c-140.4-196.5-216-79-216-79s3.1,79.5,17.7,83.9
				C893,308.1,1014.4,403.9,1059.7,363.7z"/>
			<path class="st4" d="M1062.1,363.6c101.1-89.6-29.6-46.8-61.8-91.8c-141.2-197.6-218.3-82.1-218.3-82.1s2.1,82,16.5,86.4
				C894.6,305.1,1016.6,403.9,1062.1,363.6z"/>
			<path class="st4" d="M1064.5,363.4c101.6-90.1-25.4-48.3-57.7-93.6c-142-198.7-220.6-85.3-220.6-85.3s1.2,84.5,15.4,88.8
				C896.2,302.1,1018.7,404,1064.5,363.4z"/>
			<path class="st4" d="M1066.8,363.2c102.2-90.6-21.1-49.8-53.7-95.3c-142.8-199.8-222.9-88.4-222.9-88.4s0.3,87.1,14.2,91.3
				C897.8,299.1,1020.8,404.1,1066.8,363.2z"/>
			<path class="st4" d="M1069.2,363.1c102.8-91.1-16.9-51.3-49.6-97.1C876,65.1,794.4,174.5,794.4,174.5s-0.7,89.6,13.1,93.8
				C899.3,296.2,1022.8,404.1,1069.2,363.1z"/>
			<path class="st4" d="M1071.5,363c103.3-91.6-12.7-52.8-45.6-98.8c-144.3-202-227.5-94.7-227.5-94.7s-1.6,92.2,11.9,96.3
				C900.9,293.2,1024.9,404.2,1071.5,363z"/>
			<path class="st4" d="M1073.9,362.8c103.9-92.1-8.5-54.3-41.5-100.6c-145.1-203.1-229.8-97.8-229.8-97.8s-2.6,94.7,10.8,98.8
				C902.5,290.3,1027,404.3,1073.9,362.8z"/>
			<path class="st4" d="M1076.3,362.7c104.5-92.6-4.2-55.8-37.5-102.3C892.8,56.2,806.7,159.5,806.7,159.5s-3.5,97.3,9.6,101.2
				C904.1,287.3,1029.2,404.4,1076.3,362.7z"/>
			<path class="st4" d="M1078.7,362.6c105-93.1,0-57.3-33.4-104.1C898.5,53.2,810.8,154.5,810.8,154.5s-4.5,99.8,8.4,103.7
				C905.7,284.4,1031.3,404.5,1078.7,362.6z"/>
			<path class="st4" d="M1081.1,362.5c105.6-93.6,4.2-58.8-29.4-105.8C904.2,50.2,815,149.5,815,149.5s-5.4,102.4,7.3,106.2
				C907.3,281.5,1033.5,404.7,1081.1,362.5z"/>
			<path class="st4" d="M1083.6,362.4c106.1-94.1,8.4-60.3-25.4-107.6c-148.3-207.5-239-110.3-239-110.3s-6.4,104.9,6.1,108.7
				C909,278.6,1035.7,404.8,1083.6,362.4z"/>
			<path class="st4" d="M1086,362.3c106.7-94.6,12.7-61.8-21.3-109.3C915.6,44.4,823.4,139.6,823.4,139.6s-7.3,107.4,5,111.2
				C910.7,275.7,1037.9,404.9,1086,362.3z"/>
			<path class="st4" d="M1088.5,362.3c107.3-95.1,16.9-63.3-17.3-111.1C921.4,41.5,827.6,134.6,827.6,134.6s-8.3,110,3.8,113.7
				C912.4,272.8,1040.1,405.1,1088.5,362.3z"/>
			<path class="st4" d="M1091,362.2c107.8-95.6,21.1-64.7-13.2-112.8C927.1,38.5,831.8,129.7,831.8,129.7s-9.2,112.5,2.7,116.1
				C914.1,269.9,1042.3,405.3,1091,362.2z"/>
			<path class="st4" d="M1093.4,362.2c108.4-96.1,25.3-66.2-9.2-114.6C932.8,35.6,836,124.8,836,124.8s-10.2,115.1,1.5,118.6
				C915.7,267.1,1044.6,405.5,1093.4,362.2z"/>
			<path class="st4" d="M1095.9,362.1c109-96.6,29.6-67.7-5.1-116.3c-152.2-213.1-250.5-126-250.5-126s-11.1,117.6,0.4,121.1
				C917.4,264.2,1046.8,405.6,1095.9,362.1z"/>
			<path class="st4" d="M1098.3,362.1c109.5-97.1,33.8-69.2-1.1-118.1c-153-214.2-252.8-129.1-252.8-129.1s-12.1,120.2-0.8,123.6
				C919.1,261.4,1049,405.8,1098.3,362.1z"/>
			<path class="st4" d="M1100.8,362.1c110.1-97.6,38-70.7,3-119.8C949.9,27,848.6,110,848.6,110s-13,122.7-1.9,126.1
				C920.7,258.6,1051.1,406.1,1100.8,362.1z"/>
			<path class="st4" d="M1103.2,362.1c110.7-98.1,42.2-72.2,7-121.6C955.6,24.2,852.7,105.2,852.7,105.2s-13.9,125.3-3.1,128.6
				C922.4,255.8,1053.3,406.3,1103.2,362.1z"/>
			<path class="st4" d="M1105.6,362.1c111.2-98.6,46.5-73.7,11-123.3C961.2,21.3,856.9,100.3,856.9,100.3s-14.9,127.8-4.2,131
				C924,253,1055.5,406.5,1105.6,362.1z"/>
			<path class="st4" d="M1108,362.1c111.8-99.1,50.7-75.2,15.1-125C966.9,18.5,861,95.4,861,95.4s-15.8,130.3-5.4,133.5
				C925.6,250.2,1057.6,406.8,1108,362.1z"/>
			<path class="st4" d="M1110.3,362.2c112.4-99.6,54.9-76.7,19.1-126.8C972.5,15.7,865.1,90.6,865.1,90.6s-16.8,132.9-6.5,136
				C927.2,247.4,1059.7,407,1110.3,362.2z"/>
			<path class="st4" d="M1112.7,362.2c112.9-100.1,59.1-78.2,23.2-128.5C978.1,12.9,869.2,85.8,869.2,85.8s-17.7,135.4-7.7,138.5
				C928.7,244.6,1061.8,407.3,1112.7,362.2z"/>
			<path class="st4" d="M1115,362.3c113.5-100.6,63.4-79.7,27.2-130.3c-158.5-221.9-269-151-269-151s-18.7,138-8.8,141
				C930.2,241.9,1063.8,407.6,1115,362.3z"/>
			<path class="st4" d="M1117.3,362.3c114.1-101.1,67.6-81.2,31.3-132C989.2,7.3,877.3,76.2,877.3,76.2s-19.6,140.5-10,143.4
				C931.7,239.1,1065.9,407.9,1117.3,362.3z"/>
			<path class="st4" d="M1119.5,362.4c114.6-101.6,71.8-82.7,35.3-133.8C994.7,4.6,881.3,71.4,881.3,71.4s-20.6,143.1-11.1,145.9
				C933.2,236.4,1067.9,408.2,1119.5,362.4z"/>
			<path class="st4" d="M1121.8,362.5c115.2-102.1,76-84.2,39.4-135.5C1000.2,1.8,885.2,66.6,885.2,66.6S863.7,212.2,872.9,215
				C934.7,233.7,1069.8,408.5,1121.8,362.5z"/>
			<path class="st4" d="M1124,362.6c115.7-102.6,80.3-85.7,43.4-137.3C1005.7-0.9,889.2,61.8,889.2,61.8S866.7,210,875.7,212.7
				C936.1,231,1071.8,408.9,1124,362.6z"/>
			<path class="st4" d="M1126.1,362.8c116.3-103.1,84.5-87.2,47.4-139C1011.1-3.7,893.1,57.1,893.1,57.1s-23.4,150.7-14.6,153.4
				C937.4,228.3,1073.7,409.2,1126.1,362.8z"/>
			<path class="st4" d="M1128.3,362.9c116.9-103.6,88.7-88.7,51.5-140.8C1016.5-6.4,896.9,52.3,896.9,52.3s-24.4,153.2-15.7,155.9
				C938.8,225.6,1075.6,409.6,1128.3,362.9z"/>
			<path class="st4" d="M1130.4,363.1c117.4-104.1,92.9-90.2,55.5-142.5C1021.8-9.1,900.8,47.6,900.8,47.6s-25.3,155.8-16.9,158.3
				C940.1,223,1077.4,410,1130.4,363.1z"/>
			<path class="st4" d="M1132.4,363.2c118-104.6,97.2-91.7,59.6-144.3C1027.1-11.8,904.6,42.9,904.6,42.9s-26.3,158.3-18,160.8
				C941.4,220.3,1079.2,410.4,1132.4,363.2z"/>
			<path class="st4" d="M1134.5,363.4c118.6-105.1,101.4-93.2,63.6-146C1032.4-14.4,908.4,38.2,908.4,38.2s-27.2,160.9-19.2,163.3
				C942.6,217.7,1081,410.8,1134.5,363.4z"/>
			<path class="st4" d="M1136.5,363.6c119.1-105.6,105.6-94.7,67.7-147.8c-166.4-232.9-292-182.3-292-182.3s-28.2,163.4-20.4,165.8
				C943.9,215.1,1082.8,411.2,1136.5,363.6z"/>
			<path class="st4" d="M1138.4,363.8c119.7-106.1,109.8-96.2,71.7-149.5C1042.9-19.7,915.8,28.8,915.8,28.8s-29.1,166-21.5,168.3
				C945.1,212.5,1084.5,411.6,1138.4,363.8z"/>
			<path class="st4" d="M1140.4,364c120.3-106.6,114.1-97.7,75.8-151.3C1048.1-22.4,919.5,24.2,919.5,24.2s-30,168.5-22.7,170.7
				C946.2,209.9,1086.2,412.1,1140.4,364z"/>
			<path class="st4" d="M1142.3,364.3c120.8-107.1,118.3-99.2,79.8-153C1053.3-25,923.1,19.5,923.1,19.5s-31,171.1-23.8,173.2
				C947.3,207.3,1087.8,412.5,1142.3,364.3z"/>
			<path class="st4" d="M1144.2,364.5c121.4-107.6,122.5-100.7,83.8-154.8C1058.4-27.6,926.8,14.9,926.8,14.9s-31.9,173.6-25,175.7
				C948.4,204.7,1089.4,413,1144.2,364.5z"/>
			<path class="st4" d="M1146,364.8c122-108.1,126.7-102.2,87.9-156.5c-170.4-238.4-303.6-198-303.6-198s-32.9,176.1-26.1,178.2
				C949.5,202.2,1091,413.5,1146,364.8z"/>
			<path class="st4" d="M1147.8,365c122.5-108.6,130.9-103.7,91.9-158.3C1068.6-32.8,933.9,5.6,933.9,5.6s-33.8,178.7-27.3,180.7
				C950.5,199.6,1092.6,414,1147.8,365z"/>
			<path class="st4" d="M1149.6,365.3c123.1-109.1,135.2-105.2,96-160C1073.7-35.4,937.4,1,937.4,1S902.7,182.3,909,184.2
				C951.6,197.1,1094.2,414.5,1149.6,365.3z"/>
			<path class="st4" d="M1151.4,365.6c123.7-109.6,139.4-106.7,100-161.8C1078.7-37.9,941-3.6,941-3.6s-35.7,183.8-29.6,185.6
				C952.5,194.6,1095.7,415,1151.4,365.6z"/>
			<path class="st4" d="M1153.2,365.9c124.2-110.1,143.6-108.2,104.1-163.5C1083.7-40.5,944.5-8.1,944.5-8.1S907.8,178.2,913.7,180
				C953.5,192.1,1097.2,415.5,1153.2,365.9z"/>
			<path class="st4" d="M1154.9,366.2C1279.7,255.6,1302.7,256.6,1263,201C1088.7-43,947.9-12.7,947.9-12.7s-37.6,188.9-31.9,190.6
				C954.5,189.6,1098.7,416,1154.9,366.2z"/>
			<path class="st4" d="M1156.6,366.5c125.3-111.1,152.1-111.1,112.2-167C1093.7-45.5,951.4-17.2,951.4-17.2s-38.6,191.4-33,193.1
				C955.4,187.1,1100.1,416.6,1156.6,366.5z"/>
			<path class="st4" d="M1158.3,366.9c125.9-111.6,156.3-112.6,116.2-168.8C1098.6-48,954.8-21.8,954.8-21.8s-39.5,193.9-34.2,195.6
				C956.3,184.6,1101.5,417.2,1158.3,366.9z"/>
			<path class="st4" d="M1160,367.2c126.5-112.1,160.5-114.1,120.2-170.5c-176.7-247.3-322-223-322-223s-40.5,196.5-35.3,198
				C957.2,182.1,1103,417.7,1160,367.2z"/>
			<path class="st4" d="M1161.6,367.6c127-112.6,164.7-115.6,124.3-172.3C1108.5-53,961.6-30.8,961.6-30.8s-41.4,199-36.5,200.5
				C958.1,179.7,1104.4,418.3,1161.6,367.6z"/>
			<path class="st4" d="M1163.3,368c127.6-113.1,169-117.1,128.3-174C1113.4-55.5,965-35.3,965-35.3s-42.4,201.6-37.6,203
				C958.9,177.2,1105.8,418.9,1163.3,368z"/>
			<path class="st4" d="M1164.9,368.3c128.2-113.6,173.2-118.6,132.4-175.7C1118.2-58,968.4-39.8,968.4-39.8s-43.3,204.1-38.8,205.5
				C959.8,174.8,1107.1,419.5,1164.9,368.3z"/>
			<path class="st4" d="M1166.5,368.7c128.7-114.1,177.4-120.1,136.4-177.5C1123.1-60.5,971.7-44.3,971.7-44.3s-44.2,206.7-39.9,208
				C960.6,172.4,1108.5,420.1,1166.5,368.7z"/>
			<path class="st4" d="M1168.1,369.1c129.3-114.6,181.6-121.6,140.5-179.2C1128-62.9,975.1-48.8,975.1-48.8S929.9,160.4,934,161.6
				C961.4,170,1109.9,420.8,1168.1,369.1z"/>
			<path class="st4" d="M1169.7,369.5c129.9-115.1,185.9-123.1,144.5-181C1132.8-65.4,978.4-53.3,978.4-53.3s-46.1,211.8-42.2,212.9
				C962.2,167.5,1111.2,421.4,1169.7,369.5z"/>
			<path class="st4" d="M1171.3,369.9c130.4-115.6,190.1-124.6,148.6-182.7c-182.2-255-338.1-245-338.1-245s-47.1,214.3-43.4,215.4
				C963,165.1,1112.5,422,1171.3,369.9z"/>
			<path class="st4" d="M1172.9,370.3c131-116.1,194.3-126.1,152.6-184.5C1142.5-70.3,985.1-62.2,985.1-62.2s-48,216.8-44.5,217.9
				C963.8,162.7,1113.9,422.7,1172.9,370.3z"/>
			<path class="st4" d="M1174.5,370.8C1306,254.2,1373,243.2,1331.1,184.5C1147.3-72.7,988.4-66.7,988.4-66.7s-49,219.4-45.7,220.4
				C964.6,160.3,1115.2,423.3,1174.5,370.8z"/>
			<path class="st4" d="M1176,371.2c132.1-117.1,202.8-129.1,160.7-188c-184.6-258.3-345-254.3-345-254.3s-49.9,221.9-46.9,222.9
				C965.4,158,1116.5,423.9,1176,371.2z"/>
			<path class="st4" d="M1177.6,371.6c132.7-117.6,207-130.6,164.7-189.7C1157-77.5,995-75.6,995-75.6s-50.9,224.5-48,225.4
				C966.2,155.6,1117.8,424.6,1177.6,371.6z"/>
			<path class="st4" d="M1179.1,372c133.2-118.1,211.2-132.1,168.8-191.5C1161.8-80,998.2-80.1,998.2-80.1s-51.8,227-49.2,227.8
				C966.9,153.2,1119.1,425.2,1179.1,372z"/>
			<path class="st4" d="M1180.7,372.5c133.8-118.6,215.4-133.6,172.8-193.2c-186.9-261.6-352-263.7-352-263.7
				s-52.8,229.6-50.3,230.3C967.7,150.8,1120.4,425.9,1180.7,372.5z"/>
			<path class="st4" d="M1182.2,372.9c134.4-119.1,219.7-135.1,176.9-195C1171.3-84.8,1004.8-89,1004.8-89s-53.7,232.1-51.5,232.8
				C968.4,148.4,1121.6,426.6,1182.2,372.9z"/>
			<path class="st4" d="M1183.7,373.3c134.9-119.6,223.9-136.6,180.9-196.7c-188.5-263.8-356.6-270-356.6-270
				s-54.7,234.7-52.6,235.3C969.2,146,1122.9,427.2,1183.7,373.3z"/>
			<path class="st4" d="M1185.3,373.7c135.5-120.1,228.1-138.1,185-198.5C1180.9-89.7,1011.3-97.9,1011.3-97.9
				s-55.6,237.2-53.8,237.8C969.9,143.6,1124.2,427.9,1185.3,373.7z"/>
			<path class="st4" d="M1186.8,374.2c136.1-120.6,232.3-139.6,189-200.2c-190.1-266-361.2-276.3-361.2-276.3S958,137.4,959.7,137.9
				C970.7,141.2,1125.4,428.5,1186.8,374.2z"/>
			<path class="st4" d="M1188.3,374.6c136.6-121.1,236.6-141.1,193-202c-190.9-267.1-363.5-279.4-363.5-279.4
				s-57.5,242.3-56.1,242.7C971.4,138.9,1126.7,429.2,1188.3,374.6z"/>
			<path class="st4" d="M1189.8,375c137.2-121.6,240.8-142.6,197.1-203.7C1195.2-97,1021.1-111.2,1021.1-111.2
				S962.7,133.6,963.9,134C972.1,136.5,1128,429.8,1189.8,375z"/>
			<path class="st4" d="M1191.3,375.4c137.8-122.1,245-144.1,201.1-205.5C1200-99.4,1024.3-115.7,1024.3-115.7S965,131.7,966,132
				C972.8,134.1,1129.2,430.5,1191.3,375.4z"/>
			<path class="st4" d="M1192.8,375.9c138.3-122.6,249.2-145.6,205.2-207.2c-193.3-270.5-370.4-288.8-370.4-288.8
				S967.3,129.8,968.1,130C973.6,131.7,1130.5,431.1,1192.8,375.9z"/>
			<path class="st4" d="M1194.3,376.3c138.9-123.1,253.5-147.1,209.2-209c-194-271.6-372.7-291.9-372.7-291.9S969.5,127.9,970.2,128
				C974.3,129.3,1131.7,431.8,1194.3,376.3z"/>
			<path class="st4" d="M1195.8,376.7c139.5-123.6,257.7-148.6,213.3-210.7c-194.8-272.7-375-295-375-295s-62.2,255-61.8,255.1
				C975,126.9,1133,432.4,1195.8,376.7z"/>
			<path class="st4" d="M1197.3,377.1c140-124.1,261.9-150.1,217.3-212.5c-195.6-273.8-377.3-298.2-377.3-298.2
				s-63.2,257.6-63,257.6C975.7,124.5,1134.2,433,1197.3,377.1z"/>
			<path class="st4" d="M976.4,122.1c0,0,159,311.6,222.4,255.4C1339.4,253,1464.9,226,1420.2,163.3
				C1223.8-111.5,1040.5-138,1040.5-138L976.4,122.1z"/>
		</g>
	</g>
</g>
</svg>
