<svg xmlns="http://www.w3.org/2000/svg" width="40.896" height="40.896" viewBox="0 0 40.896 40.896"><defs><style>.a{opacity:0.41;}.b{fill:#fff;stroke:rgba(0,0,0,0);}</style></defs><g transform="translate(-1223 -25)"><circle class="a" cx="20.448" cy="20.448" r="20.448" transform="translate(1223 25)"/><g transform="translate(1236.118 38.118)"><path class="b" d="M779.528,473.256a1.96,1.96,0,0,1-1.39-.576l-10.812-10.812a1.965,1.965,0,0,1,2.78-2.78L780.917,469.9a1.966,1.966,0,0,1-1.39,3.356Z" transform="translate(-766.75 -458.512)"/></g><g transform="translate(1236.118 38.118)"><path class="b" d="M768.716,473.256a1.966,1.966,0,0,1-1.39-3.356l10.812-10.812a1.965,1.965,0,0,1,2.779,2.78L770.106,472.68A1.96,1.96,0,0,1,768.716,473.256Z" transform="translate(-766.75 -458.512)"/></g></g></svg>