<svg xmlns="http://www.w3.org/2000/svg" width="39.132" height="75.917" viewBox="0 0 39.132 75.917"><defs><style>.a,.b,.c,.d,.e,.f{fill:#b55a74;}.b{opacity:0.8;}.c{opacity:0.6;}.d{opacity:0.4;}.e{opacity:0.2;}.f{opacity:0.05;}</style></defs><g transform="translate(-552.764 -138.191)"><path class="a" d="M603.145,324.156l-2.407,4.672,2.407,4.672,2.407-4.672Z" transform="translate(-30.802 -119.398)"/><path class="b" d="M600.69,309.314l-3.775,7.329,3.775,7.329,3.775-7.329Z" transform="translate(-28.347 -109.869)"/><path class="c" d="M595.712,279.211l-6.551,12.717,6.551,12.717,6.551-12.717Z" transform="translate(-23.369 -90.541)"/><path class="d" d="M586.378,222.766l-11.755,22.819L586.378,268.4l11.755-22.819Z" transform="translate(-14.035 -54.301)"/><path class="e" d="M578.515,175.22l-16.139,31.329,16.139,31.329,16.139-31.329Z" transform="translate(-6.172 -23.774)"/><path class="f" d="M572.392,138.191l-19.553,37.956L572.392,214.1l19.553-37.956Z" transform="translate(-0.049)"/><path class="a" d="M603.05,147.623l2.406-4.671-2.406-4.671-2.406,4.671Z" transform="translate(-30.742 -0.059)"/><path class="b" d="M600.6,152.934l3.774-7.326-3.774-7.326-3.774,7.326Z" transform="translate(-28.288 -0.059)"/><path class="c" d="M595.621,163.706l6.548-12.712-6.548-12.712-6.548,12.712Z" transform="translate(-23.312 -0.059)"/><path class="d" d="M586.29,183.9l11.75-22.81-11.75-22.81-11.75,22.81Z" transform="translate(-13.981 -0.059)"/><path class="e" d="M578.43,200.916,594.563,169.6,578.43,138.282,562.3,169.6Z" transform="translate(-6.121 -0.059)"/><path class="f" d="M572.309,214.166l19.545-37.942-19.545-37.942-19.545,37.942Z" transform="translate(0 -0.059)"/></g></svg>