<svg xmlns="http://www.w3.org/2000/svg" width="27.685" height="48" viewBox="0 0 27.685 48"><defs><style>.a{fill:#a0185a;}</style></defs><g transform="translate(-334 -382)"><g transform="translate(334.006 402.316)"><path class="a" d="M199.435,635.815a3.685,3.685,0,0,0,2.6-6.291l-20.265-20.269a3.685,3.685,0,0,0-5.3,5.119l.092.092,20.265,20.269A3.674,3.674,0,0,0,199.435,635.815Z" transform="translate(-175.441 -608.131)"/></g><g transform="translate(334 382)"><path class="a" d="M199.441,602.618a3.685,3.685,0,0,1,2.606,6.291l-20.269,20.269a3.685,3.685,0,0,1-5.3-5.119l.092-.092L196.835,603.7A3.707,3.707,0,0,1,199.441,602.618Z" transform="translate(-175.441 -602.618)"/></g></g></svg>