<svg xmlns="http://www.w3.org/2000/svg" width="64" height="30.708" viewBox="0 0 64 30.708"><defs><style>.a{fill:#302c62;}.b,.c{fill:#fff;}.c{font-size:5px;font-family:Bahnschrift;}</style></defs><g transform="translate(-935.753 -598.247)"><g transform="translate(935.753 598.247)"><path class="a" d="M43.993,30.708H3.087A3.087,3.087,0,0,1,0,27.621V3.087A3.087,3.087,0,0,1,3.087,0H60.913A3.087,3.087,0,0,1,64,3.087V10.7A20.007,20.007,0,0,1,43.993,30.708Z" transform="translate(0 0)"/></g><rect class="b" width="11.984" height="2.151" rx="1.075" transform="translate(958.244 621.869) rotate(180)"/><text class="c" transform="translate(941.688 622.19)"><tspan x="0" y="0">$</tspan></text><rect class="b" width="47.014" height="4.917" rx="2.458" transform="translate(989.015 609.575) rotate(180)"/><rect class="b" width="25.197" height="2.151" rx="1.075" transform="translate(982.596 614.382) rotate(180)"/><rect class="b" width="11.984" height="2.151" rx="1.075" transform="translate(954.014 614.353) rotate(180)"/></g></svg>