<svg xmlns="http://www.w3.org/2000/svg" width="27.685" height="48" viewBox="0 0 27.685 48"><defs><style>.a{fill:#a0185a;}</style></defs><g transform="translate(-294 -382)"><g transform="translate(294 402.316)"><path class="a" d="M179.126,635.815a3.685,3.685,0,0,1-2.6-6.291l20.265-20.269a3.685,3.685,0,0,1,5.3,5.119l-.092.092-20.265,20.269A3.674,3.674,0,0,1,179.126,635.815Z" transform="translate(-175.441 -608.131)"/></g><g transform="translate(294 382)"><path class="a" d="M179.126,602.618a3.685,3.685,0,0,0-2.606,6.291l20.269,20.269a3.685,3.685,0,0,0,5.3-5.119l-.092-.092L181.732,603.7A3.707,3.707,0,0,0,179.126,602.618Z" transform="translate(-175.441 -602.618)"/></g></g></svg>