<svg xmlns="http://www.w3.org/2000/svg" width="30" height="30" viewBox="0 0 30 30"><defs><style>.a{fill:#302c62;}.b{fill:#fff;}</style></defs><g transform="translate(-662.955 -740.955)"><circle class="a" cx="15" cy="15" r="15" transform="translate(662.955 740.955)"/><g transform="translate(670.889 746.92)"><path class="b" d="M461.254,425.589l-1.189-.251a10.448,10.448,0,0,1-2.233-.735,8.574,8.574,0,0,1-1.869-1.164l1.517-2.7a7.327,7.327,0,0,0,2.318,1.271,8.3,8.3,0,0,0,2.7.449,4.756,4.756,0,0,0,2.484-.544,1.71,1.71,0,0,0,.884-1.535v-.012a1.51,1.51,0,0,0-.395-1.1,2.336,2.336,0,0,0-1.027-.6,12.514,12.514,0,0,0-1.625-.347.225.225,0,0,0-.066-.011.227.227,0,0,1-.066-.012l-.263-.037a16.128,16.128,0,0,1-2.89-.686,4.259,4.259,0,0,1-1.946-1.445,4.7,4.7,0,0,1-.8-2.933v-.012a5.289,5.289,0,0,1,.753-2.878,4.751,4.751,0,0,1,2.186-1.822,8.626,8.626,0,0,1,3.463-.627,8.815,8.815,0,0,1,1.9.216A10.368,10.368,0,0,1,467,408.7a10.734,10.734,0,0,1,1.768.98l-1.386,2.771a8.829,8.829,0,0,0-2.1-1.075,6.366,6.366,0,0,0-2.1-.383,4.546,4.546,0,0,0-2.329.5,1.546,1.546,0,0,0-.824,1.392v.012a1.616,1.616,0,0,0,.429,1.188,2.575,2.575,0,0,0,1.063.639,16.924,16.924,0,0,0,1.779.429.687.687,0,0,0,.1.018.7.7,0,0,1,.1.019,1.231,1.231,0,0,1,.138.029,1.172,1.172,0,0,0,.137.03,14.656,14.656,0,0,1,2.753.782,4.283,4.283,0,0,1,1.845,1.481,4.665,4.665,0,0,1,.741,2.789v.023a5.066,5.066,0,0,1-.776,2.843,4.854,4.854,0,0,1-2.263,1.8,9.244,9.244,0,0,1-3.577.622Z" transform="translate(-455.963 -407.863)"/></g><rect class="b" width="1.875" height="25.312" rx="0.937" transform="matrix(0.996, 0.09, -0.09, 0.996, 678.162, 743.266)"/></g></svg>