<svg xmlns="http://www.w3.org/2000/svg" viewBox="0 0 54.13 353.66"><defs><style>.cls-1{fill:#a0175a;}</style></defs><title>jumbo-bracketvector</title><g id="Capa_2" data-name="Capa 2"><g id="Capa_1-2" data-name="Capa 1"><path class="cls-1" d="M36.59,17.82A14.19,14.19,0,0,1,54.13,4V3.39L48.23,0V.63A14.18,14.18,0,0,0,30.69,14.44L31,141.92,11,163.39a13.94,13.94,0,0,1-11,1.36,14.11,14.11,0,0,0,16.91,2l20-21.47Z"/><path class="cls-1" d="M36.59,335.84a14.19,14.19,0,0,0,17.54,13.81v.62l-5.9,3.39V353a14.18,14.18,0,0,1-17.54-13.81L31,211.74,11,190.27a13.94,13.94,0,0,0-11-1.36,14.11,14.11,0,0,1,16.91-2l20,21.46Z"/></g></g></svg>