<svg xmlns="http://www.w3.org/2000/svg" viewBox="0 0 130 143.53"><defs><style>.cls-1{fill:#a0175a;}.cls-2{fill:#2d2c5e;}.cls-3{fill:#302c62;}</style></defs><title>brandvector</title><g id="Capa_2" data-name="Capa 2"><g id="Capa_1-2" data-name="Capa 1"><path class="cls-1" d="M8.44,129A3.49,3.49,0,0,1,5,124.63H4.88l-.83,1.45h.16A3.49,3.49,0,0,0,7.6,130.4L39,130.33l5.29,4.91a3.44,3.44,0,0,1,.33,2.71,3.47,3.47,0,0,0,.5-4.16l-5.28-4.92Z"/><path class="cls-1" d="M120.62,129a3.5,3.5,0,0,0,3.4-4.32h.15l.83,1.45h-.15a3.5,3.5,0,0,1-3.4,4.32l-31.36-.07-5.28,4.91a3.45,3.45,0,0,0-.34,2.71,3.47,3.47,0,0,1-.49-4.16l5.28-4.92Z"/><path class="cls-1" d="M20.84,116.12,23,101.54h4.64l-4.13,23.2h-4.7l-2.71-13.67-2.68,13.67H8.75L4.6,101.54H9.27l2.18,14.57,2.73-14.57h3.94Z"/><path class="cls-1" d="M40.38,117H34.33v4h7.2v3.71H29.82V106.18H41.55v3.76H34.33v3.34h6.05Z"/><path class="cls-1" d="M43.62,124.74V106.18h6.31a8,8,0,0,1,5,1.31,4.53,4.53,0,0,1,1.71,3.82,4.82,4.82,0,0,1-.62,2.47,3.64,3.64,0,0,1-1.84,1.54,3.59,3.59,0,0,1,2,1.46,4.65,4.65,0,0,1,.72,2.64,4.86,4.86,0,0,1-1.61,4,7.74,7.74,0,0,1-4.85,1.27Zm4.51-10.85H50.3A1.67,1.67,0,0,0,52.1,112a2.21,2.21,0,0,0-.45-1.57,1.78,1.78,0,0,0-1.37-.47H48.13Zm0,3.14v4h2.31a1.77,1.77,0,0,0,2-1.92c0-1.34-.55-2-1.63-2.08Z"/><path class="cls-1" d="M75.74,117a8.7,8.7,0,0,1-2.24,6,7.87,7.87,0,0,1-5.8,2,7.3,7.3,0,0,1-6-2.59c-1.4-1.72-2.1-4.19-2.1-7.38v-3.91c0-3.19.73-5.64,2.17-7.37a7.42,7.42,0,0,1,6-2.59,7.51,7.51,0,0,1,5.76,2.12,9.64,9.64,0,0,1,2.24,6.09H71.06a6.26,6.26,0,0,0-.75-3.39,3,3,0,0,0-2.54-.93,2.86,2.86,0,0,0-2.67,1.31,9.32,9.32,0,0,0-.83,4.33v4.38c0,2.31.26,3.89.78,4.75a2.83,2.83,0,0,0,2.65,1.29,3.08,3.08,0,0,0,2.55-.9,5.86,5.86,0,0,0,.8-3.26Z"/><path class="cls-1" d="M92.71,115.83a11.86,11.86,0,0,1-.92,4.81,7.4,7.4,0,0,1-2.63,3.22A6.83,6.83,0,0,1,85.28,125a6.91,6.91,0,0,1-3.88-1.12,7.24,7.24,0,0,1-2.66-3.22,11.66,11.66,0,0,1-.95-4.83v-.71a11.84,11.84,0,0,1,.93-4.84,7.4,7.4,0,0,1,2.64-3.23,6.91,6.91,0,0,1,3.89-1.13,6.63,6.63,0,0,1,5.23,2.32,9.7,9.7,0,0,1,2.21,6.19Zm-4.51-.74a8.6,8.6,0,0,0-.77-4,2.4,2.4,0,0,0-4.38,0,8.75,8.75,0,0,0-.75,4v.73a8.49,8.49,0,0,0,.79,4.05,2.42,2.42,0,0,0,2.19,1.42,2.35,2.35,0,0,0,2.13-1.43,8.44,8.44,0,0,0,.79-4Z"/><path class="cls-1" d="M109.49,124.74H105l-5.23-11.52v11.52H95.24V106.18h4.51L105,117.72V106.18h4.51Z"/><path class="cls-1" d="M123.1,117.52h-6.16v7.22h-4.51V106.18h11.3v3.76h-6.79v3.84h6.16Z"/><path class="cls-2" d="M45.48,94.93a4.07,4.07,0,0,1-1,2.81,3.66,3.66,0,0,1-2.71,1,3.43,3.43,0,0,1-2.82-1.21,5.34,5.34,0,0,1-1-3.46V92.2a5.25,5.25,0,0,1,1-3.44,3.48,3.48,0,0,1,2.82-1.21,3.49,3.49,0,0,1,2.69,1,4.44,4.44,0,0,1,1.05,2.84h-2.2a3,3,0,0,0-.35-1.58,1.4,1.4,0,0,0-1.19-.43A1.34,1.34,0,0,0,40.5,90a4.28,4.28,0,0,0-.38,2v2a4.81,4.81,0,0,0,.36,2.23,1.32,1.32,0,0,0,1.24.6,1.43,1.43,0,0,0,1.19-.42,2.76,2.76,0,0,0,.38-1.53Z"/><path class="cls-2" d="M53.42,94.38A5.47,5.47,0,0,1,53,96.63a3.36,3.36,0,0,1-1.23,1.51,3.21,3.21,0,0,1-1.81.53,3.3,3.3,0,0,1-1.81-.52,3.42,3.42,0,0,1-1.25-1.51,5.56,5.56,0,0,1-.44-2.26v-.33a5.57,5.57,0,0,1,.43-2.27,3.58,3.58,0,0,1,1.24-1.51,3.23,3.23,0,0,1,1.82-.52,3.1,3.1,0,0,1,2.44,1.08,4.56,4.56,0,0,1,1,2.9ZM51.31,94a3.88,3.88,0,0,0-.37-1.89,1.11,1.11,0,0,0-1-.66,1.1,1.1,0,0,0-1,.66A4,4,0,0,0,48.55,94v.34a3.9,3.9,0,0,0,.37,1.9,1.12,1.12,0,0,0,1,.66,1.1,1.1,0,0,0,1-.67,4,4,0,0,0,.37-1.85Zm-1-7.16h2.37l-2.07,2.32H48.88Z"/><path class="cls-2" d="M57.47,95.56h-.75v3H54.6V89.86h3.15a3.34,3.34,0,0,1,2.23.68,2.41,2.41,0,0,1,.79,1.93,3.36,3.36,0,0,1-.3,1.51,2.38,2.38,0,0,1-1,1L61,98.46v.09H58.77Zm-.75-1.75h1c.64,0,.95-.37.95-1.1s-.3-1.08-.91-1.09h-1Z"/><path class="cls-2" d="M62.05,98.55V89.86H64.6a3.54,3.54,0,0,1,1.91.53,3.68,3.68,0,0,1,1.32,1.49A4.89,4.89,0,0,1,68.3,94v.34a4.43,4.43,0,0,1-1,3,3.41,3.41,0,0,1-2.71,1.18Zm2.11-6.93v5.19h.47a1.35,1.35,0,0,0,1.19-.52,3.35,3.35,0,0,0,.37-1.78V94a3.51,3.51,0,0,0-.36-1.85,1.34,1.34,0,0,0-1.19-.56Z"/><path class="cls-2" d="M76.26,94.38a5.47,5.47,0,0,1-.44,2.25,3.36,3.36,0,0,1-1.23,1.51,3.21,3.21,0,0,1-1.81.53A3.3,3.3,0,0,1,71,98.15a3.42,3.42,0,0,1-1.25-1.51,5.56,5.56,0,0,1-.44-2.26v-.33a5.57,5.57,0,0,1,.43-2.27A3.58,3.58,0,0,1,71,90.27a3.23,3.23,0,0,1,1.82-.52,3.1,3.1,0,0,1,2.44,1.08,4.56,4.56,0,0,1,1,2.9ZM74.15,94a4,4,0,0,0-.36-1.89,1.14,1.14,0,0,0-1-.66,1.1,1.1,0,0,0-1,.66A4,4,0,0,0,71.39,94v.34a3.9,3.9,0,0,0,.37,1.9,1.12,1.12,0,0,0,1,.66,1.1,1.1,0,0,0,1-.67,4,4,0,0,0,.37-1.85Z"/><path class="cls-2" d="M77.44,98.55V89.86h3a3.73,3.73,0,0,1,2.32.62,2.09,2.09,0,0,1,.81,1.78,2.27,2.27,0,0,1-.29,1.16,1.7,1.7,0,0,1-.86.72,1.7,1.7,0,0,1,.95.68,2.23,2.23,0,0,1,.33,1.24A2.26,2.26,0,0,1,82.9,98a3.6,3.6,0,0,1-2.27.6Zm2.11-5.08h1a.78.78,0,0,0,.85-.89,1.06,1.06,0,0,0-.21-.74.87.87,0,0,0-.64-.22h-1Zm0,1.47v1.87h1.08a.91.91,0,0,0,.68-.24.93.93,0,0,0,.23-.66c0-.62-.25-1-.76-1Z"/><path class="cls-2" d="M89.48,96.9H86.92l-.47,1.65H84.34l2.87-8.69h2l2.9,8.69H90Zm-2.1-1.59H89l-.83-2.8Z"/><path class="cls-2" d="M56.37,143.38H50v-1.49l2.94-3.74a8,8,0,0,0,.82-1.36,2.66,2.66,0,0,0,.27-1.12,2.23,2.23,0,0,0-.25-1.13.79.79,0,0,0-.72-.41.94.94,0,0,0-.82.47,2.55,2.55,0,0,0-.3,1.35H49.79a4,4,0,0,1,.42-1.83,3.09,3.09,0,0,1,1.16-1.29,3.23,3.23,0,0,1,1.7-.46,3,3,0,0,1,2.25.81,3.08,3.08,0,0,1,.8,2.27,4.43,4.43,0,0,1-.44,1.86,11.17,11.17,0,0,1-1.61,2.32l-1.39,2h3.69Z"/><path class="cls-2" d="M64,138.89a6,6,0,0,1-.82,3.44,2.64,2.64,0,0,1-2.32,1.2,2.67,2.67,0,0,1-2.32-1.16,5.84,5.84,0,0,1-.84-3.32V137a6,6,0,0,1,.81-3.44,2.88,2.88,0,0,1,4.66,0,5.91,5.91,0,0,1,.83,3.36Zm-2.12-2.2a5.52,5.52,0,0,0-.25-1.92.84.84,0,0,0-.79-.64c-.67,0-1,.78-1,2.34v2.71a5.56,5.56,0,0,0,.25,1.95.86.86,0,0,0,.81.64.82.82,0,0,0,.76-.6,5.15,5.15,0,0,0,.26-1.83Z"/><path class="cls-2" d="M70.06,143.38H68v-8.29l-2.07.8v-1.76l4-1.62h.22Z"/><path class="cls-2" d="M77.23,139.18a2,2,0,0,1-1.47.69,2.27,2.27,0,0,1-1.94-1,4.44,4.44,0,0,1-.72-2.66,4.68,4.68,0,0,1,.41-2,3.09,3.09,0,0,1,1.12-1.38,2.76,2.76,0,0,1,1.6-.5,2.66,2.66,0,0,1,1.64.55A3.56,3.56,0,0,1,79,134.48a6.45,6.45,0,0,1,.39,2.32v.76a6.85,6.85,0,0,1-1.22,4.34,4.19,4.19,0,0,1-3.45,1.59h-.22v-1.82h.14a2.49,2.49,0,0,0,1.86-.64A2.94,2.94,0,0,0,77.23,139.18Zm-.93-1c.41,0,.73-.28,1-.83v-1a3.9,3.9,0,0,0-.29-1.68q-.28-.6-.75-.6c-.3,0-.55.2-.73.6a3.37,3.37,0,0,0-.28,1.46,3.06,3.06,0,0,0,.29,1.48A.88.88,0,0,0,76.3,138.21Z"/><path class="cls-3" d="M38,76.39,0,10.5a3.79,3.79,0,0,1,1-.13H14.08l24,41.5a3.49,3.49,0,0,0,6,0l5.26-9.11L56.42,55,44.08,76.39A3.48,3.48,0,0,1,38,76.39ZM37.61.13,37.53,0H16l24,41.5a3.49,3.49,0,0,0,6,0l5.26-9.11L35.56,5.23A3.5,3.5,0,0,1,37.61.13ZM65,17.57,52.43,39.35,65,61.13,77.57,39.35Zm50.92-7.2L92,51.87a3.49,3.49,0,0,1-6,0l-5.26-9.11L73.58,55,85.92,76.39a3.48,3.48,0,0,0,6,0L130,10.5a3.79,3.79,0,0,0-1-.13ZM92.39.13a3.5,3.5,0,0,1,2,5.1L78.76,32.39,84,41.5a3.49,3.49,0,0,0,6,0L114,0H92.47ZM75,3.85,67.69,15.72,74.77,27.3,89.11,3.85Zm-34.06,0L55.23,27.3l7.08-11.58L55.05,3.85Z"/></g></g></svg>