<svg xmlns="http://www.w3.org/2000/svg" xmlns:xlink="http://www.w3.org/1999/xlink" width="44.556" height="44.553" viewBox="0 0 44.556 44.553"><defs><style>.a{fill:url(#a);}.b{fill:#fff;}.c{fill:url(#b);}</style><linearGradient id="a" x1="0.5" y1="0.943" x2="0.5" y2="-0.057" gradientUnits="objectBoundingBox"><stop offset="0" stop-color="#a0175a"/><stop offset="1" stop-color="#302c62"/></linearGradient><linearGradient id="b" y1="0.34" y2="1.34" xlink:href="#a"/></defs><ellipse class="a" cx="22.278" cy="22.276" rx="22.278" ry="22.276" transform="translate(0 0)"/><ellipse class="b" cx="20.948" cy="20.946" rx="20.948" ry="20.946" transform="translate(1.33 1.33)"/><ellipse class="c" cx="19.427" cy="19.426" rx="19.427" ry="19.426" transform="translate(2.85 2.85)"/><path class="b" d="M3967.089-743.966l-8.589-12.521a.942.942,0,0,1,.219-.026h2.961l5.41,7.886a.867.867,0,0,0,1.363,0l1.188-1.731,1.6,2.33-2.786,4.062A.867.867,0,0,1,3967.089-743.966Zm-.1-14.492-.017-.025h-4.865l5.41,7.886a.867.867,0,0,0,1.363,0l1.188-1.731-3.541-5.161A.637.637,0,0,1,3966.992-758.458Zm6.185,3.314-2.839,4.138,2.839,4.138,2.838-4.138Zm11.5-1.369-5.41,7.886a.867.867,0,0,1-1.363,0l-1.188-1.731-1.6,2.33,2.786,4.062a.867.867,0,0,0,1.363,0l8.589-12.521a.939.939,0,0,0-.219-.026Zm-5.312-1.945a.636.636,0,0,1,.462.968l-3.541,5.161,1.188,1.731a.866.866,0,0,0,1.363,0l5.41-7.886h-4.866Zm-3.939.706-1.639,2.255,1.6,2.2,3.237-4.456Zm-7.689,0,3.237,4.456,1.6-2.2-1.639-2.255Z" transform="translate(-3950.898 773.242)"/></svg>