<svg xmlns="http://www.w3.org/2000/svg" xmlns:xlink="http://www.w3.org/1999/xlink" width="41" height="41" viewBox="0 0 41 41"><defs><style>.a{fill:none;}.b{clip-path:url(#a);}.c{fill:#a0175a;}.d{clip-path:url(#b);}.e{fill:#fff;}</style><clipPath id="a"><rect class="a" width="41" height="41"/></clipPath><clipPath id="b"><rect class="a" width="7.512" height="13.025"/></clipPath></defs><g class="b"><circle class="c" cx="20.5" cy="20.5" r="20.5"/><g class="d" transform="translate(17 14)"><g transform="translate(182.953 615.643) rotate(180)"><path class="e" d="M176.441,615.643a1,1,0,0,1-.707-1.707l5.5-5.5a1,1,0,0,1,1.439,1.389l-.025.025-5.5,5.5A1,1,0,0,1,176.441,615.643Z"/><path class="e" d="M176.441,602.618a1,1,0,0,0-.707,1.707l5.5,5.5a1,1,0,0,0,1.439-1.389l-.025-.025-5.5-5.5A1.006,1.006,0,0,0,176.441,602.618Z"/></g></g></g></svg>