<svg xmlns="http://www.w3.org/2000/svg" xmlns:xlink="http://www.w3.org/1999/xlink" width="539.056" height="569.435" viewBox="0 0 539.056 569.435"><defs><style>.a,.c{fill:#302c62;}.a,.b,.f{stroke:#302c62;}.a,.f{stroke-width:6px;}.b,.f{fill:none;}.b{stroke-width:5px;}.d{opacity:0.05;}.e{opacity:0.2;}.g{clip-path:url(#a);}.h,.i,.m{fill:#fff;}.i{font-size:36px;font-family:Bahnschrift;}.j{clip-path:url(#b);}.k{clip-path:url(#c);}.l{fill:#c11a00;}.l,.m{stroke:rgba(0,0,0,0);}</style><clipPath id="a"><path class="a" d="M152.6-5039.485a19.955,19.955,0,0,1-6.435-1.065,20.162,20.162,0,0,1-5.687-3.017,19.9,19.9,0,0,1-7.273-10.816L81.767-5246.352,96.8-5269.4l46.4,25.6,32-52.8,60.8,27.2,19.2-75.2,8.36,4.472,34.2,127.644A131.18,131.18,0,0,1,302-5186.451a129.568,129.568,0,0,1-1,25.574,130.231,130.231,0,0,1-5.872,24.473,131.146,131.146,0,0,1-10.371,22.73,131.122,131.122,0,0,1-14.5,20.347A130.253,130.253,0,0,1,251.993-5076a129.616,129.616,0,0,1-21.647,13.656A131.181,131.181,0,0,1,205.68-5053l-47.864,12.826A20.145,20.145,0,0,1,152.6-5039.485Z" transform="translate(316 5739.2)"/></clipPath><clipPath id="b"><path class="b" d="M316,5799l44.8,263.4,48-73.6,46.4,25.6,32-52.8,60.8,27.2,19.2-75.2,68.8,36.8L608.8,5808l-41.6-68.8Z" transform="translate(-11 -5549)"/></clipPath><clipPath id="c"><path class="c" d="M316,5799l44.8,263.4,48-73.6,46.4,25.6,32-52.8,60.8,27.2,19.2-75.2,68.8,36.8L608.8,5808l-41.6-68.8Z" transform="translate(-18 -5569)"/></clipPath></defs><g transform="translate(-585 -128.2)"><g class="d" transform="translate(1119.958 515.738) rotate(150)"><path class="a" d="M244.437,0H17.153A17.154,17.154,0,0,0,0,17.153V153.469a17.151,17.151,0,0,0,17.153,17.153H338.446A17.151,17.151,0,0,0,355.6,153.469v-42.3A111.164,111.164,0,0,0,244.437,0Z" transform="translate(0 0)"/></g><g class="e" transform="matrix(-0.259, 0.966, -0.966, -0.259, 998.955, 317.091)"><path class="a" d="M259.2,0H18.189A18.19,18.19,0,0,0,0,18.189V162.741A18.187,18.187,0,0,0,18.189,180.93h340.7a18.187,18.187,0,0,0,18.189-18.189V117.883A117.88,117.88,0,0,0,259.2,0Z" transform="translate(0 0)"/></g><path class="f" d="M152.6-5039.485a19.955,19.955,0,0,1-6.435-1.065,20.162,20.162,0,0,1-5.687-3.017,19.9,19.9,0,0,1-7.273-10.816L81.767-5246.352,96.8-5269.4l46.4,25.6,32-52.8,60.8,27.2,19.2-75.2,8.36,4.472,34.2,127.644A131.18,131.18,0,0,1,302-5186.451a129.568,129.568,0,0,1-1,25.574,130.231,130.231,0,0,1-5.872,24.473,131.146,131.146,0,0,1-10.371,22.73,131.122,131.122,0,0,1-14.5,20.347A130.253,130.253,0,0,1,251.993-5076a129.616,129.616,0,0,1-21.647,13.656A131.181,131.181,0,0,1,205.68-5053l-47.864,12.826A20.145,20.145,0,0,1,152.6-5039.485Z" transform="translate(596 5677.2)"/><g class="g" transform="translate(281 -60)"><g transform="matrix(0.259, 0.966, -0.966, 0.259, 539.653, 250.137)"><path class="a" d="M286.336,0H20.093A20.094,20.094,0,0,0,0,20.093V179.775a20.091,20.091,0,0,0,20.093,20.093H396.459a20.091,20.091,0,0,0,20.093-20.093V130.222A130.219,130.219,0,0,0,286.336,0Z"/></g><rect class="h" width="306" height="32" rx="10" transform="matrix(0.259, 0.966, -0.966, 0.259, 415.89, 314.244)"/><rect class="h" width="164" height="14" rx="7" transform="matrix(0.259, 0.966, -0.966, 0.259, 457.89, 346.244)"/><rect class="h" width="78" height="14" rx="7" transform="matrix(0.259, 0.966, -0.966, 0.259, 504.89, 526.244)"/><rect class="h" width="78" height="14" rx="7" transform="matrix(0.259, 0.966, -0.966, 0.259, 534.89, 476.244)"/><text class="i" transform="matrix(0.259, 0.966, -0.966, 0.259, 538.854, 568.101)"><tspan x="0" y="0">$</tspan></text></g><g class="j" transform="translate(280 -62)"><g class="k" transform="translate(7 18)"><g transform="translate(-6 -10)"><g transform="matrix(0.259, 0.966, -0.966, 0.259, 539.653, 250.137)"><path class="a" d="M286.336,0H20.093A20.094,20.094,0,0,0,0,20.093V179.775a20.091,20.091,0,0,0,20.093,20.093H396.459a20.091,20.091,0,0,0,20.093-20.093V130.222A130.219,130.219,0,0,0,286.336,0Z"/></g><rect class="h" width="306" height="32" rx="10" transform="matrix(0.259, 0.966, -0.966, 0.259, 415.89, 314.244)"/><rect class="h" width="164" height="14" rx="7" transform="matrix(0.259, 0.966, -0.966, 0.259, 457.89, 346.244)"/><rect class="h" width="78" height="14" rx="7" transform="matrix(0.259, 0.966, -0.966, 0.259, 504.89, 526.244)"/><rect class="h" width="78" height="14" rx="7" transform="matrix(0.259, 0.966, -0.966, 0.259, 534.89, 476.244)"/><text class="i" transform="matrix(0.259, 0.966, -0.966, 0.259, 538.854, 568.101)"><tspan x="0" y="0">$</tspan></text></g></g></g><path class="b" d="M96.8-5271.4,85.511-5254.09,51.794-5379.924A20.092,20.092,0,0,1,66-5404.534l154.24-41.328a20.093,20.093,0,0,1,24.609,14.208l24.872,92.823L255.2-5346.6,236-5271.4l-60.8-27.2-32,52.8Z" transform="translate(581 5649.2)"/><g transform="translate(325 -514.79)"><g transform="translate(521 758)"><path class="l" d="M823.573,482.177l-55.2,100.675c-21.941,40.043,5.485,90.082,49.381,90.082H928.151c43.895,0,71.322-50.038,49.38-90.082l-55.2-100.675C900.392,442.132,845.514,442.132,823.573,482.177Z" transform="translate(-760.653 -452.143)"/><g transform="translate(68.622 75.368)"><path class="m" d="M842.456,550.51a11.321,11.321,0,0,1-8.233-3.594l-64.057-67.464a12.716,12.716,0,0,1,0-17.344,11.223,11.223,0,0,1,16.468,0l64.057,67.464a12.716,12.716,0,0,1,0,17.344A11.322,11.322,0,0,1,842.456,550.51Z" transform="translate(-766.75 -458.511)"/></g><g transform="translate(68.622 75.368)"><path class="m" d="M778.4,550.51a11.321,11.321,0,0,1-8.233-3.594,12.716,12.716,0,0,1,0-17.344l64.057-67.464a11.223,11.223,0,0,1,16.468,0,12.716,12.716,0,0,1,0,17.344l-64.057,67.464A11.322,11.322,0,0,1,778.4,550.51Z" transform="translate(-766.75 -458.511)"/></g></g></g></g></svg>