<svg xmlns="http://www.w3.org/2000/svg" width="493.364" height="505.4" viewBox="0 0 493.364 505.4"><defs><style>.a{opacity:0.59;}.b{fill:#302c62;}.c{opacity:0.8;}.d,.e{fill:#fff;}.e{font-size:36px;font-family:Bahnschrift;}.f{fill:#9841bd;}.g,.i{fill:none;}.g{stroke:#fff;stroke-width:10px;}.h{stroke:none;}</style></defs><g transform="translate(-1220.594 -290.137)"><g class="a" transform="translate(1713.958 617.738) rotate(150)"><path class="b" d="M244.437,0H17.153A17.154,17.154,0,0,0,0,17.153V153.469a17.151,17.151,0,0,0,17.153,17.153H338.446A17.151,17.151,0,0,0,355.6,153.469v-42.3A111.164,111.164,0,0,0,244.437,0Z" transform="translate(0 0)"/></g><g class="c" transform="matrix(-0.259, 0.966, -0.966, -0.259, 1592.955, 419.091)"><path class="b" d="M259.2,0H18.189A18.19,18.19,0,0,0,0,18.189V162.741A18.187,18.187,0,0,0,18.189,180.93h340.7a18.187,18.187,0,0,0,18.189-18.189V117.883A117.88,117.88,0,0,0,259.2,0Z" transform="translate(0 0)"/></g><g transform="matrix(0.259, 0.966, -0.966, 0.259, 1413.652, 290.137)"><path class="b" d="M286.336,0H20.093A20.094,20.094,0,0,0,0,20.093V179.775a20.091,20.091,0,0,0,20.093,20.093H396.459a20.091,20.091,0,0,0,20.093-20.093V130.222A130.219,130.219,0,0,0,286.336,0Z"/></g><rect class="d" width="78" height="14" rx="7" transform="matrix(0.259, 0.966, -0.966, 0.259, 1408.89, 516.244)"/><text class="e" transform="matrix(0.259, 0.966, -0.966, 0.259, 1412.854, 608.101)"><tspan x="0" y="0">$</tspan></text><g transform="translate(560 119)"><circle class="f" cx="100.878" cy="100.878" r="100.878" transform="translate(886 267)"/></g><rect class="d" width="306" height="32" rx="10" transform="matrix(0.259, 0.966, -0.966, 0.259, 1289.89, 354.244)"/><rect class="d" width="164" height="14" rx="7" transform="matrix(0.259, 0.966, -0.966, 0.259, 1331.89, 386.244)"/><rect class="d" width="78" height="14" rx="7" transform="matrix(0.259, 0.966, -0.966, 0.259, 1378.89, 566.244)"/><g class="g" transform="translate(1483 429)"><circle class="h" cx="63.5" cy="63.5" r="63.5"/><circle class="i" cx="63.5" cy="63.5" r="58.5"/></g><path class="d" d="M-6095.5,3083a41.239,41.239,0,0,1-16.154-3.261,41.364,41.364,0,0,1-13.191-8.894,41.364,41.364,0,0,1-8.895-13.191A41.238,41.238,0,0,1-6137,3041.5a41.291,41.291,0,0,1,11.666-28.847,41.407,41.407,0,0,1,12.708-8.966,41.177,41.177,0,0,1,15.626-3.661V3049h42.324a41.132,41.132,0,0,1-5.005,13.471,41.57,41.57,0,0,1-9.1,10.781,41.357,41.357,0,0,1-12.251,7.155A41.353,41.353,0,0,1-6095.5,3083Z" transform="translate(7642 -2550)"/><rect class="d" width="22" height="18" transform="translate(1535 413)"/><rect class="d" width="14" height="12" transform="translate(1586.172 431.929) rotate(45)"/><rect class="d" width="14" height="12" transform="translate(1516.071 440.414) rotate(135)"/></g></svg>