<svg xmlns="http://www.w3.org/2000/svg" width="493.364" height="505.4" viewBox="0 0 493.364 505.4"><defs><style>.a{opacity:0.59;}.b{fill:#302c62;}.c{opacity:0.8;}.d,.e{fill:#fff;}.e{font-size:36px;font-family:Bahnschrift;}.f{fill:#9841bd;}</style></defs><g transform="translate(-128.594 -287.137)"><g class="a" transform="translate(621.958 614.738) rotate(150)"><path class="b" d="M244.437,0H17.153A17.154,17.154,0,0,0,0,17.153V153.469a17.151,17.151,0,0,0,17.153,17.153H338.446A17.151,17.151,0,0,0,355.6,153.469v-42.3A111.164,111.164,0,0,0,244.437,0Z" transform="translate(0 0)"/></g><g class="c" transform="matrix(-0.259, 0.966, -0.966, -0.259, 500.955, 416.091)"><path class="b" d="M259.2,0H18.189A18.19,18.19,0,0,0,0,18.189V162.741A18.187,18.187,0,0,0,18.189,180.93h340.7a18.187,18.187,0,0,0,18.189-18.189V117.883A117.88,117.88,0,0,0,259.2,0Z" transform="translate(0 0)"/></g><g transform="matrix(0.259, 0.966, -0.966, 0.259, 321.652, 287.137)"><path class="b" d="M286.336,0H20.093A20.094,20.094,0,0,0,0,20.093V179.775a20.091,20.091,0,0,0,20.093,20.093H396.459a20.091,20.091,0,0,0,20.093-20.093V130.222A130.219,130.219,0,0,0,286.336,0Z"/></g><rect class="d" width="78" height="14" rx="7" transform="matrix(0.259, 0.966, -0.966, 0.259, 316.89, 513.244)"/><text class="e" transform="matrix(0.259, 0.966, -0.966, 0.259, 320.854, 605.101)"><tspan x="0" y="0">$</tspan></text><g transform="translate(-532 116.244)"><circle class="f" cx="100.878" cy="100.878" r="100.878" transform="translate(886 267)"/><g transform="translate(933.03 363.958)"><path class="d" d="M209.722,440.044a10.609,10.609,0,0,1-7.507-3.111l-26.547-26.547a10.622,10.622,0,0,1,14.76-15.28l.255.265,26.547,26.547a10.619,10.619,0,0,1-7.507,18.126Z" transform="translate(-172.429 -392.131)"/></g><g transform="translate(965.014 332.102)"><path class="d" d="M186.06,468.9a10.617,10.617,0,0,1-7.507-18.126l58.4-58.4a10.619,10.619,0,0,1,15.28,14.75l-.265.265-58.4,58.4A10.59,10.59,0,0,1,186.06,468.9Z" transform="translate(-175.441 -389.131)"/></g></g><rect class="d" width="306" height="32" rx="10" transform="matrix(0.259, 0.966, -0.966, 0.259, 197.89, 351.244)"/><rect class="d" width="164" height="14" rx="7" transform="matrix(0.259, 0.966, -0.966, 0.259, 239.89, 383.244)"/><rect class="d" width="78" height="14" rx="7" transform="matrix(0.259, 0.966, -0.966, 0.259, 286.89, 563.244)"/></g></svg>