<svg xmlns="http://www.w3.org/2000/svg" viewBox="0 0 29.44 29.44"><defs><style>.cls-1{fill:#302c62;}</style></defs><title>instagramvector</title><g id="Capa_2" data-name="Capa 2"><g id="Capa_1-2" data-name="Capa 1"><g id="Ebene_2" data-name="Ebene 2"><path class="cls-1" d="M24.24,5.69a.49.49,0,1,0-.49-.49A.49.49,0,0,0,24.24,5.69Z"/><path class="cls-1" d="M26.61,0H2.83A2.83,2.83,0,0,0,0,2.83V26.61a2.83,2.83,0,0,0,2.83,2.83H26.61a2.83,2.83,0,0,0,2.83-2.83V2.83A2.83,2.83,0,0,0,26.61,0Zm1.94,2.83V9.52H20.23a7.57,7.57,0,0,0-11,0H8V.89H26.61A1.94,1.94,0,0,1,28.55,2.83ZM14.72,8A6.69,6.69,0,1,1,8,14.72,6.7,6.7,0,0,1,14.72,8ZM4.46,9.52V.89H7.14V9.52ZM2.83.89h.74V9.52H.89V2.83A1.94,1.94,0,0,1,2.83.89ZM26.61,28.55H2.83A1.94,1.94,0,0,1,.89,26.61V10.41h7.6a7.58,7.58,0,1,0,12.46,0h7.6v16.2A1.94,1.94,0,0,1,26.61,28.55Z"/><path class="cls-1" d="M14.72,18.73a4,4,0,1,0-4-4A4,4,0,0,0,14.72,18.73Zm0-7.13a3.12,3.12,0,1,1-3.12,3.12A3.12,3.12,0,0,1,14.72,11.6Z"/></g></g></g></svg>