<svg xmlns="http://www.w3.org/2000/svg" viewBox="0 0 35.88 27.43"><defs><style>.cls-1{fill:#302c62;}</style></defs><title>twittervector</title><g id="Capa_2" data-name="Capa 2"><g id="Capa_1-2" data-name="Capa 1"><g id="Ebene_1" data-name="Ebene 1"><path class="cls-1" d="M35.88,2.75l-1-.14a50,50,0,0,0-5.39-.51A7.13,7.13,0,0,0,17.34,7.17a7.77,7.77,0,0,0,.07,1C12.89,7.74,9,5.53,4.81,1L4.31.5,4,1.14C3.39,2.3,2.36,5.71,3.2,8.26a13.19,13.19,0,0,0,3.47,5.06,19.05,19.05,0,0,1-4-1.08l-1-.4.31,1A13.56,13.56,0,0,0,5.25,18.2a11.65,11.65,0,0,0,5.43,3.23,12.59,12.59,0,0,1-7,2.08,12.79,12.79,0,0,1-1.52-.09L0,23.17l1.83,1.18a19.25,19.25,0,0,0,10.44,3.08,19.41,19.41,0,0,0,8.3-1.78,18.35,18.35,0,0,0,6.08-4.58A20.19,20.19,0,0,0,31.64,8c0-.22,0-.45,0-.67Zm-10,17.66a17.52,17.52,0,0,1-13.62,6,18.21,18.21,0,0,1-8.11-1.91,13.58,13.58,0,0,0,8.07-3l.94-.73L12,20.66C7.51,20,4.54,16.38,3.32,13.55a17.44,17.44,0,0,0,5,.92H9.93l-1.37-.92a12.45,12.45,0,0,1-4.4-5.61A9.79,9.79,0,0,1,4.6,2.28C9,6.81,13.12,9,18,9.2l.67,0-.15-.65a6.62,6.62,0,0,1-.16-1.41A6.12,6.12,0,0,1,29,3l.16.16h.22a35.5,35.5,0,0,1,4.48.36L30.6,6.89v.22c0,.28,0,.56,0,.84A19.21,19.21,0,0,1,25.89,20.41Z"/></g></g></g></svg>