<svg xmlns="http://www.w3.org/2000/svg" width="153.435" height="58.655" viewBox="0 0 153.435 58.655"><defs><style>.a{fill:#003d8c;}.a,.b,.c,.d,.e,.f,.g,.h,.i{fill-rule:evenodd;}.b{fill:#2a7fb6;}.c{fill:#003c8b;}.d{fill:#3e89bb;}.e{fill:#4e9f3b;}.f{fill:#2b7fb6;}.g{fill:#003e8d;}.h{fill:#003e8e;}.i{fill:#004190;}</style></defs><g transform="translate(-1955.845 -5063.422)"><g transform="translate(1955.845 5063.422)"><path class="a" d="M1956.02,5063.422a54.277,54.277,0,0,0,4.678,3.315,289.253,289.253,0,0,0,55.835,29.52c.547.214.743.446.652,1.061a37.493,37.493,0,0,1-1.265,5.437c-.179.59-.405.6-.923.42-8.185-2.925-16.342-5.923-24.443-9.073-6.125-2.381-12.245-4.777-18.227-7.5a27.793,27.793,0,0,1-13.3-11.829,26.28,26.28,0,0,1-2.989-9.012c-.025-.167.044-.376-.175-.473C1955.953,5064.669,1955.683,5064.02,1956.02,5063.422Z" transform="translate(-1955.845 -5063.422)"/><path class="b" d="M1991.158,5146.459a13.745,13.745,0,0,0-2.694-.543,28.582,28.582,0,0,1-22.613-23.621,27.927,27.927,0,0,1,1.225-13.783c.055-.16.071-.357.289-.471.214.161.245.424.336.652a27.243,27.243,0,0,0,8.588,11.512,2.247,2.247,0,0,1,.625.773,25.384,25.384,0,0,0,9.343,10.078,1.943,1.943,0,0,1,.732.666c3.29,5.726,8.285,9.28,14.466,11.312a38.667,38.667,0,0,0,4.019,1.047,23.6,23.6,0,0,1-4.04,1.433,25.271,25.271,0,0,1-4.346.793c-.128.012-.261.011-.329.151Z" transform="translate(-1961.11 -5087.804)"/><path class="b" d="M1989.515,5072.881a22.108,22.108,0,0,1,3.737-2.545,28.657,28.657,0,0,1,41.963,18.956,36.273,36.273,0,0,1,.651,6.167c.025.7-.173.778-.787.535q-9.4-3.7-18.473-8.129-13.6-6.617-26.456-14.573C1989.952,5073.172,1989.761,5073.041,1989.515,5072.881Z" transform="translate(-1974.245 -5065.198)"/><path class="c" d="M2138.71,5100.711c0-2.956-.01-5.912.01-8.868,0-.488-.1-.7-.636-.664-.671.047-1.348,0-2.022.017-.339.011-.449-.1-.445-.444.016-1.218.012-2.437,0-3.655,0-.282.065-.425.385-.421,5.028.071,10.066-.246,15.081.147,5.451.427,8.99,3.58,10.69,8.613,1.923,5.69,1.066,11-3.1,15.543a12.044,12.044,0,0,1-9.312,3.727c-4.355.016-8.712-.006-13.068.017-.545,0-.71-.14-.688-.688.043-1.087.03-2.178,0-3.266-.011-.431.1-.607.56-.58.62.036,1.247-.028,1.865.02.567.043.685-.179.68-.707C2138.7,5106.571,2138.71,5103.641,2138.71,5100.711Zm5.34-.034c0,2.849.012,5.7-.011,8.547,0,.507.137.663.65.649,1.579-.039,3.161.022,4.737-.045a7.367,7.367,0,0,0,7.354-5.67,11.6,11.6,0,0,0-.258-7.757,7.138,7.138,0,0,0-6.869-4.892c-1.63-.044-3.263,0-4.893-.045-.6-.018-.728.178-.723.746C2144.065,5095.031,2144.05,5097.854,2144.05,5100.677Z" transform="translate(-2054.078 -5076.1)"/><path class="a" d="M2248.956,5100.039c0-1.865-.057-3.733.012-5.6.185-5,4.369-8.079,7.958-8.867,4.864-1.067,10.307,1.955,11.761,6.559a10.971,10.971,0,0,1,.482,3.293c.008,3.265.079,6.531-.042,9.8-.151,4.068-2.307,6.789-5.831,8.478a9.727,9.727,0,0,1-10.411-1.066,9.279,9.279,0,0,1-3.991-8.008c-.006-1.528,0-3.059,0-4.588Zm14.865.021h-.009c0-1.839.071-3.683-.018-5.518a4.576,4.576,0,0,0-4.617-4.348,4.622,4.622,0,0,0-4.885,4.144,13.36,13.36,0,0,0-.1,1.7c.043,3.212-.176,6.432.106,9.638.238,2.7,2.15,4.254,4.935,4.182a4.471,4.471,0,0,0,4.573-4.437C2263.881,5103.639,2263.821,5101.847,2263.821,5100.06Z" transform="translate(-2115.982 -5075.411)"/><path class="c" d="M2203.259,5114.154c2.295-3.059,4.491-5.989,6.839-9.118a6.927,6.927,0,0,1-3.062.464,9.337,9.337,0,0,1-8.143-7.538,10.455,10.455,0,1,1,20.529-3.958,10.677,10.677,0,0,1-1.5,7.823c-2.6,3.994-5.241,7.959-7.868,11.936-.125.188-.227.4-.523.4C2207.5,5114.151,2205.461,5114.154,2203.259,5114.154Zm5.888-13.2a5.214,5.214,0,0,0,5.248-5.23,5.265,5.265,0,0,0-10.529-.04A5.226,5.226,0,0,0,2209.147,5100.955Z" transform="translate(-2088.533 -5075.415)"/><path class="d" d="M1975.553,5109.764c.678.469,1.341.942,2.019,1.394,3.519,2.345,7.458,3.821,11.328,5.431,11.88,4.941,23.94,9.412,36.065,13.708.661.233.626.482.351.985-1.16,2.131-.5,1.823-2.731,1.314-9.912-2.261-19.779-4.7-29.48-7.765a29.58,29.58,0,0,1-13.056-7.953,25.11,25.11,0,0,1-4.414-6.545C1975.564,5110.181,1975.408,5110.034,1975.553,5109.764Z" transform="translate(-1966.582 -5088.746)"/><path class="a" d="M2114.45,5100.636c0,2.956.011,5.911-.011,8.867,0,.5.115.691.64.653.619-.043,1.245.008,1.865-.016.394-.017.563.1.557.521-.018,1.166-.021,2.333,0,3.5.008.44-.193.505-.565.5q-5.173-.014-10.345,0c-.458,0-.564-.155-.555-.581.025-1.141.023-2.282,0-3.422-.008-.408.123-.549.531-.528.62.029,1.248-.035,1.866.019s.641-.274.639-.746c-.012-3.682-.006-7.363-.006-11.044,0-2.2-.011-4.408.009-6.612,0-.456-.1-.7-.6-.615a.631.631,0,0,1-.155,0c-.741-.054-1.754.332-2.149-.152-.373-.457-.125-1.431-.126-2.178,0-.7-.237-1.624.115-2.026.41-.47,1.362-.143,2.077-.147,2.852-.019,5.7,0,8.555-.019.52,0,.734.1.71.673-.045,1.062-.045,2.126,0,3.188.023.57-.186.711-.71.673-.567-.042-1.144.034-1.709-.021-.6-.058-.653.222-.649.717C2114.46,5094.776,2114.45,5097.706,2114.45,5100.636Z" transform="translate(-2037.882 -5076.049)"/><path class="e" d="M1999.1,5141.628c.1,0,.211-.028.288.013,4.013,2.125,8.385,3.245,12.706,4.494,7.734,2.235,15.556,4.125,23.4,5.914.2.045.392.11.636.179a25.465,25.465,0,0,1-2.139,2.813c-.244.295-.51.173-.778.129-4.6-.766-9.177-1.612-13.734-2.59a51.181,51.181,0,0,1-10.057-2.875,25.555,25.555,0,0,1-9.859-7.374,1.86,1.86,0,0,1-.463-.7Z" transform="translate(-1979.484 -5106.154)"/><path class="f" d="M2020.709,5163.937c1.247.411,2.48.871,3.743,1.225,4.463,1.256,9.02,2.092,13.568,2.963,1.9.363,3.8.7,5.806,1.065a15.853,15.853,0,0,1-2.52,2.192c-2.4,1.81-2.409,1.835-5.363,1.256a26.482,26.482,0,0,1-12.3-5.624,14.427,14.427,0,0,1-2.926-3.088Z" transform="translate(-1991.29 -5118.343)"/><path class="g" d="M2139.057,5166.142c0-1.711.018-3.422-.01-5.134-.009-.535.151-.736.7-.727,1.581.027,3.163-.011,4.745.015a3.591,3.591,0,0,1,3.443,2.644,3.352,3.352,0,0,1-1.636,3.982c-.65.372-.577.643-.267,1.172.615,1.05,1.154,2.141,1.738,3.208.293.538.152.737-.457.755-2.134.065-2.134.077-3.079-1.812-.382-.764-.8-1.513-1.128-2.3-.236-.562-.662-.514-1.088-.455-.487.067-.276.489-.282.755-.025,1.036-.024,2.074,0,3.111.009.474-.114.692-.651.705-2.027.046-2.027.065-2.027-1.955Q2139.058,5168.126,2139.057,5166.142Zm4.137-.872c.311,0,.621.013.931,0a1.273,1.273,0,1,0,.034-2.546c-.438-.028-.88-.006-1.32-.006-1.112,0-1.112,0-1.112,1.1C2141.728,5165.271,2141.728,5165.271,2143.194,5165.27Z" transform="translate(-2055.957 -5116.351)"/><path class="h" d="M2246.028,5166.1c0-1.71.014-3.421-.009-5.131-.007-.493.138-.693.656-.688q3.146.028,6.3,0c.494,0,.7.167.691.678-.035,2.15.236,1.823-1.789,1.845-.855.01-1.711.032-2.564-.009-.531-.025-.644.18-.642.667,0,1.337-.016,1.337,1.283,1.337.673,0,1.347,0,2.021,0,.154,0,.353-.046.458.03.749.542.182,1.324.332,1.984.089.395-.171.548-.551.546-.985-.006-1.969.016-2.954-.008-.417-.01-.58.088-.592.551-.037,1.656-.057,1.655,1.572,1.655.933,0,1.866.014,2.8-.006.427-.009.634.152.621.582,0,.052,0,.1,0,.156-.017,2.135.2,1.734-1.69,1.757-1.735.02-3.471-.019-5.207.017-.592.012-.753-.187-.743-.758C2246.048,5169.573,2246.028,5167.836,2246.028,5166.1Z" transform="translate(-2114.411 -5116.352)"/><path class="g" d="M2181.333,5171.867c-.9.284-1.4-.277-1.662-1.183-.129-.45-.4-.577-.855-.563-1.088.032-2.177.035-3.264,0a.808.808,0,0,0-.924.588c-.161.414-.215,1.031-.737,1.108a6.984,6.984,0,0,1-2.163,0c-.463-.079-.151-.507-.034-.761q1.757-3.8,3.53-7.6c.457-.986.911-1.973,1.367-2.958.121-.26.248-.555.581-.553s.444.312.563.569q2.453,5.276,4.9,10.552c.32.69.241.789-.531.8C2181.9,5171.869,2181.689,5171.867,2181.333,5171.867Zm-4.185-6.753-1.2,2.659h2.43Z" transform="translate(-2073.681 -5116.167)"/><path class="h" d="M2212.732,5166.612c.859-1.888,1.712-3.658,2.465-5.469a1.181,1.181,0,0,1,1.4-.881,8.589,8.589,0,0,0,1.01.007c.874.008.94.1.579.876q-1.345,2.884-2.7,5.764-1.085,2.32-2.167,4.642c-.13.279-.225.632-.6.639s-.476-.346-.606-.626q-2.433-5.245-4.864-10.491c-.318-.689-.247-.787.527-.8,2.04-.047,2.043-.048,2.89,1.8C2211.347,5163.546,2212.012,5165.025,2212.732,5166.612Z" transform="translate(-2093.132 -5116.332)"/><path class="i" d="M2109.057,5167.363c0-1.321-.012-2.643.006-3.963.006-.424-.114-.641-.566-.586a3.224,3.224,0,0,1-.389,0c-1.911,0-2.018-.14-1.767-2.069.05-.394.258-.456.573-.455q3.5,0,6.994,0c.382,0,.593.139.561.546,0,.026,0,.052,0,.078-.036,2.3.317,1.885-1.858,1.882-.688,0-.864.178-.852.86.042,2.512,0,5.026.03,7.538.01.684-.2.892-.886.879-1.847-.032-1.847,0-1.847-1.834Q2109.057,5168.8,2109.057,5167.363Z" transform="translate(-2038.031 -5116.356)"/><path class="g" d="M2278.727,5166.116c0-1.711.019-3.422-.01-5.132-.01-.557.191-.7.721-.712,1.938-.025,1.938-.042,1.938,1.892,0,2.177.036,4.356-.021,6.533-.019.749.231.908.91.869.93-.053,1.866,0,2.8-.02.454-.01.661.121.65.614-.058,2.328.322,1.838-1.783,1.879-1.477.028-2.957-.027-4.434.02-.641.019-.792-.21-.781-.808C2278.749,5169.539,2278.727,5167.828,2278.727,5166.116Z" transform="translate(-2132.279 -5116.343)"/><path class="e" d="M1999,5141.509l-.094-.073.091-.03v.105Z" transform="translate(-1979.375 -5106.037)"/><path class="f" d="M2020.658,5163.843a.291.291,0,0,1-.055-.03c-.008-.007-.006-.025-.007-.04l.051.08Z" transform="translate(-1991.229 -5118.26)"/></g></g></svg>