<svg xmlns="http://www.w3.org/2000/svg" width="152.435" height="43.586" viewBox="0 0 152.435 43.586"><defs><style>.a{fill:#040505;}.b{fill:#fff;}</style></defs><g transform="translate(-1956.133 -4834.465)"><rect class="a" width="152.435" height="43.586" transform="translate(1956.133 4834.465)"/><path class="b" d="M2113.139,4872.748a2.875,2.875,0,0,1-.8.126c-.888,0-1.312-.38-1.312-1.479v-8.287c0-4.355-3.467-6.47-7.568-6.47a18.329,18.329,0,0,0-8.16,1.734l-.743,4.386,4.355.466.616-2.146a5.919,5.919,0,0,1,2.917-.55c3.087,0,3.129,2.325,3.129,4.271v.635a24.939,24.939,0,0,0-3.129-.169c-4.355,0-8.878,1.1-8.878,5.792,0,3.975,3.128,5.455,5.876,5.455a6.909,6.909,0,0,0,6.131-3.806,3.886,3.886,0,0,0,4.186,3.806,7.359,7.359,0,0,0,3.425-.888Zm-11.712-.126a1.994,1.994,0,0,1-2.241-2.2c0-2.072,1.692-2.622,3.636-2.622a20.109,20.109,0,0,1,2.748.253C2105.444,4871.225,2103.372,4872.621,2101.427,4872.621ZM2094.1,4847l-8.244,29.09h-5.37l8.244-29.09Zm-11.078,0-8.245,29.09h-5.369l8.244-29.09Zm-22.893,10.02h5.708v6.851h-5.708Zm0,12.219h5.708v6.851h-5.708Zm-8.306-.253,4.312.423-1.184,6.681H2038.3l-.549-2.875,10.486-12.05h-5.961l-.846,2.96-3.932-.423.677-6.681h16.743l.423,2.875-10.571,12.05h6.174Zm-27.327-12.347c-6.85,0-10.232,4.609-10.232,10.19,0,6.089,4.059,9.682,9.937,9.682,6.088,0,10.486-3.847,10.486-9.936C2034.69,4861.247,2031.35,4856.638,2024.5,4856.638Zm-.127,15.687c-2.959,0-4.482-2.537-4.482-5.834,0-3.594,1.733-5.666,4.524-5.666,2.579,0,4.65,1.733,4.65,5.581C2029.067,4870.041,2027.207,4872.324,2024.374,4872.324Zm-15.015-.38h2.536v4.144H2003.9v-10.74c0-3.3-1.1-4.566-3.256-4.566-2.621,0-3.678,1.861-3.678,4.524v6.638h2.536v4.144h-7.991v-10.74c0-3.3-1.1-4.566-3.256-4.566-2.621,0-3.678,1.861-3.678,4.524v6.638h3.636v4.144H1976.59v-4.144h2.537v-10.782h-2.537v-4.144h7.991v2.875a6.319,6.319,0,0,1,5.792-3.256,6.175,6.175,0,0,1,6.216,4.1,6.392,6.392,0,0,1,6.216-4.1c3.425,0,6.554,2.072,6.554,6.6Z" transform="translate(-11.413 -6.992)"/></g></svg>