<svg xmlns="http://www.w3.org/2000/svg" width="144" height="45.658" viewBox="0 0 144 45.658"><defs><style>.a{fill:#96bf2b;fill-rule:evenodd;}.b{fill:#3c3c3c;}</style></defs><g transform="translate(-1431.642 -5061.23)"><g transform="translate(1431.642 5061.23)"><path class="a" d="M1449.3,5063.372l-15.515,15.515a7.314,7.314,0,0,0,0,10.344l15.515,15.515a7.314,7.314,0,0,0,10.343,0l5.172-5.171-5.172-5.172-5.172,5.172-15.516-15.515,15.516-15.515,10.343,10.343-10.343,10.344,5.172,5.172,10.344-10.343a7.315,7.315,0,0,0,0-10.344l-10.344-10.343A7.314,7.314,0,0,0,1449.3,5063.372Z" transform="translate(-1431.642 -5061.229)"/></g><g transform="translate(1482.57 5070.73)"><path class="b" d="M1580.784,5115.9v-26.726h11.072a9.354,9.354,0,1,1,0,18.708h-6.605v8.018Zm11.072-11.912a5.2,5.2,0,0,0,5.154-5.5,5.118,5.118,0,0,0-5.154-5.46h-6.681v10.958Z" transform="translate(-1580.784 -5089.135)"/><path class="b" d="M1652.964,5089.179V5109.3c0,3.054.8,4.009,3.971,3.513l.153,3.207c-5.65.916-8.247-.535-8.247-6.682v-20.159Z" transform="translate(-1625.601 -5089.135)"/><path class="b" d="M1694.008,5125.716c0,1.68-.038,2.749,1.985,2.558v2.826c-2.635.5-5.345.19-5.345-2.864v-.763a6.7,6.7,0,0,1-6.338,4.009c-5.612,0-8.323-4.505-8.323-9.7.115-6.109,4.467-9.469,10.461-9.354a18.533,18.533,0,0,1,7.559,1.718Zm-4.009-9.163a9.5,9.5,0,0,0-3.856-.764c-3.512,0-5.88,2.023-5.994,5.995,0,3.36,1.642,5.994,5.04,5.994,3.093,0,4.7-2.406,4.811-5.8Z" transform="translate(-1643.478 -5104.445)"/><path class="b" d="M1745.051,5104.977h6.376v3.36h-6.376v7.9c0,4.7,2.94,5,6.72,3.665l.42,3.131c-6.3,1.947-11.225.5-11.225-6.72v-7.979h-3.741v-3.36h3.741v-4.5h4.085Z" transform="translate(-1683.804 -5096.572)"/><path class="b" d="M1786.475,5131.116l5.345-8.361,4.009-5.8h-8.781v-3.4h14.776v.535l-5.689,8.819-3.741,5.459h9.392v3.589h-15.31Z" transform="translate(-1716.238 -5105.187)"/><path class="b" d="M1841.22,5089.051a2.463,2.463,0,1,1,.038,4.925,2.419,2.419,0,0,1-2.558-2.482A2.38,2.38,0,0,1,1841.22,5089.051Zm2.062,26.77h-4.161v-18.364h4.161Z" transform="translate(-1750.629 -5089.051)"/></g></g></svg>