<svg xmlns="http://www.w3.org/2000/svg" width="224.495" height="66.27" viewBox="0 0 224.495 66.27"><defs><style>.a{fill:#e8314a;}.b{fill:#fff;}</style></defs><g transform="translate(-1862.996 -3632.182)"><rect class="a" width="224.494" height="66.27" transform="translate(1862.996 3632.182)"/><g transform="translate(1878.519 3649.835)"><g transform="translate(28.093 7.676)"><path class="b" d="M1986.4,3716.016a11.328,11.328,0,0,1-5.452,1.147,11.849,11.849,0,0,1-4.676-.918,11.447,11.447,0,0,1-7.024-10.637v-.084a11.745,11.745,0,0,1,3.313-8.217,11.324,11.324,0,0,1,3.712-2.5,12.072,12.072,0,0,1,4.76-.917,12.266,12.266,0,0,1,5.284,1,11.838,11.838,0,0,1,3.69,2.754l-3.9,4.171a10.423,10.423,0,0,0-2.244-1.793,5.665,5.665,0,0,0-2.873-.667,4.97,4.97,0,0,0-2.2.479,5.443,5.443,0,0,0-1.719,1.314,6,6,0,0,0-1.133,1.94,6.9,6.9,0,0,0-.4,2.357v.083a7.206,7.206,0,0,0,.4,2.42,5.749,5.749,0,0,0,1.154,1.96,5.458,5.458,0,0,0,1.8,1.315,5.581,5.581,0,0,0,2.349.48,5.757,5.757,0,0,0,2.788-.647,11.738,11.738,0,0,0,2.37-1.731l3.732,3.756A14.344,14.344,0,0,1,1986.4,3716.016Z" transform="translate(-1969.249 -3693.886)"/></g><g transform="translate(52.878 7.676)"><path class="b" d="M2053.03,3710.051a11.521,11.521,0,0,1-2.558,3.692,12.132,12.132,0,0,1-3.858,2.5,12.634,12.634,0,0,1-4.864.918,12.792,12.792,0,0,1-4.824-.9,11.763,11.763,0,0,1-3.836-2.462,11.441,11.441,0,0,1-2.538-3.671,11.161,11.161,0,0,1-.922-4.526v-.084a11.167,11.167,0,0,1,.922-4.526,11.512,11.512,0,0,1,2.559-3.691,12.124,12.124,0,0,1,3.858-2.5,12.644,12.644,0,0,1,4.864-.917,12.781,12.781,0,0,1,4.823.9,11.817,11.817,0,0,1,3.836,2.461,11.469,11.469,0,0,1,2.538,3.671,11.157,11.157,0,0,1,.923,4.526v.083A11.15,11.15,0,0,1,2053.03,3710.051Zm-5.368-4.527a6.613,6.613,0,0,0-.419-2.356,5.94,5.94,0,0,0-3.1-3.316,5.66,5.66,0,0,0-2.39-.5,5.95,5.95,0,0,0-2.454.479,5.434,5.434,0,0,0-1.825,1.314,5.807,5.807,0,0,0-1.153,1.94,6.885,6.885,0,0,0-.4,2.357v.083a6.587,6.587,0,0,0,.419,2.357,5.915,5.915,0,0,0,1.217,1.961,6,6,0,0,0,1.867,1.356,5.623,5.623,0,0,0,2.411.5,5.937,5.937,0,0,0,2.453-.48,5.409,5.409,0,0,0,1.825-1.315,5.788,5.788,0,0,0,1.153-1.939,6.914,6.914,0,0,0,.4-2.357Z" transform="translate(-2029.629 -3693.886)"/></g><g transform="translate(81.646)"><path class="b" d="M2116.947,3705.639v-3.184a10.044,10.044,0,0,1-2.831,2.587,7.869,7.869,0,0,1-4.173,1.014,10.016,10.016,0,0,1-3.815-.75,9.429,9.429,0,0,1-3.271-2.232,11.1,11.1,0,0,1-2.287-3.63,13.222,13.222,0,0,1-.859-4.943v-.083a13.22,13.22,0,0,1,.859-4.942,11.314,11.314,0,0,1,2.264-3.63,9.26,9.26,0,0,1,3.251-2.232,10.158,10.158,0,0,1,3.858-.75,8.087,8.087,0,0,1,4.215.993,11.215,11.215,0,0,1,2.789,2.317v-10.987h6.375v30.452Zm.084-11.221a7.065,7.065,0,0,0-.44-2.54,6.292,6.292,0,0,0-1.174-1.974,5.218,5.218,0,0,0-5.956-1.26,5.315,5.315,0,0,0-1.741,1.26,6.132,6.132,0,0,0-1.194,1.953,7.03,7.03,0,0,0-.441,2.561v.083a7.082,7.082,0,0,0,.441,2.542,6.064,6.064,0,0,0,1.194,1.973,5.3,5.3,0,0,0,1.741,1.261,5.309,5.309,0,0,0,4.236,0,5.072,5.072,0,0,0,1.72-1.261,6.273,6.273,0,0,0,1.174-1.973,7.072,7.072,0,0,0,.44-2.542Z" transform="translate(-2099.711 -3675.187)"/></g><g transform="translate(110.708 7.676)"><path class="b" d="M2192.548,3706.9c-.013.223-.036.487-.062.793h-15.643a5.337,5.337,0,0,0,1.908,3.274,5.732,5.732,0,0,0,3.586,1.106,7.149,7.149,0,0,0,2.853-.543,9.679,9.679,0,0,0,2.6-1.752l3.648,3.212a11.3,11.3,0,0,1-3.858,3.066,12.016,12.016,0,0,1-5.327,1.106,12.874,12.874,0,0,1-4.676-.835,10.815,10.815,0,0,1-3.731-2.377,10.988,10.988,0,0,1-2.454-3.65,12.052,12.052,0,0,1-.881-4.693v-.084a12.433,12.433,0,0,1,.818-4.5,11.432,11.432,0,0,1,2.286-3.713,10.718,10.718,0,0,1,3.5-2.5,10.851,10.851,0,0,1,4.508-.917,11.013,11.013,0,0,1,4.865,1,9.9,9.9,0,0,1,3.418,2.691,11.172,11.172,0,0,1,2.012,3.879,15.982,15.982,0,0,1,.65,4.568v.083C2192.57,3706.415,2192.562,3706.678,2192.548,3706.9Zm-7.695-6.612a4.192,4.192,0,0,0-3.229-1.314,4.3,4.3,0,0,0-3.25,1.294,6.484,6.484,0,0,0-1.615,3.462h9.605A6.164,6.164,0,0,0,2184.853,3700.289Z" transform="translate(-2170.51 -3693.886)"/></g><g transform="translate(138.344 7.665)"><path class="b" d="M2251.047,3700.5a6.588,6.588,0,0,0-5.012,1.918q-1.824,1.92-1.824,5.966v8.26h-6.375v-22.36h6.375v4.505a9.289,9.289,0,0,1,2.641-3.671,6.453,6.453,0,0,1,4.53-1.251v6.633Z" transform="translate(-2237.836 -3693.861)"/></g><g transform="translate(156.838)"><path class="b" d="M2282.89,3680.819v-5.632h6.711v5.632Zm.168,24.82v-22.36h6.374v22.36Z" transform="translate(-2282.89 -3675.187)"/></g><g transform="translate(169.125 7.676)"><path class="b" d="M2336.223,3710.051a11.514,11.514,0,0,1-2.558,3.692,12.132,12.132,0,0,1-3.858,2.5,12.638,12.638,0,0,1-4.865.918,12.788,12.788,0,0,1-4.823-.9,11.767,11.767,0,0,1-3.836-2.462,11.443,11.443,0,0,1-2.537-3.671,11.15,11.15,0,0,1-.923-4.526v-.084a11.155,11.155,0,0,1,.923-4.526,11.51,11.51,0,0,1,2.558-3.691,12.132,12.132,0,0,1,3.858-2.5,12.645,12.645,0,0,1,4.864-.917,12.786,12.786,0,0,1,4.824.9,11.826,11.826,0,0,1,3.836,2.461,11.461,11.461,0,0,1,2.537,3.671,11.161,11.161,0,0,1,.923,4.526v.083A11.154,11.154,0,0,1,2336.223,3710.051Zm-5.368-4.527a6.613,6.613,0,0,0-.419-2.356,5.936,5.936,0,0,0-3.1-3.316,5.664,5.664,0,0,0-2.39-.5,5.948,5.948,0,0,0-2.453.479,5.434,5.434,0,0,0-1.825,1.314,5.8,5.8,0,0,0-1.154,1.94,6.89,6.89,0,0,0-.4,2.357v.083a6.581,6.581,0,0,0,.419,2.357,5.9,5.9,0,0,0,1.217,1.961,6,6,0,0,0,1.866,1.356,5.625,5.625,0,0,0,2.411.5,5.94,5.94,0,0,0,2.454-.48,5.41,5.41,0,0,0,1.824-1.315,5.8,5.8,0,0,0,1.153-1.939,6.925,6.925,0,0,0,.4-2.357Z" transform="translate(-2312.822 -3693.886)"/></g><g transform="translate(0 25.959)"><rect class="b" width="21.53" height="4.779"/></g></g></g></svg>