<svg xmlns="http://www.w3.org/2000/svg" width="264" height="48.99" viewBox="0 0 264 48.99"><defs><style>.a{fill:#003755;}.b{fill:#fff;}.c{fill:#d1001b;}.c,.d{fill-rule:evenodd;}.d{fill:#003958;}</style></defs><g transform="translate(-1535.384 -3951.681)"><path class="a" d="M1717.48,3986.81h-4.357l2.16-7.733Zm-10.213,8.729h3.413l1.694-6.045h5.863l1.716,6.045h3.65l-6.616-21.029h-3.24Z" transform="translate(-104.578 -13.89)"/><path class="a" d="M1750.846,3991.5h3.567l3.311,10.278,2.983-10.278h3.367l-5.4,16.4a10.147,10.147,0,0,1-2.069,3.923,4.241,4.241,0,0,1-3.074,1.064,5.34,5.34,0,0,1-1.835-.32V4010a2.782,2.782,0,0,0,1.37.365,1.736,1.736,0,0,0,1.522-.792,19.621,19.621,0,0,0,1.479-3.773Z" transform="translate(-131.093 -24.227)"/><path class="a" d="M1792.629,3974.51a1.723,1.723,0,0,1,1.342.546,2,2,0,0,1,.485,1.368,1.892,1.892,0,0,1-.5,1.375,1.688,1.688,0,0,1-1.271.517,1.631,1.631,0,0,1-1.307-.553,1.976,1.976,0,0,1-.484-1.339,1.9,1.9,0,0,1,.518-1.385A1.681,1.681,0,0,1,1792.629,3974.51Zm-1.588,6.653h3.266v14.376h-3.266Z" transform="translate(-155.459 -13.89)"/><path class="a" d="M1839.981,3991.425a4.029,4.029,0,0,1-2.851,1.181,3.816,3.816,0,0,1-2.855-1.214,4.153,4.153,0,0,1-1.177-2.994q0-2.531,2.77-4.421ZM1831,3985.4a6.25,6.25,0,0,0-1.116,3.652,6.046,6.046,0,0,0,1.812,4.479,6.438,6.438,0,0,0,4.735,1.806,7.26,7.26,0,0,0,4.7-1.813l.85,1.529h3.553l-2.211-4a16.181,16.181,0,0,0,1.87-7.971h-3.213a34.567,34.567,0,0,1-.347,4.915l-3.584-6.5a7.663,7.663,0,0,1-1.29-3.169,1.71,1.71,0,0,1,.695-1.47,2.852,2.852,0,0,1,1.714-.5,5.072,5.072,0,0,1,2.465.812v-2.967a9.976,9.976,0,0,0-2.877-.485,5.826,5.826,0,0,0-3.879,1.213,3.794,3.794,0,0,0-1.442,3.018,9.03,9.03,0,0,0,1.405,4.186A12.823,12.823,0,0,0,1831,3985.4Z" transform="translate(-179.181 -13.399)"/><path class="a" d="M1936.711,4001.39a8.841,8.841,0,0,0,4.871,1.766,4.334,4.334,0,0,0,2.317-.562,1.638,1.638,0,0,0,.909-1.411,1.384,1.384,0,0,0-.783-1.219,10.414,10.414,0,0,0-2.688-.881q-4.627-1.057-4.625-3.879a3.772,3.772,0,0,1,1.716-3.181,7.1,7.1,0,0,1,4.285-1.243,11.358,11.358,0,0,1,4.484,1.121v3.084a7.863,7.863,0,0,0-4.347-1.76,4.168,4.168,0,0,0-2,.46,1.391,1.391,0,0,0-.874,1.258,1.184,1.184,0,0,0,.707,1.045,12.03,12.03,0,0,0,2.65.889,10.224,10.224,0,0,1,3.522,1.459,2.974,2.974,0,0,1,1.216,2.542,4.166,4.166,0,0,1-1.805,3.5,7.232,7.232,0,0,1-4.45,1.349,11.526,11.526,0,0,1-5.105-1.284Z" transform="translate(-244.178 -23.789)"/><path class="a" d="M1980.295,3994.568a7.3,7.3,0,0,1-.052,7.359,3.1,3.1,0,0,1-2.588,1.351,3.02,3.02,0,0,1-2.523-1.351,5.7,5.7,0,0,1-.99-3.479,6.783,6.783,0,0,1,.957-3.843,3.159,3.159,0,0,1,2.781-1.423A2.889,2.889,0,0,1,1980.295,3994.568Zm-7.564-1.636a8.7,8.7,0,0,0-.065,10.645,6.155,6.155,0,0,0,5,2.146,6.272,6.272,0,0,0,5.029-2.118,7.873,7.873,0,0,0,1.833-5.35,7.663,7.663,0,0,0-1.9-5.42,6.581,6.581,0,0,0-5.091-2.055A6.028,6.028,0,0,0,1972.73,3992.931Z" transform="translate(-264.968 -23.789)"/><path class="a" d="M2022.19,4004.787a8.509,8.509,0,0,1-3.8.936,6.521,6.521,0,0,1-4.976-2.034,7.361,7.361,0,0,1-1.908-5.227,7.766,7.766,0,0,1,2.031-5.507,6.612,6.612,0,0,1,5.056-2.176,9.285,9.285,0,0,1,3.6.842v3.075a5.463,5.463,0,0,0-3.093-1.314,3.913,3.913,0,0,0-3.111,1.411,5.642,5.642,0,0,0-.028,6.947,3.674,3.674,0,0,0,2.864,1.375,5.669,5.669,0,0,0,3.368-1.328Z" transform="translate(-289.685 -23.789)"/><path class="a" d="M2047.333,3974.51a1.724,1.724,0,0,1,1.346.546,1.992,1.992,0,0,1,.479,1.368,1.89,1.89,0,0,1-.5,1.375,1.688,1.688,0,0,1-1.273.517,1.628,1.628,0,0,1-1.3-.553,1.935,1.935,0,0,1-.483-1.339,1.9,1.9,0,0,1,.518-1.385A1.678,1.678,0,0,1,2047.333,3974.51Zm-1.586,6.653h3.272v14.376h-3.272Z" transform="translate(-310.429 -13.89)"/><path class="a" d="M2069.53,4000.065a3.548,3.548,0,0,1-.734,2.381,2.4,2.4,0,0,1-1.908.867,2.279,2.279,0,0,1-1.639-.622,2.083,2.083,0,0,1-.648-1.545,2.117,2.117,0,0,1,.956-1.773,9.036,9.036,0,0,1,3.973-.984Zm-6.78-5.141a7.117,7.117,0,0,1,4.012-1.618,2.921,2.921,0,0,1,2.024.68,2.323,2.323,0,0,1,.744,1.784v.416q-8.194.525-8.2,4.987a4.461,4.461,0,0,0,1.3,3.219,4.571,4.571,0,0,0,3.432,1.331,4.116,4.116,0,0,0,1.978-.493,5.716,5.716,0,0,0,1.683-1.454c.1,1.242,1.021,1.865,2.76,1.865a11.859,11.859,0,0,0,2.066-.192v-2.5a1.657,1.657,0,0,1-.933.286c-.547,0-.817-.308-.817-.923v-7.12a4.022,4.022,0,0,0-.744-2.409,4.528,4.528,0,0,0-1.873-1.512,6.466,6.466,0,0,0-2.621-.491,10.938,10.938,0,0,0-4.812,1.18Z" transform="translate(-320.002 -23.789)"/><path class="a" d="M2108.613,3988.683a5.757,5.757,0,0,1-.867,3.189,2.649,2.649,0,0,1-2.327,1.344,2.577,2.577,0,0,1-2.272-1.4,6.268,6.268,0,0,1-.873-3.4,6.169,6.169,0,0,1,.959-3.5,2.932,2.932,0,0,1,3.968-1.061,5.314,5.314,0,0,1,1.411,1.137Zm0-6.418a5.925,5.925,0,0,0-1.671-1.039,4.9,4.9,0,0,0-1.812-.346,5.291,5.291,0,0,0-4.42,2.287,8.8,8.8,0,0,0-1.706,5.4,8.573,8.573,0,0,0,1.535,5.114,4.758,4.758,0,0,0,4.058,2.146,4.39,4.39,0,0,0,2.2-.562,5.243,5.243,0,0,0,1.743-1.66l.224,1.938h3.123V3974.51h-3.274Z" transform="translate(-342.922 -13.89)"/><path class="a" d="M2149.321,3994.568a7.29,7.29,0,0,1-.049,7.359,3.121,3.121,0,0,1-2.588,1.351,3.021,3.021,0,0,1-2.527-1.351,5.741,5.741,0,0,1-.989-3.479,6.728,6.728,0,0,1,.967-3.843,3.124,3.124,0,0,1,2.77-1.423A2.878,2.878,0,0,1,2149.321,3994.568Zm-7.564-1.636a8.668,8.668,0,0,0-.064,10.645,6.151,6.151,0,0,0,5,2.146,6.283,6.283,0,0,0,5.031-2.118,7.865,7.865,0,0,0,1.831-5.35,7.674,7.674,0,0,0-1.9-5.42,6.613,6.613,0,0,0-5.1-2.055A6.046,6.046,0,0,0,2141.757,3992.931Z" transform="translate(-367.803 -23.789)"/><path class="a" d="M2180.57,4001.39a8.842,8.842,0,0,0,4.869,1.766,4.363,4.363,0,0,0,2.32-.562,1.651,1.651,0,0,0,.907-1.411,1.4,1.4,0,0,0-.783-1.219,10.5,10.5,0,0,0-2.69-.881q-4.628-1.057-4.623-3.879a3.78,3.78,0,0,1,1.709-3.181,7.112,7.112,0,0,1,4.294-1.243,11.3,11.3,0,0,1,4.474,1.121v3.084a7.829,7.829,0,0,0-4.345-1.76,4.181,4.181,0,0,0-2,.46,1.389,1.389,0,0,0-.865,1.258,1.172,1.172,0,0,0,.706,1.045,11.929,11.929,0,0,0,2.652.889,10.273,10.273,0,0,1,3.518,1.459,2.99,2.99,0,0,1,1.22,2.542,4.165,4.165,0,0,1-1.807,3.5,7.253,7.253,0,0,1-4.459,1.349,11.513,11.513,0,0,1-5.1-1.284Z" transform="translate(-392.549 -23.789)"/><path class="a" d="M1906,3999.315a3.547,3.547,0,0,1-.734,2.38,2.4,2.4,0,0,1-1.908.868,2.277,2.277,0,0,1-1.639-.624,2.078,2.078,0,0,1-.648-1.544,2.116,2.116,0,0,1,.957-1.774,9.027,9.027,0,0,1,3.972-.984Zm-6.78-5.141a7.123,7.123,0,0,1,4.012-1.619,2.913,2.913,0,0,1,2.024.681,2.322,2.322,0,0,1,.744,1.785v.415q-8.194.525-8.2,4.987a4.459,4.459,0,0,0,1.3,3.218,4.568,4.568,0,0,0,3.432,1.331,4.114,4.114,0,0,0,1.978-.493,5.718,5.718,0,0,0,1.683-1.454c.1,1.241,1.021,1.865,2.761,1.865a11.821,11.821,0,0,0,2.067-.192v-2.5a1.663,1.663,0,0,1-.933.287c-.547,0-.817-.308-.817-.923v-7.12a4.022,4.022,0,0,0-.744-2.409,4.532,4.532,0,0,0-1.873-1.513,6.474,6.474,0,0,0-2.621-.491,10.954,10.954,0,0,0-4.812,1.18Z" transform="translate(-220.509 -23.332)"/><path class="b" d="M1590.839,3996.041l-45.037,9.79-10.418-5.966v-29.041l23.229-7.542,32.232,7.542Z" transform="translate(0 -7.059)"/><path class="c" d="M1590.856,4040.358v-4.268c-1.461.4-2.745.8-4.215,1.181-7.5,1.776-12.077,1.578-13.909-.979a18.19,18.19,0,0,1-5.672,4.921,29.488,29.488,0,0,1-7.87,2.953,39.42,39.42,0,0,1-16.291.976c-3.3-.583-5.859-1.568-7.508-3.148v5.429a4.065,4.065,0,0,0,3.046,3.629,51.736,51.736,0,0,0,16.358.593c7.69-.988,15.011-3.152,20.688-6.894a52.151,52.151,0,0,0,12.339-.8A3.791,3.791,0,0,0,1590.856,4040.358Z" transform="translate(-0.004 -51.357)"/><path class="d" d="M1587.6,3951.681h-48.912a3.746,3.746,0,0,0-3.3,3.731v9.65a107.2,107.2,0,0,1,13.364-4.526,54.326,54.326,0,0,1,11.9-1.573,30.759,30.759,0,0,1,9.7.978c2.743.987,4.759,2.365,5.856,4.331l7.868,14.561c.737,1.187,2.2,1.579,4.581.988a9.637,9.637,0,0,0,2.195-.788V3955.5C1590.7,3951.826,1587.6,3951.681,1587.6,3951.681Z" transform="translate(-0.004 0)"/><path class="d" d="M1584.59,4008.966c-8.607,2.554-13.915,4.521-16.108,6.3-2.2,1.577-2.93,3.145-2.2,4.524s2.2,2.165,4.577,2.558a21.686,21.686,0,0,0,7.873-.393,14.04,14.04,0,0,0,7.134-3.74,4.746,4.746,0,0,0,.553-5.71Z" transform="translate(-18.633 -34.854)"/><path class="d" d="M1535.391,4003.3v-9.246a42.57,42.57,0,0,1,12.812-5.7,23.923,23.923,0,0,1,9.524-.8c2.744.391,4.389,1.38,5.305,2.955l.548.784c-14.644,4.136-23.976,8.065-28.188,12Z" transform="translate(-0.004 -21.716)"/></g></svg>