<svg xmlns="http://www.w3.org/2000/svg" width="184.663" height="86.063" viewBox="0 0 184.663 86.063"><defs><style>.a{fill:#678f2e;}</style></defs><g transform="translate(-1625.197 -4129.726)"><path class="a" d="M1630.163,4175.977c-2.688,0-4.077-1.729-3.521-4.912l.865-4.976c.277-1.389.248-2.656-1.051-2.933-.34-.063-.525-.216-.464-.587l.371-2.44c.032-.279.248-.433.556-.5,1.36-.309,2.1-1.853,2.316-3.276l.867-4.941c.585-3.339,2.008-4.6,4.941-4.6h1.639c.34,0,.525.216.493.585l-.493,2.875a.529.529,0,0,1-.588.464h-.525a1.679,1.679,0,0,0-1.576,1.576l-.9,4.973a5.385,5.385,0,0,1-3.152,4.232c1.112.432,2.008,2.287,1.637,4.327l-.865,4.973c-.155.927.063,1.236.8,1.236h.741a.453.453,0,0,1,.464.588l-.525,2.873a.5.5,0,0,1-.556.463Z" transform="translate(-0.484 -10.573)"/><path class="a" d="M1672.83,4164.278c-6.272,0-9.732-4.282-8.737-10.034l.907-4.975a9.985,9.985,0,0,1,9.993-8.649,9.376,9.376,0,0,1,4.194.907l1.427-8.046a.759.759,0,0,1,.779-.691h5.018a.643.643,0,0,1,.691.822l-4.973,28.289a.868.868,0,0,1-.648.777,24.777,24.777,0,0,1-8.651,1.6m.605-5.752a7.9,7.9,0,0,0,2.854-.475l1.947-11.16a5.268,5.268,0,0,0-2.854-.736c-2.078,0-3.417,1.3-3.895,3.935l-.822,4.628c-.518,2.727.432,3.807,2.769,3.807" transform="translate(-23.963 -1.896)"/><path class="a" d="M1746.012,4153.327c5.536,0,9.473,2.94,8.3,9.3l-.736,4.2a.722.722,0,0,1-.779.648h-12.024l-.13.605c-.432,2.292.605,3.417,2.985,3.417a11.265,11.265,0,0,0,5.624-1.731c.432-.3.779-.259.995.216l1.771,3.33c.173.434.131.824-.259,1.04a15.561,15.561,0,0,1-9.039,2.639c-5.666,0-9.6-3.46-8.609-9.084l1.126-6.271c1.038-5.667,5.535-8.3,10.77-8.3m2.076,8.737c.3-1.729-.432-3.244-2.638-3.244a3.6,3.6,0,0,0-3.676,3.159l-.216,1.166h6.315Z" transform="translate(-67.303 -14.604)"/><path class="a" d="M1807.2,4176.986a13.184,13.184,0,0,1-8.78-2.9.686.686,0,0,1-.13-1.04l2.465-3.373a.688.688,0,0,1,1.038-.173,9.245,9.245,0,0,0,5.623,1.86c2.076,0,3.113-.648,3.33-1.644.3-1.341-1.211-1.687-2.94-2.075-4.239-.865-7.614-3.418-6.661-8.089.91-4.37,4.543-6.229,9.775-6.229a14.383,14.383,0,0,1,7.614,1.99.634.634,0,0,1,.173,1.038l-2.553,3.417a.714.714,0,0,1-1.038.216,9.509,9.509,0,0,0-4.8-1.168c-1.6,0-2.6.346-2.766,1.427-.261,1.3,1.123,1.688,3.2,2.163,3.332.736,7.483,2.812,6.576,7.873-.865,4.583-4.714,6.7-10.122,6.7" transform="translate(-106.996 -14.603)"/><path class="a" d="M1871.394,4176.987c-6.055,0-9.126-3.46-8.262-8.176.736-4.194,4.282-6.054,9.82-6.054a19.322,19.322,0,0,1,3.676.345l.085-.691c.39-2.121-.216-3.287-2.94-3.287a12.993,12.993,0,0,0-5.148.993c-.475.218-.822.13-1-.344l-1.339-3.548c-.131-.389-.131-.691.128-.864a17.875,17.875,0,0,1,8.825-2.033c5.883,0,8.911,3.892,7.742,10.38l-1.947,10.943a.988.988,0,0,1-.648.822,27.951,27.951,0,0,1-9,1.515m.822-5.408a15.271,15.271,0,0,0,2.985-.347l.606-3.761a13.854,13.854,0,0,0-2.769-.3c-2.118,0-3.244.694-3.46,1.99-.3,1.644.736,2.422,2.638,2.422" transform="translate(-147.142 -14.604)"/><path class="a" d="M1943.72,4137.026c-1.816,0-2.855,1-3.244,3.028l-.131.865h3.807c.477,0,.736.3.693.821l-.693,3.98a.77.77,0,0,1-.822.691h-3.98l-2.81,15.7a.707.707,0,0,1-.779.691h-5.018a.643.643,0,0,1-.691-.822l4.021-22.534c.952-5.365,4.2-8.131,9.561-8.131a16.89,16.89,0,0,1,2.724.173.693.693,0,0,1,.606.907l-.736,4.109c-.043.52-.3.693-.691.65a12.2,12.2,0,0,0-1.817-.13" transform="translate(-188.63 -0.984)"/><path class="a" d="M1976.921,4161.821a.661.661,0,0,1-.691-.824l3.719-21.02a.739.739,0,0,1,.822-.647h5.018a.627.627,0,0,1,.691.776l-3.762,21.021a.76.76,0,0,1-.779.693Zm4.2-25.045c-.648,0-.822-.432-.432-.907l4.629-5.711a1.167,1.167,0,0,1,.95-.432h4.5c.648,0,.865.477.387.952l-5.752,5.709a1.046,1.046,0,0,1-.907.389Z" transform="translate(-217.204)"/><path class="a" d="M2024.559,4176.986c-5.795,0-9.3-4.325-8.3-9.817l.909-5.365c.952-5.234,5.189-8.478,11.2-8.478,5.925,0,9.385,4.37,8.478,9.646l-.995,5.45c-1,5.451-4.93,8.564-11.29,8.564m.736-5.667a3.683,3.683,0,0,0,3.98-3.244l.995-5.535c.345-1.947-.562-3.548-2.641-3.548a3.778,3.778,0,0,0-3.892,3.245l-.995,5.58c-.39,2.119.52,3.5,2.553,3.5" transform="translate(-241.876 -14.603)"/><path class="a" d="M2086.947,4146.73c2.688,0,4.08,1.729,3.523,4.912l-.867,4.975c-.277,1.389-.248,2.656,1.051,2.934.34.063.525.216.464.587l-.372,2.44c-.031.279-.247.432-.556.5-1.36.309-2.1,1.853-2.317,3.275l-.867,4.941c-.585,3.339-2.008,4.6-4.941,4.6h-1.639c-.34,0-.525-.216-.493-.588l.493-2.872a.529.529,0,0,1,.588-.464h.524a1.679,1.679,0,0,0,1.576-1.576l.9-4.973a5.389,5.389,0,0,1,3.152-4.232c-1.112-.432-2.008-2.287-1.637-4.327l.865-4.973c.155-.928-.061-1.236-.8-1.236h-.741a.454.454,0,0,1-.464-.587l.525-2.873a.5.5,0,0,1,.556-.463Z" transform="translate(-281.382 -10.522)"/><path d="M1651.051,4250.424c-3.336,0-5.068-2.627-4.388-6.643l2.72-15.354a.542.542,0,0,1,.556-.5h3.584a.454.454,0,0,1,.464.588l-2.72,15.508c-.277,1.483.092,2.318,1.2,2.318h.619c.369-.031.556.122.493.493l-.493,2.936c-.063.309-.187.464-.4.493a7.8,7.8,0,0,1-1.636.155" transform="translate(-13.192 -60.768)"/><path d="M1680.675,4259.5c-4.325,0-6.517-2.472-5.9-5.84.525-3,3.059-4.325,7.012-4.325a13.893,13.893,0,0,1,2.627.246l.061-.493c.279-1.515-.153-2.349-2.1-2.349a9.274,9.274,0,0,0-3.676.71c-.34.155-.588.092-.711-.245l-.957-2.535c-.092-.277-.092-.5.092-.617a12.754,12.754,0,0,1,6.3-1.452c4.2,0,6.364,2.78,5.529,7.413l-1.389,7.816a.713.713,0,0,1-.464.588,19.915,19.915,0,0,1-6.427,1.083m.587-3.863a10.954,10.954,0,0,0,2.132-.247l.432-2.688a9.9,9.9,0,0,0-1.977-.216c-1.515,0-2.319.5-2.472,1.422-.216,1.173.525,1.729,1.884,1.729" transform="translate(-30.614 -69.847)"/><path d="M1730.294,4241.762l-1.051,5.963c-.245,1.389.247,2.131,1.515,2.131h.833c.371-.031.588.124.5.525l-.5,2.873a.565.565,0,0,1-.525.527,8.586,8.586,0,0,1-1.576.153c-3.429,0-5.623-2.069-4.82-6.581l2.318-13.252a.548.548,0,0,1,.586-.5h3.028a.471.471,0,0,1,.526.556l-.187,3.677h2.472a.461.461,0,0,1,.5.587l-.5,2.843a.53.53,0,0,1-.588.494Z" transform="translate(-61.45 -64.279)"/><path d="M1761.145,4259.5c-4.325,0-6.517-2.472-5.9-5.84.525-3,3.06-4.325,7.013-4.325a13.893,13.893,0,0,1,2.627.246l.061-.493c.279-1.515-.153-2.349-2.1-2.349a9.275,9.275,0,0,0-3.677.71c-.34.155-.587.092-.711-.245l-.957-2.535c-.092-.277-.092-.5.092-.617a12.752,12.752,0,0,1,6.3-1.452c4.2,0,6.364,2.78,5.529,7.413l-1.389,7.816a.713.713,0,0,1-.464.588,19.929,19.929,0,0,1-6.427,1.083m.588-3.863a10.958,10.958,0,0,0,2.132-.247l.432-2.688a9.9,9.9,0,0,0-1.977-.216c-1.515,0-2.319.5-2.472,1.422-.216,1.173.524,1.729,1.884,1.729" transform="translate(-80.408 -69.847)"/><path d="M1820.469,4242.6c4.264,0,6.427,3.152,5.684,7.54l-1.544,8.464a.524.524,0,0,1-.556.5h-3.492c-.371,0-.525-.248-.493-.587l1.574-9.022c.34-1.977-.37-2.841-1.853-2.841a4.487,4.487,0,0,0-2.069.556,8.612,8.612,0,0,1-.032,2.936l-1.515,8.464a.521.521,0,0,1-.556.5h-3.489a.461.461,0,0,1-.5-.587l1.576-9.022c.34-1.977-.309-2.841-1.7-2.841a4.244,4.244,0,0,0-1.792.372l-2.1,11.584a.521.521,0,0,1-.556.5h-3.553c-.34,0-.526-.218-.464-.587l2.564-14.12a.753.753,0,0,1,.464-.556,16.252,16.252,0,0,1,5.993-1.236,6.062,6.062,0,0,1,3.831,1.236,9.867,9.867,0,0,1,4.572-1.236" transform="translate(-110.042 -69.845)"/><path d="M1886.076,4290.393a.524.524,0,0,1-.556.5H1871.74a.454.454,0,0,1-.464-.587l.5-2.873a.5.5,0,0,1,.556-.5h13.78a.451.451,0,0,1,.493.588Z" transform="translate(-152.263 -97.277)"/><g transform="translate(1625.197 4202.442)"><path d="M1632.481,4330.9a.162.162,0,0,1-.175-.146l-.379-2.6h-4.055l-1.313,2.626a.234.234,0,0,1-.2.117h-1.021c-.131,0-.161-.073-.117-.19l5.178-10.123a.206.206,0,0,1,.2-.117h1.138a.153.153,0,0,1,.175.146l1.648,10.108a.141.141,0,0,1-.146.175Zm-1.532-9.059-2.538,5.208h3.34l-.758-5.208Z" transform="translate(-1625.197 -4320.473)"/><path d="M1652.967,4335.491a2.384,2.384,0,0,1-2.524-3.063l.365-2.086a3.248,3.248,0,0,1,3.37-2.713,3.687,3.687,0,0,1,2.246.759c.073.058.073.131.014.218l-.452.583a.146.146,0,0,1-.219.029,2.8,2.8,0,0,0-1.663-.54,2.032,2.032,0,0,0-2.115,1.721l-.379,2.1c-.219,1.24.379,1.954,1.459,1.954a3.677,3.677,0,0,0,1.984-.671.131.131,0,0,1,.219.044l.365.642a.169.169,0,0,1-.058.234A4.665,4.665,0,0,1,1652.967,4335.491Z" transform="translate(-1640.782 -4324.901)"/><path d="M1669.414,4335.491c-1.561,0-2.917-.9-2.582-2.626.263-1.415,1.619-2.085,3.3-2.085a9,9,0,0,1,1.78.189l.117-.627c.19-1.065-.161-1.663-1.458-1.663a4.183,4.183,0,0,0-2.1.569.124.124,0,0,1-.2-.073l-.277-.627c-.029-.088-.029-.16.044-.2a5.144,5.144,0,0,1,2.713-.714c1.823,0,2.757,1.123,2.45,2.786l-.758,4.39a.272.272,0,0,1-.132.175A9.13,9.13,0,0,1,1669.414,4335.491Zm.088-1.05a7.165,7.165,0,0,0,1.852-.263l.379-2.188a9.081,9.081,0,0,0-1.648-.175c-1.225,0-1.94.423-2.086,1.2C1667.824,4333.974,1668.48,4334.441,1669.5,4334.441Z" transform="translate(-1650.928 -4324.901)"/><path d="M1689.436,4331.063c-2.232,0-2.976-1.415-2.684-3.224l.277-1.634a3.362,3.362,0,0,1,3.428-3,3.882,3.882,0,0,1,1.867.467l.539-3.049a.164.164,0,0,1,.175-.146h.86a.141.141,0,0,1,.146.175l-1.721,9.729a.223.223,0,0,1-.132.175A7.612,7.612,0,0,1,1689.436,4331.063Zm.1-1.051a4.249,4.249,0,0,0,1.721-.321l.89-4.974a3.451,3.451,0,0,0-1.692-.467,2.16,2.16,0,0,0-2.246,2.042l-.277,1.648C1687.671,4329.459,1688.225,4330.013,1689.538,4330.013Z" transform="translate(-1663.249 -4320.473)"/><path d="M1710.593,4327.629c1.75,0,2.961.962,2.6,2.888l-.263,1.458a.154.154,0,0,1-.175.146h-4.7l-.116.627c-.233,1.123.467,1.706,1.546,1.706a4.029,4.029,0,0,0,2.349-.86.13.13,0,0,1,.219.029l.379.6c.044.088.044.175-.043.22a4.851,4.851,0,0,1-3.049,1.05c-1.561,0-2.917-.963-2.567-2.771l.423-2.378A3.289,3.289,0,0,1,1710.593,4327.629Zm1.473,2.8c.233-1.226-.5-1.75-1.561-1.75a2.064,2.064,0,0,0-2.13,1.75l-.131.7h3.69Z" transform="translate(-1675.639 -4324.901)"/><path d="M1733.786,4327.629c1.9,0,2.874,1.211,2.538,3.121l-.8,4.435a.15.15,0,0,1-.16.146h-.861a.141.141,0,0,1-.146-.175l.8-4.478c.233-1.415-.321-2.013-1.474-2a3.5,3.5,0,0,0-1.692.467,3.178,3.178,0,0,1,.058,1.546l-.8,4.492a.173.173,0,0,1-.175.146h-.861a.141.141,0,0,1-.146-.175l.817-4.551c.219-1.328-.248-1.925-1.327-1.925a3.878,3.878,0,0,0-1.532.321l-1.138,6.185a.154.154,0,0,1-.175.146h-.846c-.117,0-.161-.073-.146-.175l1.24-6.812a.246.246,0,0,1,.146-.175,6.4,6.4,0,0,1,2.538-.539,2.474,2.474,0,0,1,1.809.627A4.917,4.917,0,0,1,1733.786,4327.629Z" transform="translate(-1687.397 -4324.901)"/><path d="M1756.544,4331c-.117,0-.175-.073-.146-.175l1.283-7.221a.175.175,0,0,1,.175-.146h.861a.135.135,0,0,1,.146.175l-1.3,7.221a.15.15,0,0,1-.16.146Zm2.013-8.956a.632.632,0,0,1-.642-.788.75.75,0,0,1,.744-.627.63.63,0,0,1,.656.788A.768.768,0,0,1,1758.558,4322.041Z" transform="translate(-1706.378 -4320.568)"/><path d="M1766.792,4335.491c-1.561,0-2.917-.9-2.582-2.626.263-1.415,1.619-2.085,3.3-2.085a9,9,0,0,1,1.78.189l.117-.627c.189-1.065-.16-1.663-1.459-1.663a4.182,4.182,0,0,0-2.1.569.124.124,0,0,1-.2-.073l-.277-.627c-.03-.088-.03-.16.043-.2a5.146,5.146,0,0,1,2.713-.714c1.823,0,2.757,1.123,2.45,2.786l-.759,4.39a.27.27,0,0,1-.131.175A9.132,9.132,0,0,1,1766.792,4335.491Zm.087-1.05a7.169,7.169,0,0,0,1.853-.263l.379-2.188a9.071,9.071,0,0,0-1.648-.175c-1.226,0-1.94.423-2.086,1.2C1765.2,4333.974,1765.858,4334.441,1766.879,4334.441Z" transform="translate(-1711.184 -4324.901)"/><path d="M1795.193,4331.063c-2.232,0-2.975-1.415-2.684-3.224l.277-1.634a3.362,3.362,0,0,1,3.428-3,3.878,3.878,0,0,1,1.867.467l.54-3.049a.164.164,0,0,1,.175-.146h.861a.141.141,0,0,1,.146.175l-1.722,9.729a.223.223,0,0,1-.131.175A7.613,7.613,0,0,1,1795.193,4331.063Zm.1-1.051a4.251,4.251,0,0,0,1.721-.321l.89-4.974a3.454,3.454,0,0,0-1.692-.467,2.16,2.16,0,0,0-2.247,2.042l-.277,1.648C1793.428,4329.459,1793.982,4330.013,1795.295,4330.013Z" transform="translate(-1728.69 -4320.473)"/><path d="M1816.349,4327.629c1.751,0,2.961.962,2.6,2.888l-.263,1.458a.154.154,0,0,1-.175.146h-4.7l-.117.627c-.233,1.123.467,1.706,1.546,1.706a4.029,4.029,0,0,0,2.349-.86.13.13,0,0,1,.219.029l.379.6c.044.088.044.175-.043.22a4.85,4.85,0,0,1-3.049,1.05c-1.561,0-2.917-.963-2.567-2.771l.423-2.378A3.288,3.288,0,0,1,1816.349,4327.629Zm1.474,2.8c.233-1.226-.5-1.75-1.561-1.75a2.064,2.064,0,0,0-2.13,1.75l-.131.7h3.69Z" transform="translate(-1741.08 -4324.901)"/><path d="M1842.68,4326.166l-.715,4.07c-.16.963.16,1.474.977,1.474.117,0,.35-.015.554-.015.1,0,.16.044.132.161l-.117.714a.172.172,0,0,1-.16.146c-.175.014-.409.029-.54.029-1.3,0-2.334-.8-2.013-2.612l1.211-6.8a.163.163,0,0,1,.175-.146h.686a.136.136,0,0,1,.146.161l-.175,1.765h1.619c.116,0,.16.073.146.175l-.131.715a.165.165,0,0,1-.175.16Z" transform="translate(-1758.572 -4322.154)"/><path d="M1853.3,4335.491c-1.561,0-2.917-.9-2.582-2.626.262-1.415,1.619-2.085,3.3-2.085a9,9,0,0,1,1.78.189l.117-.627c.189-1.065-.161-1.663-1.459-1.663a4.182,4.182,0,0,0-2.1.569.124.124,0,0,1-.2-.073l-.277-.627c-.029-.088-.029-.16.044-.2a5.145,5.145,0,0,1,2.713-.714c1.823,0,2.757,1.123,2.451,2.786l-.759,4.39a.27.27,0,0,1-.131.175A9.133,9.133,0,0,1,1853.3,4335.491Zm.088-1.05a7.165,7.165,0,0,0,1.852-.263l.379-2.188a9.077,9.077,0,0,0-1.648-.175c-1.225,0-1.94.423-2.086,1.2C1851.713,4333.974,1852.369,4334.441,1853.39,4334.441Z" transform="translate(-1764.716 -4324.901)"/><path d="M1872.629,4331.063c-1.327,0-1.984-.948-1.648-2.815l1.342-7.629a.155.155,0,0,1,.175-.146h.861a.141.141,0,0,1,.146.175l-1.357,7.687c-.19,1.094.029,1.648.685,1.648.175,0,.379,0,.554-.014.117-.014.175.029.146.161l-.117.743c-.014.088-.073.132-.175.146A4.721,4.721,0,0,1,1872.629,4331.063Z" transform="translate(-1777.23 -4320.473)"/><path d="M1884.379,4327.629c1.751,0,2.961.962,2.6,2.888l-.262,1.458a.155.155,0,0,1-.175.146h-4.7l-.117.627c-.233,1.123.467,1.706,1.546,1.706a4.029,4.029,0,0,0,2.349-.86.13.13,0,0,1,.219.029l.379.6c.043.088.043.175-.044.22a4.849,4.849,0,0,1-3.049,1.05c-1.561,0-2.917-.963-2.567-2.771l.423-2.378A3.288,3.288,0,0,1,1884.379,4327.629Zm1.473,2.8c.233-1.226-.5-1.75-1.561-1.75a2.064,2.064,0,0,0-2.13,1.75l-.131.7h3.69Z" transform="translate(-1783.176 -4324.901)"/><path d="M1899.631,4335.331a.127.127,0,0,1-.131-.175l1.24-6.812a.234.234,0,0,1,.131-.175,7.7,7.7,0,0,1,2.771-.539,2.438,2.438,0,0,1,2.626,3.18l-.788,4.376a.164.164,0,0,1-.175.146h-.86a.141.141,0,0,1-.146-.175l.788-4.435c.277-1.458-.335-2.042-1.546-2.042a5.2,5.2,0,0,0-1.736.306l-1.137,6.2c0,.1-.073.146-.175.146Z" transform="translate(-1794.927 -4324.901)"/><path d="M1922.916,4326.166l-.715,4.07c-.161.963.161,1.474.977,1.474.117,0,.35-.015.554-.015.1,0,.161.044.132.161l-.117.714a.172.172,0,0,1-.16.146c-.175.014-.409.029-.54.029-1.3,0-2.334-.8-2.013-2.612l1.211-6.8a.163.163,0,0,1,.175-.146h.685a.136.136,0,0,1,.146.161l-.175,1.765h1.619c.117,0,.16.073.146.175l-.131.715a.165.165,0,0,1-.175.16Z" transform="translate(-1808.22 -4322.154)"/><path d="M1934.193,4335.491a2.435,2.435,0,0,1-2.553-3.034l.379-2.1a3.392,3.392,0,0,1,3.5-2.728,2.429,2.429,0,0,1,2.567,3l-.379,2.086A3.361,3.361,0,0,1,1934.193,4335.491Zm.1-1.05a2.1,2.1,0,0,0,2.232-1.795l.379-2.1a1.443,1.443,0,0,0-1.517-1.867,2.137,2.137,0,0,0-2.2,1.78l-.365,2.1C1932.633,4333.653,1933.1,4334.441,1934.3,4334.441Z" transform="translate(-1814.786 -4324.901)"/><path d="M1952.894,4335.491a3.965,3.965,0,0,1-2.742-.978.16.16,0,0,1-.029-.219l.423-.583a.138.138,0,0,1,.219-.029,3.3,3.3,0,0,0,2.2.772c1.08,0,1.765-.423,1.9-1.108.175-.817-.584-1.05-1.5-1.3s-2.64-.918-2.334-2.552c.248-1.342,1.634-1.867,3.063-1.867a4.384,4.384,0,0,1,2.45.7c.088.044.088.131.029.219l-.467.627a.16.16,0,0,1-.219.044,3.432,3.432,0,0,0-1.926-.54c-.933,0-1.663.321-1.779,1.006-.131.832.831,1.138,1.634,1.342,1.415.35,2.479,1.109,2.232,2.466C1955.782,4334.879,1954.4,4335.491,1952.894,4335.491Z" transform="translate(-1826.237 -4324.901)"/><path d="M1980.268,4331.063c-2.232,0-2.976-1.415-2.684-3.224l.277-1.634a3.363,3.363,0,0,1,3.428-3,3.881,3.881,0,0,1,1.867.467l.54-3.049a.163.163,0,0,1,.175-.146h.861a.141.141,0,0,1,.146.175l-1.721,9.729a.223.223,0,0,1-.131.175A7.614,7.614,0,0,1,1980.268,4331.063Zm.1-1.051a4.25,4.25,0,0,0,1.721-.321l.89-4.974a3.453,3.453,0,0,0-1.692-.467,2.159,2.159,0,0,0-2.246,2.042l-.277,1.648C1978.5,4329.459,1979.057,4330.013,1980.37,4330.013Z" transform="translate(-1843.211 -4320.473)"/><path d="M1997.367,4331c-.117,0-.175-.073-.146-.175l1.284-7.221a.175.175,0,0,1,.175-.146h.861a.135.135,0,0,1,.146.175l-1.3,7.221a.15.15,0,0,1-.161.146Zm2.013-8.956a.632.632,0,0,1-.642-.788.75.75,0,0,1,.744-.627.63.63,0,0,1,.656.788A.767.767,0,0,1,1999.381,4322.041Z" transform="translate(-1855.396 -4320.568)"/><path d="M2007.149,4338.248a3.409,3.409,0,0,1-2.582-1.006c-.073-.073-.073-.131,0-.219l.452-.583a.144.144,0,0,1,.233-.03,2.772,2.772,0,0,0,1.94.745c1.284,0,2.013-.745,2.232-2.145l.058-.306a4.648,4.648,0,0,1-1.78.379c-1.867,0-2.888-1.094-2.553-3.092l.263-1.517a3.294,3.294,0,0,1,3.588-2.844,5.058,5.058,0,0,1,2.611.7.187.187,0,0,1,.087.2l-1.123,6.623C2010.256,4337.081,2009.162,4338.248,2007.149,4338.248Zm.686-4.245a3.682,3.682,0,0,0,1.838-.5l.759-4.478a3.394,3.394,0,0,0-1.532-.35,2.142,2.142,0,0,0-2.3,1.867l-.277,1.546C2006.085,4333.478,2006.683,4334,2007.835,4334Z" transform="translate(-1859.912 -4324.901)"/><path d="M2025.567,4331c-.117,0-.176-.073-.146-.175l1.283-7.221a.175.175,0,0,1,.175-.146h.861a.136.136,0,0,1,.146.175l-1.3,7.221a.15.15,0,0,1-.16.146Zm2.013-8.956a.632.632,0,0,1-.642-.788.75.75,0,0,1,.744-.627.63.63,0,0,1,.656.788A.768.768,0,0,1,2027.58,4322.041Z" transform="translate(-1872.845 -4320.568)"/><path d="M2036.4,4326.166l-.715,4.07c-.16.963.16,1.474.977,1.474.117,0,.35-.015.555-.015.1,0,.16.044.131.161l-.117.714a.171.171,0,0,1-.16.146c-.175.014-.409.029-.54.029-1.3,0-2.334-.8-2.013-2.612l1.211-6.8a.163.163,0,0,1,.175-.146h.685a.136.136,0,0,1,.146.161l-.175,1.765h1.619c.116,0,.16.073.146.175l-.132.715a.165.165,0,0,1-.175.16Z" transform="translate(-1878.444 -4322.154)"/><path d="M2047.025,4335.491c-1.561,0-2.917-.9-2.582-2.626.263-1.415,1.619-2.085,3.3-2.085a9.006,9.006,0,0,1,1.78.189l.116-.627c.189-1.065-.16-1.663-1.459-1.663a4.179,4.179,0,0,0-2.1.569.124.124,0,0,1-.2-.073l-.277-.627c-.029-.088-.029-.16.044-.2a5.145,5.145,0,0,1,2.713-.714c1.823,0,2.756,1.123,2.45,2.786l-.758,4.39a.271.271,0,0,1-.131.175A9.132,9.132,0,0,1,2047.025,4335.491Zm.087-1.05a7.17,7.17,0,0,0,1.853-.263l.379-2.188a9.079,9.079,0,0,0-1.648-.175c-1.225,0-1.94.423-2.086,1.2C2045.435,4333.974,2046.091,4334.441,2047.112,4334.441Z" transform="translate(-1884.588 -4324.901)"/><path d="M2066.351,4331.063c-1.327,0-1.984-.948-1.648-2.815l1.342-7.629a.155.155,0,0,1,.175-.146h.861a.141.141,0,0,1,.146.175l-1.357,7.687c-.189,1.094.029,1.648.686,1.648.175,0,.379,0,.555-.014.116-.014.175.029.146.161l-.117.743c-.014.088-.073.132-.175.146A4.724,4.724,0,0,1,2066.351,4331.063Z" transform="translate(-1897.102 -4320.473)"/><path d="M2078.14,4327.629c1.75,0,2.961.962,2.6,2.888l-.263,1.458a.154.154,0,0,1-.175.146h-4.7l-.116.627c-.234,1.123.467,1.706,1.546,1.706a4.027,4.027,0,0,0,2.348-.86.13.13,0,0,1,.219.029l.379.6c.044.088.044.175-.044.22a4.85,4.85,0,0,1-3.049,1.05c-1.561,0-2.917-.963-2.567-2.771l.423-2.378A3.289,3.289,0,0,1,2078.14,4327.629Zm1.473,2.8c.234-1.226-.5-1.75-1.561-1.75a2.064,2.064,0,0,0-2.13,1.75l-.132.7h3.691Z" transform="translate(-1903.072 -4324.901)"/><path d="M2095.306,4335.491a3.966,3.966,0,0,1-2.742-.978.16.16,0,0,1-.029-.219l.423-.583a.138.138,0,0,1,.219-.029,3.3,3.3,0,0,0,2.2.772c1.079,0,1.765-.423,1.9-1.108.175-.817-.584-1.05-1.5-1.3s-2.64-.918-2.334-2.552c.248-1.342,1.634-1.867,3.063-1.867a4.384,4.384,0,0,1,2.45.7c.088.044.088.131.03.219l-.467.627a.16.16,0,0,1-.219.044,3.432,3.432,0,0,0-1.926-.54c-.934,0-1.663.321-1.78,1.006-.131.832.831,1.138,1.634,1.342,1.415.35,2.48,1.109,2.232,2.466C2098.194,4334.879,2096.808,4335.491,2095.306,4335.491Z" transform="translate(-1914.36 -4324.901)"/></g></g></svg>