<?xml version="1.0" encoding="utf-8"?>
<!-- Generator: Adobe Illustrator 22.1.0, SVG Export Plug-In . SVG Version: 6.00 Build 0)  -->
<svg version="1.1" id="Layer_1" xmlns="http://www.w3.org/2000/svg" xmlns:xlink="http://www.w3.org/1999/xlink" x="0px" y="0px"
	 viewBox="0 0 1920 441" style="enable-background:new 0 0 1920 441;" xml:space="preserve">
<style type="text/css">
	.st0{fill:#0DAB8D;}
</style>
<g>
	<g>
		<g>
			<g>
				<g>
					<polygon class="st0" points="1694.3,194.2 1504.7,194.2 1504.7,222.6 1583.6,222.6 1583.6,352 1615.5,352 1615.5,222.6 
						1694.3,222.6 					"/>
					<path class="st0" d="M785.8,194.2H684.5c-22.1,0-40.3,18.1-40.3,40.3v77.3c0,22.1,18.1,40.2,40.3,40.2H818v-28.5H691.7
						c-8.5,0-15.5-7-15.5-15.5v-69.8c0-8.5,7-15.5,15.5-15.5h86.8c8.5,0,15.5,7,15.5,15.5v1.3c0,8.6-7,15.5-15.5,15.5h-86.3v28.4
						h93.6c22.1,0,40.2-18.1,40.2-40.3v-8.7C826,212.3,807.9,194.2,785.8,194.2z"/>
					<path class="st0" d="M1337.3,238.2c0-8.5,7-15.5,15.5-15.5h126.3v-28.4h-133.6c-22.1,0-40.3,18.1-40.3,40.3v77.3
						c0,22.1,18.1,40.2,40.3,40.2h133.6v-28.5h-126.3c-8.5,0-15.5-7-15.5-15.5V238.2z"/>
					<path class="st0" d="M1052.8,194.2h-32v45.2c0,8.6-7,15.5-15.5,15.5h-94.5c-8.6,0-15.6-7-15.6-15.5v-45.2h-32v48.9
						c0,10,3.6,19,9.7,26c-6,7.1-9.7,16.1-9.7,26V352h32v-53c0-8.5,6.9-15.5,15.4-15.5H953h52.4c8.4,0.1,15.3,7,15.3,15.5v53h32
						v-56.8c0-9.9-3.6-18.9-9.6-26c6-7,9.6-16,9.6-26V194.2z"/>
					<path class="st0" d="M1231.4,194.2h-133.5v28.4h126.2c8.5,0,15.5,7,15.5,15.5V308c0,8.5-7,15.5-15.5,15.5h-86.7
						c-8.5,0-15.5-7-15.5-15.5v-9c0-8.6,7-15.5,15.5-15.5h86.3V255H1130c-22.1,0-40.2,18.1-40.2,40.2v16.6
						c0,22.1,18.1,40.2,40.2,40.2h59.5h41.8c22.1,0,40.2-18.1,40.2-40.2v-77.3C1271.6,212.3,1253.5,194.2,1231.4,194.2z"/>
					<path class="st0" d="M1858.8,194.2h-133.6v28.4h126.3c8.5,0,15.5,7,15.5,15.5V308c0,8.5-7,15.5-15.5,15.5h-86.7
						c-8.5,0-15.5-7-15.5-15.5v-9c0-8.6,7-15.5,15.5-15.5h86.3V255h-93.6c-22.1,0-40.2,18.1-40.2,40.2v16.6
						c0,22.1,18.1,40.2,40.2,40.2h59.5h41.9c22.1,0,40.3-18.1,40.3-40.2v-77.3C1899.1,212.3,1880.9,194.2,1858.8,194.2z"/>
				</g>
			</g>
			<path class="st0" d="M564.1,194.2H458.3V96.7h-32V352h32V222.6h98.6c8.5,0,15.5,7,15.5,15.5V352h32V234.5
				C604.4,212.3,586.2,194.2,564.1,194.2z"/>
			<path class="st0" d="M210.3,93.3c2.5-3.1,6.9-4.7,10.9-4.7c7.3,0.1,14.7,0.4,22.1,0.8c3,0.1,6.8-1.3,6.6-4.9V11.1
				c-6.2-0.5-12.4-0.8-18.8-0.8c-116.1,0-210.2,94.1-210.2,210.2c0,116.1,94.1,210.2,210.2,210.2c6.9,0,13.7-0.3,20.5-1v-67.6
				c0-4,4.4-6.1,7.9-6.6c5.6-0.4,11.3-0.9,16.9-1.4c4.3-0.6,8.4-3.1,11-6.5c6.2-8.8,12.2-17.8,18-26.8c2.1-3.5,3-8.3,1.3-12
				c-3.1-6.2-6.1-12.5-9.3-18.7c-1.9-3.5-5.3-2.5-7.2,0.5c-4,6.8-8.2,13.7-12.4,20.4c-2.5,3.8-7,6.6-11.5,7c-8,0.4-15.8,0.7-23.7,1
				c-4,0-5.9-2.8-3.8-6.3c11.7-18.4,22.7-37,33.5-55.9c2.3-4,6.9-6.9,11.6-7.2c7.5-0.2,15-0.3,22.5-0.4c4.3-0.2,8.4-3.2,10.5-7
				c3.4-6.8,6.7-13.6,10-20.5c1.9-4.1,1.7-9.3-0.3-13.3c-9.4-18.5-19.6-36.5-30.5-54.1c-1.8-2.8-5.2-4-7.1-0.6
				c-3.4,6.3-6.7,12.6-10.1,19c-2.1,4.1-1.6,9.3,0.5,13.3c4.1,7,8.1,14.1,12,21.3c1.8,3.4,0.5,6.8-3.6,6.8
				c-7.8-0.1-15.6-0.3-23.4-0.3c-4.8-0.2-9.6-3.2-12.1-7.3c-4.2-7.3-8.3-14.5-12.6-21.8c-2.6-4-7.5-6.8-12.3-7
				c-8.4-0.1-16.8-0.1-25.2,0c-4.8,0.1-9.7,2.8-12.4,7c-11.4,19.2-22.4,38.4-33.3,57.8c-1.8,3.6-0.1,6.9,4.1,7.1
				c8.3,0.1,16.5,0.1,24.8,0.1c4.9,0,9.8-3,12.4-7.1c4.3-7.3,8.5-14.7,12.7-22.1c2.2-3.6,6.1-3.6,8.4,0c4.3,7.4,8.4,14.8,12.7,22.1
				c2.3,4.3,2.3,10,0,14.4c-4.2,7.3-8.5,14.6-12.8,21.9c-2.6,4-7.5,6.8-12.3,7c-8.4-0.1-16.8-0.1-25.2-0.2
				c-4.7,0.1-9.4,2.6-11.9,6.5c-3.7,6.6-7.5,13.1-11.3,19.7c-1.8,3.6,0.5,6.3,4.2,6.5c8,0.4,16,0.7,23.9,0.8c4.6,0.2,9.4,2.7,12,6.5
				c4,6.1,8.2,12.3,12.2,18.4c2.1,3.4-0.4,5.6-3.9,5.8c-20.2-0.3-40.6-1-60.8-2.8c-4.4-0.5-8.7-3-11.3-6.6
				c-4.2-6.2-8.4-12.5-12.4-18.7c-2.2-3.6-2.8-8.4-1.2-12.2c3.2-6.3,6.5-12.6,9.7-18.8c2-4.1,1.4-9.4-0.6-13.3
				c-4-7-8-14.1-11.8-21.2c-2-3.3-5.3-3.7-7.1-0.1c-3.4,6.6-6.6,13.2-9.7,19.9c-1.7,3.4-5.4,6-9.3,5.7c-6.2-0.4-12.3-1-18.4-1.6
				c-3.3-0.4-4.3-3.6-3.3-6.4c7-17.6,14.8-34.8,23.2-51.8c2-3.6,6-6.6,10.2-6.8c7.3-0.2,14.5-0.3,21.7-0.4c4.6-0.2,9-3.2,11.3-7.1
				c4.1-7.3,8.1-14.4,12.4-21.5c2.1-3.9,2.6-9.3,0.4-13.5c-3.6-6.3-7-12.8-10.4-19.2c-2-3.4-5.4-2.3-7.4,0.5
				c-4.1,6.7-8.3,13.5-12.3,20.3c-2.3,3.6-6.5,6.8-10.9,7.2c-6.7,0.4-13.3,0.9-19.9,1.6c-3.8,0.2-4-3.3-2.6-6
				c9.6-17.5,20.1-34.5,31.3-50.9c2.5-3.4,6.5-6.1,10.7-6.7c7.1-0.9,14.2-1.6,21.4-2.4c3.9-0.1,8.3,1.4,10.5,4.8
				c3.6,5.8,7.1,11.7,10.6,17.6c2.5,3.7,7.3,5.8,11.6,5.8c21.4-0.6,42.9-0.5,64.4,0.3c3.7,0,5.6-2.7,3.6-6
				c-4.1-6.4-8.3-12.7-12.5-18.7c-2.7-3.6-7.3-5.8-11.7-6c-7.8-0.1-15.7-0.2-23.4-0.1c-3.4-0.1-5.9-2.1-3.7-5.4
				C202.6,103.8,206.4,98.6,210.3,93.3z"/>
		</g>
	</g>
</g>
</svg>
