<svg xmlns="http://www.w3.org/2000/svg" width="342" height="114.863" viewBox="0 0 342 114.863"><g transform="translate(-50 -1279)"><g transform="translate(50 1279)"><g transform="translate(0 0)"><path d="M559.024,144.187l-6.224,4.021v1.928h29.026v-1.928l-7.408-4.021V130.308a22.821,22.821,0,0,0,21.645-2.341c7.077-5.48,10.024-13.494,10.024-22.582,0-11.814-7.546-20.186-17.569-20.186-5.921,0-11.759,3.442-14.072,7.132l.3-6.995h-2.231l-19.662,7.408V94.7l6.2,2.176-.027,47.311m22.857-15.807c-4.516-.028-7.463-3.194-7.463-8.84v-24.1a9.6,9.6,0,0,1,6.2-2.286c7.38,0,10.492,7.325,10.492,16.936C591.106,122.019,588.187,128.353,581.881,128.38Z" transform="translate(-404.698 -61.958)"/><path d="M281.318,71.5h0V10.7h-2.423L259.7,18.108v1.955l6.224,2.148V71.5h0L259.7,75.526v1.928h27.841V75.526Z" transform="translate(-192.313 -7.974)"/><path d="M899.287,132.238c-12.144,0-23.187-9.253-23.187-23.683,0-11.263,6.224-19.112,16.137-22.058,12.613-3.745,23.435,4.351,23.435,4.351l-7.491,12.7H906.64S902.4,86.828,893.725,89.912c-5.728,2.01-6.306,12.888-3.25,19.883,2.974,6.857,8.757,12.062,17.239,12.062a13.547,13.547,0,0,0,11.814-6.086l1.845.606C919.941,121.306,912.643,132.238,899.287,132.238Z" transform="translate(-638.966 -62.181)"/><path d="M783.124,85.2v40.289l6.8,4.021v1.928H760.9v-1.928l6.8-4.021V96.573l-6.224-1.983V92.608L781.031,85.2Z" transform="translate(-555.491 -61.958)"/><ellipse cx="9.446" cy="8.867" rx="9.446" ry="8.867" transform="translate(209.926)"/><path d="M415.722,121.028V100.7c0-13.8-10.905-15.5-19.249-15.5-9.776,0-20.681,4.241-22.113,5.425l7.573,12.805h1.845c.744-2.368,3.084-14.816,10.933-14.816,3.58,0,6.416,2.286,6.416,8.372v6.472c-6.664.881-12.971,2.093-19.3,5.012-6.334,3.029-8.922,6.747-8.922,12.2,0,5.811,4.709,11.346,12.723,11.346a19.31,19.31,0,0,0,15.477-8.069l1.294,8.1h1.845l17.735-6.857v-1.955ZM401.1,120.78a11.559,11.559,0,0,1-6.609,1.818c-3.883,0-7.132-2.258-7.132-6.086s3.58-8.069,13.742-9.8Z" transform="translate(-274.34 -61.958)"/><path d="M15,60.484c0-19,13.659-31.284,32.192-31.284S78.834,41.482,78.834,60.484,65.285,91.767,46.724,91.767C28.191,91.767,15,79.485,15,60.484Zm44.833,0c0-18.644-5.728-27.208-13.191-27.208-7.38,0-12.64,8.592-12.64,27.208,0,18.644,5.618,27.125,13,27.125,7.49,0,12.833-8.482,12.833-27.125Z" transform="translate(-15 -21.379)"/><g transform="translate(206.18 91.758)"><path d="M765.738,336.781l-2.038-1.129v-.33L767.886,334l.138.11v7.408c.22-.193.5-.386.744-.578a4.324,4.324,0,0,1,.854-.5,5.474,5.474,0,0,1,.936-.358,3.668,3.668,0,0,1,.936-.138,4.258,4.258,0,0,1,1.79.385,3.908,3.908,0,0,1,1.4,1.1,5.311,5.311,0,0,1,.909,1.707,6.8,6.8,0,0,1,.331,2.176,7.7,7.7,0,0,1-.5,2.864,6.6,6.6,0,0,1-1.322,2.12,5.608,5.608,0,0,1-1.873,1.349,5.265,5.265,0,0,1-2.12.468,5.875,5.875,0,0,1-1.955-.275,10.986,10.986,0,0,1-1.349-.578l-.936.744h-.138V336.781Zm4.461,4.792a2.694,2.694,0,0,0-1.129.248,9.327,9.327,0,0,0-1.046.551v7.711a6.327,6.327,0,0,0,1.129.633,3.526,3.526,0,0,0,1.322.248,2.485,2.485,0,0,0,1.267-.33,2.91,2.91,0,0,0,.991-.936,4.689,4.689,0,0,0,.633-1.46,6.928,6.928,0,0,0,.22-1.9,7.086,7.086,0,0,0-.3-2.148,4.24,4.24,0,0,0-.8-1.487,2.918,2.918,0,0,0-1.1-.854A2.657,2.657,0,0,0,770.2,341.573Z" transform="translate(-763.7 -334)"/><path d="M817.331,367.847v-.055h-.964l-3.773-9.336-1.294-.5V357.3h5.563v.578l-1.9.358,2.974,7.711h.055l2.891-7.49-1.735-.5V357.3h3.911v.578l-.991.358-4.406,11.318a11.82,11.82,0,0,1-1.184,2.231,6,6,0,0,1-1.239,1.349,3.518,3.518,0,0,1-1.129.661,3.047,3.047,0,0,1-.854.193,1.664,1.664,0,0,1-1.157-.358,1.31,1.31,0,0,1-.413-1.047,1.708,1.708,0,0,1,.248-.881,2.335,2.335,0,0,1,.551-.688h.055l2.231.716a1.081,1.081,0,0,0,.386-.083,1.9,1.9,0,0,0,.468-.3,4.019,4.019,0,0,0,.523-.688,6.939,6.939,0,0,0,.551-1.184l.633-1.625Z" transform="translate(-798.192 -350.884)"/><path d="M873.4,346.315l-1.818-.854V344.8h4.379l4.379,10.823h.11l4.406-10.823h3.993v.826l-1.6.413.826,12.31,1.818.413v.826h-6.361V358.9l2.12-.854-.551-10.878h-.055l-4.957,11.9h-.771l-4.709-11.153h-.055l-.661,10.41,2.341.413v.826H870.7V358.9l1.845-.854Z" transform="translate(-841.234 -341.826)"/><path d="M945.9,361.769a6.949,6.949,0,0,1,.441-2.561,5.174,5.174,0,0,1,1.239-1.928,5.683,5.683,0,0,1,1.9-1.239,6.326,6.326,0,0,1,2.423-.441,5.135,5.135,0,0,1,2.176.468,4.82,4.82,0,0,1,1.625,1.239,5.84,5.84,0,0,1,1.019,1.873,6.97,6.97,0,0,1,.358,2.286A8.025,8.025,0,0,1,956.7,364a5.209,5.209,0,0,1-3.057,3.277,6.742,6.742,0,0,1-2.561.468,4.958,4.958,0,0,1-2.176-.468,4.566,4.566,0,0,1-1.625-1.267,6.3,6.3,0,0,1-1.019-1.9A7.079,7.079,0,0,1,945.9,361.769Zm2.561-.551a15.344,15.344,0,0,0,.165,2.451,4.153,4.153,0,0,0,.578,1.652,2.223,2.223,0,0,0,1.019.936,3.531,3.531,0,0,0,1.515.3,2.384,2.384,0,0,0,1.377-.358,2.61,2.61,0,0,0,.854-.964,4.1,4.1,0,0,0,.441-1.349,9.575,9.575,0,0,0,.11-1.57,18.891,18.891,0,0,0-.11-2.231,5.332,5.332,0,0,0-.441-1.763,2.547,2.547,0,0,0-.991-1.157,3.134,3.134,0,0,0-1.707-.413,2.261,2.261,0,0,0-1.322.358,2.5,2.5,0,0,0-.881.964,4.38,4.38,0,0,0-.468,1.432A10.717,10.717,0,0,0,948.461,361.218Z" transform="translate(-895.725 -349.652)"/><path d="M1001.372,355.455a3.209,3.209,0,0,1,1.762.413,2.542,2.542,0,0,1,.909,1.046,4.712,4.712,0,0,1,.358,1.515c.027.578.055,1.157.055,1.735v6.058l2.038.275v.744h-5.783v-.358l1.432-1.074v-5.728c0-.331-.028-.633-.055-.991a2.5,2.5,0,0,0-.275-.909,1.917,1.917,0,0,0-.716-.689,2.664,2.664,0,0,0-1.349-.275,3.54,3.54,0,0,0-1.239.248,3.833,3.833,0,0,0-1.157.633v8.1l1.845.275v.744H993v-.358l2.038-1.074v-7.6L993,357.025v-.3l4.158-1.322.165.138-.275,1.873.055.028a8.178,8.178,0,0,1,.661-.578,7.717,7.717,0,0,1,.991-.661,8.437,8.437,0,0,1,1.239-.551A5.361,5.361,0,0,1,1001.372,355.455Z" transform="translate(-929.854 -349.507)"/><path d="M1047,361.769a6.949,6.949,0,0,1,.441-2.561,5.172,5.172,0,0,1,1.239-1.928,5.681,5.681,0,0,1,1.9-1.239A6.326,6.326,0,0,1,1053,355.6a5.135,5.135,0,0,1,2.176.468,4.819,4.819,0,0,1,1.625,1.239,5.838,5.838,0,0,1,1.019,1.873,6.97,6.97,0,0,1,.358,2.286A8.028,8.028,0,0,1,1057.8,364a5.208,5.208,0,0,1-3.057,3.277,6.742,6.742,0,0,1-2.561.468,4.958,4.958,0,0,1-2.176-.468,4.566,4.566,0,0,1-1.625-1.267,6.3,6.3,0,0,1-1.019-1.9A7.076,7.076,0,0,1,1047,361.769Zm2.561-.551a15.344,15.344,0,0,0,.165,2.451,4.153,4.153,0,0,0,.578,1.652,2.223,2.223,0,0,0,1.019.936,3.531,3.531,0,0,0,1.515.3,2.384,2.384,0,0,0,1.377-.358,2.61,2.61,0,0,0,.854-.964,4.092,4.092,0,0,0,.441-1.349,9.575,9.575,0,0,0,.11-1.57,18.891,18.891,0,0,0-.11-2.231,5.332,5.332,0,0,0-.441-1.763,2.548,2.548,0,0,0-.991-1.157,3.134,3.134,0,0,0-1.707-.413,2.261,2.261,0,0,0-1.322.358,2.5,2.5,0,0,0-.881.964,4.374,4.374,0,0,0-.468,1.432A10.716,10.716,0,0,0,1049.561,361.218Z" transform="translate(-968.984 -349.652)"/><path d="M1097.685,362.227a3.158,3.158,0,0,1-1.68-.386,2.43,2.43,0,0,1-.881-1.019,4.051,4.051,0,0,1-.331-1.46c-.027-.551-.055-1.129-.055-1.707V352.01H1092.7v-.358l2.038-1.57,1.928-1.983h.358v2.561h3.883l-.22,1.322H1097v5.673c0,.358.028.688.055,1.046a3.115,3.115,0,0,0,.22.936,1.4,1.4,0,0,0,.578.688,1.687,1.687,0,0,0,1.046.275,2.622,2.622,0,0,0,1.047-.193,3.926,3.926,0,0,0,1.046-.633l.441.578c-.193.165-.413.358-.688.578a7.475,7.475,0,0,1-.909.606,7.275,7.275,0,0,1-1.047.5A3.1,3.1,0,0,1,1097.685,362.227Z" transform="translate(-1002.099 -344.217)"/><path d="M1130.831,367.847v-.055h-.964l-3.773-9.336-1.294-.5V357.3h5.563v.578l-1.9.358,2.974,7.711h.055l2.892-7.49-1.735-.5V357.3h3.91v.578l-.991.358-4.406,11.318a11.816,11.816,0,0,1-1.184,2.231,6,6,0,0,1-1.239,1.349,3.517,3.517,0,0,1-1.129.661,3.046,3.046,0,0,1-.854.193,1.664,1.664,0,0,1-1.156-.358,1.31,1.31,0,0,1-.413-1.047,1.709,1.709,0,0,1,.248-.881,2.335,2.335,0,0,1,.551-.688h.055l2.231.716a1.082,1.082,0,0,0,.386-.083,1.9,1.9,0,0,0,.468-.3,4.026,4.026,0,0,0,.523-.688,6.939,6.939,0,0,0,.551-1.184l.633-1.625Z" transform="translate(-1025.359 -350.884)"/><path d="M1175.7,371.793v.744h-6.8v-.358l2.038-1.074V358.381l-2.038-1.157v-.3l4.158-1.322.165.138-.276,1.845H1173c.22-.193.468-.385.771-.633.3-.22.606-.441.936-.661a6.956,6.956,0,0,1,1.019-.5,2.913,2.913,0,0,1,1.046-.193,4.256,4.256,0,0,1,1.79.385,3.908,3.908,0,0,1,1.4,1.1,5.313,5.313,0,0,1,.909,1.707,6.8,6.8,0,0,1,.33,2.175,7.707,7.707,0,0,1-.5,2.864,6.6,6.6,0,0,1-1.322,2.12,5.607,5.607,0,0,1-1.873,1.349,5.264,5.264,0,0,1-2.12.468,6.83,6.83,0,0,1-2.12-.33v3.91Zm-2.478-6.031a6.315,6.315,0,0,0,1.129.633,3.567,3.567,0,0,0,1.349.248,2.485,2.485,0,0,0,1.267-.33,2.913,2.913,0,0,0,.991-.936,5.44,5.44,0,0,0,.633-1.459,6.921,6.921,0,0,0,.22-1.9,6.774,6.774,0,0,0-.3-2.12,3.832,3.832,0,0,0-.8-1.4,3.075,3.075,0,0,0-2.313-1.046,2.788,2.788,0,0,0-1.129.248,6.362,6.362,0,0,0-1.046.578Z" transform="translate(-1057.314 -349.652)"/><path d="M1220.8,362.006a7.519,7.519,0,0,1,.413-2.534,5.514,5.514,0,0,1,1.184-1.983,5.714,5.714,0,0,1,1.928-1.322,6.433,6.433,0,0,1,2.616-.468,4.088,4.088,0,0,1,1.57.3,3.332,3.332,0,0,1,1.156.854,4.084,4.084,0,0,1,.716,1.267,4.93,4.93,0,0,1,.248,1.57,2.655,2.655,0,0,1-.028.468c-.027.138-.027.3-.055.468l-.055.055h-7.3v.3a7.382,7.382,0,0,0,.33,2.341,5.031,5.031,0,0,0,.854,1.625,3.166,3.166,0,0,0,1.239.964,3.234,3.234,0,0,0,1.4.3,3.747,3.747,0,0,0,.991-.138,4.179,4.179,0,0,0,.881-.33q.413-.207.744-.413a5.955,5.955,0,0,1,.606-.413l.5.771a8.11,8.11,0,0,1-2.038,1.542,5.7,5.7,0,0,1-4.874.165,4.667,4.667,0,0,1-1.652-1.239,5.353,5.353,0,0,1-1.019-1.873A6.973,6.973,0,0,1,1220.8,362.006Zm5.122-5.453a2.147,2.147,0,0,0-1.129.275,2.92,2.92,0,0,0-.8.744,4.134,4.134,0,0,0-.523,1.046,9.2,9.2,0,0,0-.275,1.184l4.6-.3a4.18,4.18,0,0,0,.055-.771,2.184,2.184,0,0,0-.22-1.1,1.8,1.8,0,0,0-.523-.661,1.559,1.559,0,0,0-.633-.33,1.777,1.777,0,0,0-.551-.083Z" transform="translate(-1094.922 -349.724)"/></g></g></g></g></svg>