<svg xmlns="http://www.w3.org/2000/svg" width="7.512" height="13.025" viewBox="0 0 7.512 13.025"><defs><style>.a{fill:#fff;}</style></defs><g transform="translate(-508 -400)"><g transform="translate(690.953 1015.643) rotate(180)"><path class="a" d="M176.441,615.643a1,1,0,0,1-.707-1.707l5.5-5.5a1,1,0,0,1,1.439,1.389l-.025.025-5.5,5.5A1,1,0,0,1,176.441,615.643Z"/><path class="a" d="M176.441,602.618a1,1,0,0,0-.707,1.707l5.5,5.5a1,1,0,0,0,1.439-1.389l-.025-.025-5.5-5.5A1.006,1.006,0,0,0,176.441,602.618Z"/></g></g></svg>