<svg xmlns="http://www.w3.org/2000/svg" width="20.108" height="20.291" viewBox="0 0 20.108 20.291"><defs><style>.a{fill:#fff;stroke:rgba(0,0,0,0);}</style></defs><g transform="translate(-1009.392 -621.461)"><g transform="translate(1009.892 622.144)"><path class="a" d="M783.31,477.619a2.54,2.54,0,0,1-1.8-.746L767.5,462.861a2.547,2.547,0,0,1,3.6-3.6l14.012,14.012a2.548,2.548,0,0,1-1.8,4.349Z" transform="translate(-766.75 -458.512)"/></g><g transform="translate(1009.892 622.144)"><path class="a" d="M769.3,477.619a2.548,2.548,0,0,1-1.8-4.349l14.012-14.012a2.547,2.547,0,0,1,3.6,3.6L771.1,476.873A2.54,2.54,0,0,1,769.3,477.619Z" transform="translate(-766.75 -458.512)"/></g></g></svg>