<svg xmlns="http://www.w3.org/2000/svg" width="19" height="19" viewBox="0 0 19 19"><defs><style>.a{fill:#9841bd;}.b{fill:#fff;}</style></defs><g transform="translate(-886 -267)"><circle class="a" cx="9.5" cy="9.5" r="9.5" transform="translate(886 267)"/><g transform="translate(718 -116)"><path class="b" d="M175.941,396.643a1,1,0,0,1-.707-.293l-2.5-2.5a1,1,0,0,1,1.39-1.439l.024.025,2.5,2.5a1,1,0,0,1-.707,1.707Z"/></g><g transform="translate(718 -116)"><path class="b" d="M176.441,396.643a1,1,0,0,1-.707-1.707l5.5-5.5a1,1,0,0,1,1.439,1.389l-.025.025-5.5,5.5A1,1,0,0,1,176.441,396.643Z"/></g></g></svg>