<svg xmlns="http://www.w3.org/2000/svg" width="20.382" height="19" viewBox="0 0 20.382 19"><defs><style>.a{fill:#c11a00;}.a,.b{stroke:rgba(0,0,0,0);}.b{fill:#fff;}</style></defs><g transform="translate(-45.451 -39.5)"><path class="a" d="M766.055,454.592l-4.739,8.208a4.9,4.9,0,0,0,4.24,7.344h9.479a4.9,4.9,0,0,0,4.24-7.344l-4.739-8.208A4.9,4.9,0,0,0,766.055,454.592Z" transform="translate(-714.653 -412.143)"/><g transform="translate(51.892 46.144)"><path class="b" d="M773.25,466.012a1,1,0,0,1-.707-.293l-5.5-5.5a1,1,0,1,1,1.414-1.414l5.5,5.5a1,1,0,0,1-.707,1.707Z" transform="translate(-766.75 -458.512)"/></g><g transform="translate(51.892 46.144)"><path class="b" d="M767.75,466.012a1,1,0,0,1-.707-1.707l5.5-5.5a1,1,0,1,1,1.414,1.414l-5.5,5.5A1,1,0,0,1,767.75,466.012Z" transform="translate(-766.75 -458.512)"/></g></g></svg>